{
  "header": {
    "PPQ": 120,
    "timeSignature": [
      4,
      4
    ],
    "bpm": 80,
    "name": "sequenced by:"
  },
  "startTime": 0,
  "duration": 128.99375,
  "tracks": [
    {
      "startTime": 0,
      "duration": 0,
      "length": 0,
      "id": 0
    },
    {
      "startTime": 7.875,
      "duration": 128.99375,
      "length": 492,
      "id": 1,
      "name": "PIANO MELODY",
      "instrumentNumber": 0,
      "instrument": "acoustic grand piano",
      "instrumentFamily": "piano",
      "channelNumber": 0,
      "isPercussion": false,
      "notes": [
        {
          "name": "G5",
          "midi": 79,
          "time": 7.875,
          "velocity": 1,
          "duration": 0.375
        },
        {
          "name": "G4",
          "midi": 67,
          "time": 7.875,
          "velocity": 1,
          "duration": 0.375
        },
        {
          "name": "G3",
          "midi": 55,
          "time": 7.875,
          "velocity": 1,
          "duration": 0.375
        },
        {
          "name": "C6",
          "midi": 84,
          "time": 8.25,
          "velocity": 1,
          "duration": 0.375
        },
        {
          "name": "C5",
          "midi": 72,
          "time": 8.25,
          "velocity": 1,
          "duration": 0.375
        },
        {
          "name": "C4",
          "midi": 60,
          "time": 8.25,
          "velocity": 1,
          "duration": 0.375
        },
        {
          "name": "D#6",
          "midi": 87,
          "time": 8.625,
          "velocity": 1,
          "duration": 0.375
        },
        {
          "name": "D#5",
          "midi": 75,
          "time": 8.625,
          "velocity": 1,
          "duration": 0.375
        },
        {
          "name": "D#4",
          "midi": 63,
          "time": 8.625,
          "velocity": 1,
          "duration": 0.375
        },
        {
          "name": "D6",
          "midi": 86,
          "time": 9,
          "velocity": 1,
          "duration": 0.3874999999999993
        },
        {
          "name": "D5",
          "midi": 74,
          "time": 9,
          "velocity": 1,
          "duration": 0.3874999999999993
        },
        {
          "name": "D4",
          "midi": 62,
          "time": 9,
          "velocity": 1,
          "duration": 0.3874999999999993
        },
        {
          "name": "C6",
          "midi": 84,
          "time": 9.375,
          "velocity": 1,
          "duration": 0.3687499999999986
        },
        {
          "name": "C5",
          "midi": 72,
          "time": 9.375,
          "velocity": 1,
          "duration": 0.3687499999999986
        },
        {
          "name": "C4",
          "midi": 60,
          "time": 9.375,
          "velocity": 1,
          "duration": 0.3687499999999986
        },
        {
          "name": "D#6",
          "midi": 87,
          "time": 9.749999999999998,
          "velocity": 1,
          "duration": 0.36875000000000036
        },
        {
          "name": "D#5",
          "midi": 75,
          "time": 9.749999999999998,
          "velocity": 1,
          "duration": 0.36875000000000036
        },
        {
          "name": "D#4",
          "midi": 63,
          "time": 9.749999999999998,
          "velocity": 1,
          "duration": 0.36875000000000036
        },
        {
          "name": "C6",
          "midi": 84,
          "time": 10.124999999999998,
          "velocity": 1,
          "duration": 0.36875000000000036
        },
        {
          "name": "C5",
          "midi": 72,
          "time": 10.124999999999998,
          "velocity": 1,
          "duration": 0.36875000000000036
        },
        {
          "name": "C4",
          "midi": 60,
          "time": 10.124999999999998,
          "velocity": 1,
          "duration": 0.36875000000000036
        },
        {
          "name": "D6",
          "midi": 86,
          "time": 10.499999999999998,
          "velocity": 1,
          "duration": 0.36875000000000036
        },
        {
          "name": "D5",
          "midi": 74,
          "time": 10.499999999999998,
          "velocity": 1,
          "duration": 0.36875000000000036
        },
        {
          "name": "D4",
          "midi": 62,
          "time": 10.499999999999998,
          "velocity": 1,
          "duration": 0.36875000000000036
        },
        {
          "name": "C6",
          "midi": 84,
          "time": 10.874999999999998,
          "velocity": 1,
          "duration": 0.5
        },
        {
          "name": "C5",
          "midi": 72,
          "time": 10.874999999999998,
          "velocity": 1,
          "duration": 0.5
        },
        {
          "name": "C4",
          "midi": 60,
          "time": 10.874999999999998,
          "velocity": 1,
          "duration": 0.5
        },
        {
          "name": "G#5",
          "midi": 80,
          "time": 11.499999999999998,
          "velocity": 1,
          "duration": 0.25
        },
        {
          "name": "G#4",
          "midi": 68,
          "time": 11.499999999999998,
          "velocity": 1,
          "duration": 0.25
        },
        {
          "name": "G#3",
          "midi": 56,
          "time": 11.499999999999998,
          "velocity": 1,
          "duration": 0.25
        },
        {
          "name": "A#5",
          "midi": 82,
          "time": 11.749999999999998,
          "velocity": 1,
          "duration": 0.25
        },
        {
          "name": "A#4",
          "midi": 70,
          "time": 11.749999999999998,
          "velocity": 1,
          "duration": 0.25
        },
        {
          "name": "A#3",
          "midi": 58,
          "time": 11.749999999999998,
          "velocity": 1,
          "duration": 0.25
        },
        {
          "name": "G5",
          "midi": 79,
          "time": 11.999999999999998,
          "velocity": 1,
          "duration": 1.875
        },
        {
          "name": "G4",
          "midi": 67,
          "time": 11.999999999999998,
          "velocity": 1,
          "duration": 1.875
        },
        {
          "name": "G3",
          "midi": 55,
          "time": 11.999999999999998,
          "velocity": 1,
          "duration": 1.875
        },
        {
          "name": "G5",
          "midi": 79,
          "time": 13.874999999999998,
          "velocity": 0.968503937007874,
          "duration": 0.375
        },
        {
          "name": "G4",
          "midi": 67,
          "time": 13.874999999999998,
          "velocity": 0.968503937007874,
          "duration": 0.375
        },
        {
          "name": "G3",
          "midi": 55,
          "time": 13.874999999999998,
          "velocity": 0.968503937007874,
          "duration": 0.375
        },
        {
          "name": "C6",
          "midi": 84,
          "time": 14.249999999999998,
          "velocity": 0.968503937007874,
          "duration": 0.36875000000000036
        },
        {
          "name": "C5",
          "midi": 72,
          "time": 14.249999999999998,
          "velocity": 0.968503937007874,
          "duration": 0.36875000000000036
        },
        {
          "name": "C4",
          "midi": 60,
          "time": 14.249999999999998,
          "velocity": 0.968503937007874,
          "duration": 0.36875000000000036
        },
        {
          "name": "D#6",
          "midi": 87,
          "time": 14.624999999999998,
          "velocity": 0.968503937007874,
          "duration": 0.375
        },
        {
          "name": "D#5",
          "midi": 75,
          "time": 14.624999999999998,
          "velocity": 0.968503937007874,
          "duration": 0.375
        },
        {
          "name": "D#4",
          "midi": 63,
          "time": 14.624999999999998,
          "velocity": 0.968503937007874,
          "duration": 0.375
        },
        {
          "name": "D6",
          "midi": 86,
          "time": 14.999999999999998,
          "velocity": 0.9921259842519685,
          "duration": 0.36875000000000036
        },
        {
          "name": "D5",
          "midi": 74,
          "time": 14.999999999999998,
          "velocity": 0.9921259842519685,
          "duration": 0.36875000000000036
        },
        {
          "name": "D4",
          "midi": 62,
          "time": 14.999999999999998,
          "velocity": 0.9921259842519685,
          "duration": 0.36875000000000036
        },
        {
          "name": "C6",
          "midi": 84,
          "time": 15.374999999999998,
          "velocity": 1,
          "duration": 0.36875000000000036
        },
        {
          "name": "C5",
          "midi": 72,
          "time": 15.374999999999998,
          "velocity": 1,
          "duration": 0.36875000000000036
        },
        {
          "name": "C4",
          "midi": 60,
          "time": 15.374999999999998,
          "velocity": 1,
          "duration": 0.36875000000000036
        },
        {
          "name": "D#6",
          "midi": 87,
          "time": 15.749999999999998,
          "velocity": 0.9921259842519685,
          "duration": 0.36875000000000036
        },
        {
          "name": "D#5",
          "midi": 75,
          "time": 15.749999999999998,
          "velocity": 0.9921259842519685,
          "duration": 0.36875000000000036
        },
        {
          "name": "D#4",
          "midi": 63,
          "time": 15.749999999999998,
          "velocity": 0.9921259842519685,
          "duration": 0.36875000000000036
        },
        {
          "name": "C6",
          "midi": 84,
          "time": 16.125,
          "velocity": 1,
          "duration": 0.3687499999999986
        },
        {
          "name": "C5",
          "midi": 72,
          "time": 16.125,
          "velocity": 1,
          "duration": 0.3687499999999986
        },
        {
          "name": "C4",
          "midi": 60,
          "time": 16.125,
          "velocity": 1,
          "duration": 0.3687499999999986
        },
        {
          "name": "D6",
          "midi": 86,
          "time": 16.5,
          "velocity": 0.984251968503937,
          "duration": 0.3687499999999986
        },
        {
          "name": "D5",
          "midi": 74,
          "time": 16.5,
          "velocity": 0.984251968503937,
          "duration": 0.3687499999999986
        },
        {
          "name": "D4",
          "midi": 62,
          "time": 16.5,
          "velocity": 0.984251968503937,
          "duration": 0.3687499999999986
        },
        {
          "name": "C6",
          "midi": 84,
          "time": 16.875,
          "velocity": 0.9921259842519685,
          "duration": 0.5
        },
        {
          "name": "C5",
          "midi": 72,
          "time": 16.875,
          "velocity": 0.9921259842519685,
          "duration": 0.5
        },
        {
          "name": "C4",
          "midi": 60,
          "time": 16.875,
          "velocity": 0.9921259842519685,
          "duration": 0.5
        },
        {
          "name": "G5",
          "midi": 79,
          "time": 17.5,
          "velocity": 0.9921259842519685,
          "duration": 0.25
        },
        {
          "name": "G4",
          "midi": 67,
          "time": 17.5,
          "velocity": 0.9921259842519685,
          "duration": 0.25
        },
        {
          "name": "G3",
          "midi": 55,
          "time": 17.5,
          "velocity": 0.9921259842519685,
          "duration": 0.25
        },
        {
          "name": "F#5",
          "midi": 78,
          "time": 17.75,
          "velocity": 1,
          "duration": 0.25
        },
        {
          "name": "F#4",
          "midi": 66,
          "time": 17.75,
          "velocity": 1,
          "duration": 0.25
        },
        {
          "name": "F#3",
          "midi": 54,
          "time": 17.75,
          "velocity": 1,
          "duration": 0.25
        },
        {
          "name": "F5",
          "midi": 77,
          "time": 18,
          "velocity": 0.9921259842519685,
          "duration": 1.8687499999999986
        },
        {
          "name": "F4",
          "midi": 65,
          "time": 18,
          "velocity": 0.9921259842519685,
          "duration": 1.8687499999999986
        },
        {
          "name": "F3",
          "midi": 53,
          "time": 18,
          "velocity": 0.9921259842519685,
          "duration": 1.8687499999999986
        },
        {
          "name": "F5",
          "midi": 77,
          "time": 19.875,
          "velocity": 0.984251968503937,
          "duration": 0.3687499999999986
        },
        {
          "name": "F4",
          "midi": 65,
          "time": 19.875,
          "velocity": 0.984251968503937,
          "duration": 0.3687499999999986
        },
        {
          "name": "F3",
          "midi": 53,
          "time": 19.875,
          "velocity": 0.984251968503937,
          "duration": 0.3687499999999986
        },
        {
          "name": "G#5",
          "midi": 80,
          "time": 20.25,
          "velocity": 1,
          "duration": 0.3687499999999986
        },
        {
          "name": "G#4",
          "midi": 68,
          "time": 20.25,
          "velocity": 1,
          "duration": 0.3687499999999986
        },
        {
          "name": "G#3",
          "midi": 56,
          "time": 20.25,
          "velocity": 1,
          "duration": 0.3687499999999986
        },
        {
          "name": "B5",
          "midi": 83,
          "time": 20.625,
          "velocity": 1,
          "duration": 0.3687499999999986
        },
        {
          "name": "B4",
          "midi": 71,
          "time": 20.625,
          "velocity": 1,
          "duration": 0.3687499999999986
        },
        {
          "name": "B3",
          "midi": 59,
          "time": 20.625,
          "velocity": 1,
          "duration": 0.3687499999999986
        },
        {
          "name": "D6",
          "midi": 86,
          "time": 21,
          "velocity": 1,
          "duration": 1.8687499999999986
        },
        {
          "name": "D5",
          "midi": 74,
          "time": 21,
          "velocity": 1,
          "duration": 1.8687499999999986
        },
        {
          "name": "D4",
          "midi": 62,
          "time": 21,
          "velocity": 1,
          "duration": 1.8687499999999986
        },
        {
          "name": "F5",
          "midi": 77,
          "time": 22.875,
          "velocity": 0.984251968503937,
          "duration": 0.3687499999999986
        },
        {
          "name": "F4",
          "midi": 65,
          "time": 22.875,
          "velocity": 0.984251968503937,
          "duration": 0.3687499999999986
        },
        {
          "name": "F3",
          "midi": 53,
          "time": 22.875,
          "velocity": 0.984251968503937,
          "duration": 0.3687499999999986
        },
        {
          "name": "G#5",
          "midi": 80,
          "time": 23.25,
          "velocity": 0.984251968503937,
          "duration": 0.3687499999999986
        },
        {
          "name": "G#4",
          "midi": 68,
          "time": 23.25,
          "velocity": 0.984251968503937,
          "duration": 0.3687499999999986
        },
        {
          "name": "G#3",
          "midi": 56,
          "time": 23.25,
          "velocity": 0.984251968503937,
          "duration": 0.3687499999999986
        },
        {
          "name": "B5",
          "midi": 83,
          "time": 23.625,
          "velocity": 0.9763779527559056,
          "duration": 0.3687499999999986
        },
        {
          "name": "B4",
          "midi": 71,
          "time": 23.625,
          "velocity": 0.9763779527559056,
          "duration": 0.3687499999999986
        },
        {
          "name": "B3",
          "midi": 59,
          "time": 23.625,
          "velocity": 0.9763779527559056,
          "duration": 0.3687499999999986
        },
        {
          "name": "C6",
          "midi": 84,
          "time": 24,
          "velocity": 0.9606299212598425,
          "duration": 1.8687499999999986
        },
        {
          "name": "C5",
          "midi": 72,
          "time": 24,
          "velocity": 0.9606299212598425,
          "duration": 1.8687499999999986
        },
        {
          "name": "C4",
          "midi": 60,
          "time": 24,
          "velocity": 0.9606299212598425,
          "duration": 1.8687499999999986
        },
        {
          "name": "C5",
          "midi": 72,
          "time": 25.875,
          "velocity": 0.9763779527559056,
          "duration": 0.3687499999999986
        },
        {
          "name": "C4",
          "midi": 60,
          "time": 25.875,
          "velocity": 0.9763779527559056,
          "duration": 0.3687499999999986
        },
        {
          "name": "C3",
          "midi": 48,
          "time": 25.875,
          "velocity": 0.9763779527559056,
          "duration": 0.3687499999999986
        },
        {
          "name": "D#5",
          "midi": 75,
          "time": 26.25,
          "velocity": 0.9763779527559056,
          "duration": 0.3687499999999986
        },
        {
          "name": "D#4",
          "midi": 63,
          "time": 26.25,
          "velocity": 0.9763779527559056,
          "duration": 0.3687499999999986
        },
        {
          "name": "D#3",
          "midi": 51,
          "time": 26.25,
          "velocity": 0.9763779527559056,
          "duration": 0.3687499999999986
        },
        {
          "name": "A#5",
          "midi": 82,
          "time": 26.625,
          "velocity": 0.9763779527559056,
          "duration": 0.3687499999999986
        },
        {
          "name": "A#4",
          "midi": 70,
          "time": 26.625,
          "velocity": 0.9763779527559056,
          "duration": 0.3687499999999986
        },
        {
          "name": "A#3",
          "midi": 58,
          "time": 26.625,
          "velocity": 0.9763779527559056,
          "duration": 0.3687499999999986
        },
        {
          "name": "G#5",
          "midi": 80,
          "time": 27,
          "velocity": 0.9921259842519685,
          "duration": 0.3687499999999986
        },
        {
          "name": "G#4",
          "midi": 68,
          "time": 27,
          "velocity": 0.9921259842519685,
          "duration": 0.3687499999999986
        },
        {
          "name": "G#3",
          "midi": 56,
          "time": 27,
          "velocity": 0.9921259842519685,
          "duration": 0.3687499999999986
        },
        {
          "name": "G5",
          "midi": 79,
          "time": 27.375,
          "velocity": 0.9921259842519685,
          "duration": 0.7437499999999986
        },
        {
          "name": "G4",
          "midi": 67,
          "time": 27.375,
          "velocity": 0.9921259842519685,
          "duration": 0.75
        },
        {
          "name": "G3",
          "midi": 55,
          "time": 27.375,
          "velocity": 0.9921259842519685,
          "duration": 0.75
        },
        {
          "name": "A#5",
          "midi": 82,
          "time": 28,
          "velocity": 0.9763779527559056,
          "duration": 0.25
        },
        {
          "name": "A#4",
          "midi": 70,
          "time": 28,
          "velocity": 0.9763779527559056,
          "duration": 0.25
        },
        {
          "name": "A#3",
          "midi": 58,
          "time": 28,
          "velocity": 0.9763779527559056,
          "duration": 0.25
        },
        {
          "name": "G#5",
          "midi": 80,
          "time": 28.25,
          "velocity": 0.9921259842519685,
          "duration": 0.25
        },
        {
          "name": "G#4",
          "midi": 68,
          "time": 28.25,
          "velocity": 0.9921259842519685,
          "duration": 0.25
        },
        {
          "name": "G#3",
          "midi": 56,
          "time": 28.25,
          "velocity": 0.9921259842519685,
          "duration": 0.25
        },
        {
          "name": "G#5",
          "midi": 80,
          "time": 28.5,
          "velocity": 0.9921259842519685,
          "duration": 0.3687499999999986
        },
        {
          "name": "G#4",
          "midi": 68,
          "time": 28.5,
          "velocity": 0.9921259842519685,
          "duration": 0.3687499999999986
        },
        {
          "name": "G#3",
          "midi": 56,
          "time": 28.5,
          "velocity": 0.9921259842519685,
          "duration": 0.3687499999999986
        },
        {
          "name": "G5",
          "midi": 79,
          "time": 28.875,
          "velocity": 0.9921259842519685,
          "duration": 0.3687499999999986
        },
        {
          "name": "G4",
          "midi": 67,
          "time": 28.875,
          "velocity": 0.9921259842519685,
          "duration": 0.3687499999999986
        },
        {
          "name": "G3",
          "midi": 55,
          "time": 28.875,
          "velocity": 0.9921259842519685,
          "duration": 0.3687499999999986
        },
        {
          "name": "G5",
          "midi": 79,
          "time": 29.25,
          "velocity": 0.9921259842519685,
          "duration": 0.3687499999999986
        },
        {
          "name": "G4",
          "midi": 67,
          "time": 29.25,
          "velocity": 0.9921259842519685,
          "duration": 0.3687499999999986
        },
        {
          "name": "G3",
          "midi": 55,
          "time": 29.25,
          "velocity": 0.9921259842519685,
          "duration": 0.3687499999999986
        },
        {
          "name": "B4",
          "midi": 71,
          "time": 29.625,
          "velocity": 1,
          "duration": 0.3687499999999986
        },
        {
          "name": "B3",
          "midi": 59,
          "time": 29.625,
          "velocity": 1,
          "duration": 0.3687499999999986
        },
        {
          "name": "B2",
          "midi": 47,
          "time": 29.625,
          "velocity": 1,
          "duration": 0.3687499999999986
        },
        {
          "name": "C5",
          "midi": 72,
          "time": 30,
          "velocity": 1,
          "duration": 1.8687499999999986
        },
        {
          "name": "C4",
          "midi": 60,
          "time": 30,
          "velocity": 1,
          "duration": 1.8687499999999986
        },
        {
          "name": "C3",
          "midi": 48,
          "time": 30,
          "velocity": 1,
          "duration": 1.8687499999999986
        },
        {
          "name": "C6",
          "midi": 84,
          "time": 31.875,
          "velocity": 0.968503937007874,
          "duration": 0.3687499999999986
        },
        {
          "name": "C5",
          "midi": 72,
          "time": 31.875,
          "velocity": 0.968503937007874,
          "duration": 0.3687499999999986
        },
        {
          "name": "C4",
          "midi": 60,
          "time": 31.875,
          "velocity": 0.968503937007874,
          "duration": 0.3687499999999986
        },
        {
          "name": "C6",
          "midi": 84,
          "time": 32.25,
          "velocity": 0.968503937007874,
          "duration": 0.3687499999999986
        },
        {
          "name": "C5",
          "midi": 72,
          "time": 32.25,
          "velocity": 0.968503937007874,
          "duration": 0.3687499999999986
        },
        {
          "name": "C4",
          "midi": 60,
          "time": 32.25,
          "velocity": 0.968503937007874,
          "duration": 0.3687499999999986
        },
        {
          "name": "B5",
          "midi": 83,
          "time": 32.625,
          "velocity": 0.968503937007874,
          "duration": 0.3687499999999986
        },
        {
          "name": "B4",
          "midi": 71,
          "time": 32.625,
          "velocity": 0.968503937007874,
          "duration": 0.3687499999999986
        },
        {
          "name": "B3",
          "midi": 59,
          "time": 32.625,
          "velocity": 0.968503937007874,
          "duration": 0.3687499999999986
        },
        {
          "name": "A#5",
          "midi": 82,
          "time": 33,
          "velocity": 0.968503937007874,
          "duration": 1.4937499999999986
        },
        {
          "name": "A#4",
          "midi": 70,
          "time": 33,
          "velocity": 0.968503937007874,
          "duration": 1.4937499999999986
        },
        {
          "name": "A#3",
          "midi": 58,
          "time": 33,
          "velocity": 0.968503937007874,
          "duration": 1.4937499999999986
        },
        {
          "name": "D6",
          "midi": 86,
          "time": 34.5,
          "velocity": 0.9763779527559056,
          "duration": 0.7437499999999986
        },
        {
          "name": "D5",
          "midi": 74,
          "time": 34.5,
          "velocity": 0.9763779527559056,
          "duration": 0.7437499999999986
        },
        {
          "name": "D4",
          "midi": 62,
          "time": 34.5,
          "velocity": 0.9763779527559056,
          "duration": 0.7437499999999986
        },
        {
          "name": "C6",
          "midi": 84,
          "time": 35.25,
          "velocity": 0.9763779527559056,
          "duration": 0.3687499999999986
        },
        {
          "name": "C5",
          "midi": 72,
          "time": 35.25,
          "velocity": 0.9763779527559056,
          "duration": 0.3687499999999986
        },
        {
          "name": "C4",
          "midi": 60,
          "time": 35.25,
          "velocity": 0.9763779527559056,
          "duration": 0.3687499999999986
        },
        {
          "name": "G#5",
          "midi": 80,
          "time": 35.625,
          "velocity": 0.9763779527559056,
          "duration": 0.3687499999999986
        },
        {
          "name": "G#4",
          "midi": 68,
          "time": 35.625,
          "velocity": 0.9763779527559056,
          "duration": 0.3687499999999986
        },
        {
          "name": "G#3",
          "midi": 56,
          "time": 35.625,
          "velocity": 0.9763779527559056,
          "duration": 0.3687499999999986
        },
        {
          "name": "G5",
          "midi": 79,
          "time": 36,
          "velocity": 0.952755905511811,
          "duration": 1.8687499999999986
        },
        {
          "name": "G4",
          "midi": 67,
          "time": 36,
          "velocity": 0.952755905511811,
          "duration": 1.8687499999999986
        },
        {
          "name": "G3",
          "midi": 55,
          "time": 36,
          "velocity": 0.952755905511811,
          "duration": 1.8687499999999986
        },
        {
          "name": "G5",
          "midi": 79,
          "time": 37.875,
          "velocity": 0.968503937007874,
          "duration": 0.3687499999999986
        },
        {
          "name": "G4",
          "midi": 67,
          "time": 37.875,
          "velocity": 0.968503937007874,
          "duration": 0.3687499999999986
        },
        {
          "name": "G3",
          "midi": 55,
          "time": 37.875,
          "velocity": 0.968503937007874,
          "duration": 0.3687499999999986
        },
        {
          "name": "A#5",
          "midi": 82,
          "time": 38.25,
          "velocity": 0.968503937007874,
          "duration": 0.3687499999999986
        },
        {
          "name": "A#4",
          "midi": 70,
          "time": 38.25,
          "velocity": 0.968503937007874,
          "duration": 0.3687499999999986
        },
        {
          "name": "A#3",
          "midi": 58,
          "time": 38.25,
          "velocity": 0.968503937007874,
          "duration": 0.3687499999999986
        },
        {
          "name": "G5",
          "midi": 79,
          "time": 38.625,
          "velocity": 0.968503937007874,
          "duration": 0.3687499999999986
        },
        {
          "name": "G4",
          "midi": 67,
          "time": 38.625,
          "velocity": 0.968503937007874,
          "duration": 0.3687499999999986
        },
        {
          "name": "G3",
          "midi": 55,
          "time": 38.625,
          "velocity": 0.968503937007874,
          "duration": 0.3687499999999986
        },
        {
          "name": "F5",
          "midi": 77,
          "time": 39,
          "velocity": 0.9763779527559056,
          "duration": 1.8687499999999986
        },
        {
          "name": "F4",
          "midi": 65,
          "time": 39,
          "velocity": 0.9763779527559056,
          "duration": 1.8687499999999986
        },
        {
          "name": "F3",
          "midi": 53,
          "time": 39,
          "velocity": 0.9763779527559056,
          "duration": 1.8687499999999986
        },
        {
          "name": "F5",
          "midi": 77,
          "time": 40.875,
          "velocity": 0.9606299212598425,
          "duration": 0.3687499999999986
        },
        {
          "name": "F4",
          "midi": 65,
          "time": 40.875,
          "velocity": 0.9606299212598425,
          "duration": 0.3687499999999986
        },
        {
          "name": "F3",
          "midi": 53,
          "time": 40.875,
          "velocity": 0.9606299212598425,
          "duration": 0.3687499999999986
        },
        {
          "name": "G#5",
          "midi": 80,
          "time": 41.25,
          "velocity": 0.984251968503937,
          "duration": 0.3687499999999986
        },
        {
          "name": "G#4",
          "midi": 68,
          "time": 41.25,
          "velocity": 0.984251968503937,
          "duration": 0.3687499999999986
        },
        {
          "name": "G#3",
          "midi": 56,
          "time": 41.25,
          "velocity": 0.984251968503937,
          "duration": 0.3687499999999986
        },
        {
          "name": "F#5",
          "midi": 78,
          "time": 41.625,
          "velocity": 1,
          "duration": 0.3687499999999986
        },
        {
          "name": "F#4",
          "midi": 66,
          "time": 41.625,
          "velocity": 1,
          "duration": 0.3687499999999986
        },
        {
          "name": "F#3",
          "midi": 54,
          "time": 41.625,
          "velocity": 1,
          "duration": 0.3687499999999986
        },
        {
          "name": "G5",
          "midi": 79,
          "time": 42,
          "velocity": 1,
          "duration": 1.8687499999999986
        },
        {
          "name": "G4",
          "midi": 67,
          "time": 42,
          "velocity": 1,
          "duration": 1.8687499999999986
        },
        {
          "name": "G3",
          "midi": 55,
          "time": 42,
          "velocity": 1,
          "duration": 1.8687499999999986
        },
        {
          "name": "G5",
          "midi": 79,
          "time": 43.875,
          "velocity": 1,
          "duration": 0.3687499999999986
        },
        {
          "name": "G4",
          "midi": 67,
          "time": 43.875,
          "velocity": 1,
          "duration": 0.3687499999999986
        },
        {
          "name": "G3",
          "midi": 55,
          "time": 43.875,
          "velocity": 1,
          "duration": 0.3687499999999986
        },
        {
          "name": "C6",
          "midi": 84,
          "time": 44.25,
          "velocity": 1,
          "duration": 0.7437499999999986
        },
        {
          "name": "C5",
          "midi": 72,
          "time": 44.25,
          "velocity": 1,
          "duration": 0.7437499999999986
        },
        {
          "name": "C4",
          "midi": 60,
          "time": 44.25,
          "velocity": 1,
          "duration": 0.7437499999999986
        },
        {
          "name": "D#6",
          "midi": 87,
          "time": 44.625,
          "velocity": 1,
          "duration": 0.3687499999999986
        },
        {
          "name": "D#5",
          "midi": 75,
          "time": 44.625,
          "velocity": 1,
          "duration": 0.3687499999999986
        },
        {
          "name": "D#4",
          "midi": 63,
          "time": 44.625,
          "velocity": 1,
          "duration": 0.3687499999999986
        },
        {
          "name": "D6",
          "midi": 86,
          "time": 45,
          "velocity": 0.9921259842519685,
          "duration": 0.3687499999999986
        },
        {
          "name": "D5",
          "midi": 74,
          "time": 45,
          "velocity": 0.9921259842519685,
          "duration": 0.3687499999999986
        },
        {
          "name": "D4",
          "midi": 62,
          "time": 45,
          "velocity": 0.9921259842519685,
          "duration": 0.3687499999999986
        },
        {
          "name": "C6",
          "midi": 84,
          "time": 45.375,
          "velocity": 1,
          "duration": 0.3687499999999986
        },
        {
          "name": "C5",
          "midi": 72,
          "time": 45.375,
          "velocity": 1,
          "duration": 0.3687499999999986
        },
        {
          "name": "C4",
          "midi": 60,
          "time": 45.375,
          "velocity": 1,
          "duration": 0.3687499999999986
        },
        {
          "name": "D#6",
          "midi": 87,
          "time": 45.75,
          "velocity": 0.9921259842519685,
          "duration": 0.3687499999999986
        },
        {
          "name": "D#5",
          "midi": 75,
          "time": 45.75,
          "velocity": 0.9921259842519685,
          "duration": 0.3687499999999986
        },
        {
          "name": "D#4",
          "midi": 63,
          "time": 45.75,
          "velocity": 0.9921259842519685,
          "duration": 0.3687499999999986
        },
        {
          "name": "C6",
          "midi": 84,
          "time": 46.125,
          "velocity": 0.9921259842519685,
          "duration": 0.3687499999999986
        },
        {
          "name": "C5",
          "midi": 72,
          "time": 46.125,
          "velocity": 0.9921259842519685,
          "duration": 0.3687499999999986
        },
        {
          "name": "C4",
          "midi": 60,
          "time": 46.125,
          "velocity": 0.9921259842519685,
          "duration": 0.3687499999999986
        },
        {
          "name": "D6",
          "midi": 86,
          "time": 46.5,
          "velocity": 0.9921259842519685,
          "duration": 0.3687499999999986
        },
        {
          "name": "D5",
          "midi": 74,
          "time": 46.5,
          "velocity": 0.9921259842519685,
          "duration": 0.3687499999999986
        },
        {
          "name": "D4",
          "midi": 62,
          "time": 46.5,
          "velocity": 0.9921259842519685,
          "duration": 0.3687499999999986
        },
        {
          "name": "C6",
          "midi": 84,
          "time": 46.875,
          "velocity": 0.9921259842519685,
          "duration": 0.5
        },
        {
          "name": "C5",
          "midi": 72,
          "time": 46.875,
          "velocity": 0.9921259842519685,
          "duration": 0.5
        },
        {
          "name": "C4",
          "midi": 60,
          "time": 46.875,
          "velocity": 0.9921259842519685,
          "duration": 0.5
        },
        {
          "name": "G#5",
          "midi": 80,
          "time": 47.5,
          "velocity": 0.9921259842519685,
          "duration": 0.25
        },
        {
          "name": "G#4",
          "midi": 68,
          "time": 47.5,
          "velocity": 0.9921259842519685,
          "duration": 0.25
        },
        {
          "name": "G#3",
          "midi": 56,
          "time": 47.5,
          "velocity": 0.9921259842519685,
          "duration": 0.25
        },
        {
          "name": "A#5",
          "midi": 82,
          "time": 47.75,
          "velocity": 1,
          "duration": 0.25
        },
        {
          "name": "A#4",
          "midi": 70,
          "time": 47.75,
          "velocity": 1,
          "duration": 0.25
        },
        {
          "name": "A#3",
          "midi": 58,
          "time": 47.75,
          "velocity": 1,
          "duration": 0.25
        },
        {
          "name": "G5",
          "midi": 79,
          "time": 48,
          "velocity": 0.984251968503937,
          "duration": 1.8687499999999986
        },
        {
          "name": "G4",
          "midi": 67,
          "time": 48,
          "velocity": 0.984251968503937,
          "duration": 1.8687499999999986
        },
        {
          "name": "G3",
          "midi": 55,
          "time": 48,
          "velocity": 0.984251968503937,
          "duration": 1.8687499999999986
        },
        {
          "name": "G5",
          "midi": 79,
          "time": 49.875,
          "velocity": 0.9921259842519685,
          "duration": 0.3687499999999986
        },
        {
          "name": "G4",
          "midi": 67,
          "time": 49.875,
          "velocity": 0.9921259842519685,
          "duration": 0.3687499999999986
        },
        {
          "name": "G3",
          "midi": 55,
          "time": 49.875,
          "velocity": 0.9921259842519685,
          "duration": 0.3687499999999986
        },
        {
          "name": "C6",
          "midi": 84,
          "time": 50.25,
          "velocity": 1,
          "duration": 0.7437499999999986
        },
        {
          "name": "C5",
          "midi": 72,
          "time": 50.25,
          "velocity": 1,
          "duration": 0.7437499999999986
        },
        {
          "name": "C4",
          "midi": 60,
          "time": 50.25,
          "velocity": 1,
          "duration": 0.7437499999999986
        },
        {
          "name": "D#6",
          "midi": 87,
          "time": 50.625,
          "velocity": 1,
          "duration": 0.3687499999999986
        },
        {
          "name": "D#5",
          "midi": 75,
          "time": 50.625,
          "velocity": 1,
          "duration": 0.3687499999999986
        },
        {
          "name": "D#4",
          "midi": 63,
          "time": 50.625,
          "velocity": 1,
          "duration": 0.3687499999999986
        },
        {
          "name": "D6",
          "midi": 86,
          "time": 51,
          "velocity": 0.968503937007874,
          "duration": 0.3687499999999986
        },
        {
          "name": "D5",
          "midi": 74,
          "time": 51,
          "velocity": 0.968503937007874,
          "duration": 0.3687499999999986
        },
        {
          "name": "D4",
          "midi": 62,
          "time": 51,
          "velocity": 0.968503937007874,
          "duration": 0.3687499999999986
        },
        {
          "name": "C6",
          "midi": 84,
          "time": 51.375,
          "velocity": 0.968503937007874,
          "duration": 0.3687499999999986
        },
        {
          "name": "C5",
          "midi": 72,
          "time": 51.375,
          "velocity": 0.968503937007874,
          "duration": 0.3687499999999986
        },
        {
          "name": "C4",
          "midi": 60,
          "time": 51.375,
          "velocity": 0.968503937007874,
          "duration": 0.3687499999999986
        },
        {
          "name": "D#6",
          "midi": 87,
          "time": 51.75,
          "velocity": 0.952755905511811,
          "duration": 0.3687499999999986
        },
        {
          "name": "D#5",
          "midi": 75,
          "time": 51.75,
          "velocity": 0.952755905511811,
          "duration": 0.3687499999999986
        },
        {
          "name": "D#4",
          "midi": 63,
          "time": 51.75,
          "velocity": 0.952755905511811,
          "duration": 0.3687499999999986
        },
        {
          "name": "C6",
          "midi": 84,
          "time": 52.125,
          "velocity": 0.968503937007874,
          "duration": 0.3687499999999986
        },
        {
          "name": "C5",
          "midi": 72,
          "time": 52.125,
          "velocity": 0.968503937007874,
          "duration": 0.3687499999999986
        },
        {
          "name": "C4",
          "midi": 60,
          "time": 52.125,
          "velocity": 0.968503937007874,
          "duration": 0.3687499999999986
        },
        {
          "name": "D6",
          "midi": 86,
          "time": 52.5,
          "velocity": 0.952755905511811,
          "duration": 0.3687499999999986
        },
        {
          "name": "D5",
          "midi": 74,
          "time": 52.5,
          "velocity": 0.952755905511811,
          "duration": 0.3687499999999986
        },
        {
          "name": "D4",
          "midi": 62,
          "time": 52.5,
          "velocity": 0.952755905511811,
          "duration": 0.3687499999999986
        },
        {
          "name": "C6",
          "midi": 84,
          "time": 52.875,
          "velocity": 0.984251968503937,
          "duration": 0.5
        },
        {
          "name": "C5",
          "midi": 72,
          "time": 52.875,
          "velocity": 0.984251968503937,
          "duration": 0.5
        },
        {
          "name": "C4",
          "midi": 60,
          "time": 52.875,
          "velocity": 0.984251968503937,
          "duration": 0.5
        },
        {
          "name": "G5",
          "midi": 79,
          "time": 53.5,
          "velocity": 0.9763779527559056,
          "duration": 0.25
        },
        {
          "name": "G4",
          "midi": 67,
          "time": 53.5,
          "velocity": 0.9763779527559056,
          "duration": 0.25
        },
        {
          "name": "G3",
          "midi": 55,
          "time": 53.5,
          "velocity": 0.9763779527559056,
          "duration": 0.25
        },
        {
          "name": "F#5",
          "midi": 78,
          "time": 53.75,
          "velocity": 0.984251968503937,
          "duration": 0.25
        },
        {
          "name": "F#4",
          "midi": 66,
          "time": 53.75,
          "velocity": 0.984251968503937,
          "duration": 0.25
        },
        {
          "name": "F#3",
          "midi": 54,
          "time": 53.75,
          "velocity": 0.984251968503937,
          "duration": 0.25
        },
        {
          "name": "F5",
          "midi": 77,
          "time": 54,
          "velocity": 0.9763779527559056,
          "duration": 1.4937499999999986
        },
        {
          "name": "F4",
          "midi": 65,
          "time": 54,
          "velocity": 0.9763779527559056,
          "duration": 1.4937499999999986
        },
        {
          "name": "F3",
          "midi": 53,
          "time": 54,
          "velocity": 0.9763779527559056,
          "duration": 1.4937499999999986
        },
        {
          "name": "F5",
          "midi": 77,
          "time": 55.875,
          "velocity": 0.9763779527559056,
          "duration": 0.3687499999999986
        },
        {
          "name": "F4",
          "midi": 65,
          "time": 55.875,
          "velocity": 0.9763779527559056,
          "duration": 0.3687499999999986
        },
        {
          "name": "F3",
          "midi": 53,
          "time": 55.875,
          "velocity": 0.9763779527559056,
          "duration": 0.3687499999999986
        },
        {
          "name": "G#5",
          "midi": 80,
          "time": 56.25,
          "velocity": 0.968503937007874,
          "duration": 0.3687499999999986
        },
        {
          "name": "G#4",
          "midi": 68,
          "time": 56.25,
          "velocity": 0.968503937007874,
          "duration": 0.3687499999999986
        },
        {
          "name": "G#3",
          "midi": 56,
          "time": 56.25,
          "velocity": 0.968503937007874,
          "duration": 0.3687499999999986
        },
        {
          "name": "B5",
          "midi": 83,
          "time": 56.625,
          "velocity": 0.968503937007874,
          "duration": 0.3687499999999986
        },
        {
          "name": "B4",
          "midi": 71,
          "time": 56.625,
          "velocity": 0.968503937007874,
          "duration": 0.3687499999999986
        },
        {
          "name": "B3",
          "midi": 59,
          "time": 56.625,
          "velocity": 0.968503937007874,
          "duration": 0.3687499999999986
        },
        {
          "name": "D6",
          "midi": 86,
          "time": 57,
          "velocity": 0.9763779527559056,
          "duration": 1.8687499999999986
        },
        {
          "name": "D5",
          "midi": 74,
          "time": 57,
          "velocity": 0.9763779527559056,
          "duration": 1.8687499999999986
        },
        {
          "name": "D4",
          "midi": 62,
          "time": 57,
          "velocity": 0.9763779527559056,
          "duration": 1.8687499999999986
        },
        {
          "name": "F5",
          "midi": 77,
          "time": 58.875,
          "velocity": 1,
          "duration": 0.3687499999999986
        },
        {
          "name": "F4",
          "midi": 65,
          "time": 58.875,
          "velocity": 1,
          "duration": 0.3687499999999986
        },
        {
          "name": "F3",
          "midi": 53,
          "time": 58.875,
          "velocity": 1,
          "duration": 0.3687499999999986
        },
        {
          "name": "G#5",
          "midi": 80,
          "time": 59.25,
          "velocity": 1,
          "duration": 0.3687499999999986
        },
        {
          "name": "G#4",
          "midi": 68,
          "time": 59.25,
          "velocity": 1,
          "duration": 0.3687499999999986
        },
        {
          "name": "G#3",
          "midi": 56,
          "time": 59.25,
          "velocity": 1,
          "duration": 0.3687499999999986
        },
        {
          "name": "B5",
          "midi": 83,
          "time": 59.625,
          "velocity": 1,
          "duration": 0.3687499999999986
        },
        {
          "name": "B4",
          "midi": 71,
          "time": 59.625,
          "velocity": 1,
          "duration": 0.3687499999999986
        },
        {
          "name": "B3",
          "midi": 59,
          "time": 59.625,
          "velocity": 1,
          "duration": 0.3687499999999986
        },
        {
          "name": "C6",
          "midi": 84,
          "time": 60,
          "velocity": 0.984251968503937,
          "duration": 1.8687499999999986
        },
        {
          "name": "C5",
          "midi": 72,
          "time": 60,
          "velocity": 0.984251968503937,
          "duration": 1.8687499999999986
        },
        {
          "name": "C4",
          "midi": 60,
          "time": 60,
          "velocity": 0.984251968503937,
          "duration": 1.8687499999999986
        },
        {
          "name": "C5",
          "midi": 72,
          "time": 61.875,
          "velocity": 0.9921259842519685,
          "duration": 0.3687499999999986
        },
        {
          "name": "C4",
          "midi": 60,
          "time": 61.875,
          "velocity": 0.9921259842519685,
          "duration": 0.3687499999999986
        },
        {
          "name": "C3",
          "midi": 48,
          "time": 61.875,
          "velocity": 0.9921259842519685,
          "duration": 0.3687499999999986
        },
        {
          "name": "D#5",
          "midi": 75,
          "time": 62.25,
          "velocity": 0.968503937007874,
          "duration": 0.3687499999999986
        },
        {
          "name": "D#4",
          "midi": 63,
          "time": 62.25,
          "velocity": 0.968503937007874,
          "duration": 0.3687499999999986
        },
        {
          "name": "D#3",
          "midi": 51,
          "time": 62.25,
          "velocity": 0.968503937007874,
          "duration": 0.3687499999999986
        },
        {
          "name": "A#5",
          "midi": 82,
          "time": 62.625,
          "velocity": 0.968503937007874,
          "duration": 0.3687499999999986
        },
        {
          "name": "A#4",
          "midi": 70,
          "time": 62.625,
          "velocity": 0.968503937007874,
          "duration": 0.3687499999999986
        },
        {
          "name": "A#3",
          "midi": 58,
          "time": 62.625,
          "velocity": 0.968503937007874,
          "duration": 0.3687499999999986
        },
        {
          "name": "G#5",
          "midi": 80,
          "time": 63,
          "velocity": 0.968503937007874,
          "duration": 0.3687499999999986
        },
        {
          "name": "G#4",
          "midi": 68,
          "time": 63,
          "velocity": 0.968503937007874,
          "duration": 0.3687499999999986
        },
        {
          "name": "G#3",
          "midi": 56,
          "time": 63,
          "velocity": 0.968503937007874,
          "duration": 0.3687499999999986
        },
        {
          "name": "G5",
          "midi": 79,
          "time": 63.375,
          "velocity": 1,
          "duration": 0.3687499999999986
        },
        {
          "name": "G4",
          "midi": 67,
          "time": 63.375,
          "velocity": 1,
          "duration": 0.3687499999999986
        },
        {
          "name": "G3",
          "midi": 55,
          "time": 63.375,
          "velocity": 1,
          "duration": 0.3687499999999986
        },
        {
          "name": "A#5",
          "midi": 82,
          "time": 63.75,
          "velocity": 0.9606299212598425,
          "duration": 0.3687500000000057
        },
        {
          "name": "A#4",
          "midi": 70,
          "time": 63.75,
          "velocity": 0.9606299212598425,
          "duration": 0.3687500000000057
        },
        {
          "name": "A#3",
          "midi": 58,
          "time": 63.75,
          "velocity": 0.9606299212598425,
          "duration": 0.3687500000000057
        },
        {
          "name": "G#5",
          "midi": 80,
          "time": 64.125,
          "velocity": 1,
          "duration": 0.3687500000000057
        },
        {
          "name": "G#4",
          "midi": 68,
          "time": 64.125,
          "velocity": 1,
          "duration": 0.3687500000000057
        },
        {
          "name": "G#3",
          "midi": 56,
          "time": 64.125,
          "velocity": 1,
          "duration": 0.3687500000000057
        },
        {
          "name": "G#5",
          "midi": 80,
          "time": 64.5,
          "velocity": 0.968503937007874,
          "duration": 0.3687500000000057
        },
        {
          "name": "G#4",
          "midi": 68,
          "time": 64.5,
          "velocity": 0.968503937007874,
          "duration": 0.3687500000000057
        },
        {
          "name": "G#3",
          "midi": 56,
          "time": 64.5,
          "velocity": 0.968503937007874,
          "duration": 0.3687500000000057
        },
        {
          "name": "G5",
          "midi": 79,
          "time": 64.875,
          "velocity": 0.9921259842519685,
          "duration": 0.5
        },
        {
          "name": "G4",
          "midi": 67,
          "time": 64.875,
          "velocity": 0.9921259842519685,
          "duration": 0.5
        },
        {
          "name": "G3",
          "midi": 55,
          "time": 64.875,
          "velocity": 0.9921259842519685,
          "duration": 0.5
        },
        {
          "name": "G5",
          "midi": 79,
          "time": 65.5,
          "velocity": 0.984251968503937,
          "duration": 0.25
        },
        {
          "name": "G4",
          "midi": 67,
          "time": 65.5,
          "velocity": 0.984251968503937,
          "duration": 0.25
        },
        {
          "name": "G3",
          "midi": 55,
          "time": 65.5,
          "velocity": 0.984251968503937,
          "duration": 0.25
        },
        {
          "name": "B5",
          "midi": 83,
          "time": 65.75,
          "velocity": 0.984251968503937,
          "duration": 0.25
        },
        {
          "name": "B4",
          "midi": 71,
          "time": 65.75,
          "velocity": 0.984251968503937,
          "duration": 0.25
        },
        {
          "name": "B3",
          "midi": 59,
          "time": 65.75,
          "velocity": 0.984251968503937,
          "duration": 0.25
        },
        {
          "name": "C6",
          "midi": 84,
          "time": 66,
          "velocity": 0.984251968503937,
          "duration": 1.8687500000000057
        },
        {
          "name": "C5",
          "midi": 72,
          "time": 66,
          "velocity": 0.984251968503937,
          "duration": 1.8687500000000057
        },
        {
          "name": "C4",
          "midi": 60,
          "time": 66,
          "velocity": 0.984251968503937,
          "duration": 1.8687500000000057
        },
        {
          "name": "C6",
          "midi": 84,
          "time": 91.875,
          "velocity": 0.9606299212598425,
          "duration": 0.3687500000000057
        },
        {
          "name": "C5",
          "midi": 72,
          "time": 91.875,
          "velocity": 0.9606299212598425,
          "duration": 0.3687500000000057
        },
        {
          "name": "C4",
          "midi": 60,
          "time": 91.875,
          "velocity": 0.9606299212598425,
          "duration": 0.3687500000000057
        },
        {
          "name": "C6",
          "midi": 84,
          "time": 92.25,
          "velocity": 0.9921259842519685,
          "duration": 0.3687500000000057
        },
        {
          "name": "C5",
          "midi": 72,
          "time": 92.25,
          "velocity": 0.9921259842519685,
          "duration": 0.3687500000000057
        },
        {
          "name": "C4",
          "midi": 60,
          "time": 92.25,
          "velocity": 0.9921259842519685,
          "duration": 0.3687500000000057
        },
        {
          "name": "B5",
          "midi": 83,
          "time": 92.625,
          "velocity": 0.9921259842519685,
          "duration": 0.3687500000000057
        },
        {
          "name": "B4",
          "midi": 71,
          "time": 92.625,
          "velocity": 0.9921259842519685,
          "duration": 0.3687500000000057
        },
        {
          "name": "B3",
          "midi": 59,
          "time": 92.625,
          "velocity": 0.9921259842519685,
          "duration": 0.3687500000000057
        },
        {
          "name": "A#5",
          "midi": 82,
          "time": 93,
          "velocity": 0.9921259842519685,
          "duration": 1.4937500000000057
        },
        {
          "name": "A#4",
          "midi": 70,
          "time": 93,
          "velocity": 0.9921259842519685,
          "duration": 1.4937500000000057
        },
        {
          "name": "A#3",
          "midi": 58,
          "time": 93,
          "velocity": 0.9921259842519685,
          "duration": 1.4937500000000057
        },
        {
          "name": "D6",
          "midi": 86,
          "time": 94.5,
          "velocity": 0.968503937007874,
          "duration": 0.7437500000000057
        },
        {
          "name": "D5",
          "midi": 74,
          "time": 94.5,
          "velocity": 0.968503937007874,
          "duration": 0.7437500000000057
        },
        {
          "name": "D4",
          "midi": 62,
          "time": 94.5,
          "velocity": 0.968503937007874,
          "duration": 0.7437500000000057
        },
        {
          "name": "C6",
          "midi": 84,
          "time": 95.25,
          "velocity": 0.984251968503937,
          "duration": 0.3687500000000057
        },
        {
          "name": "C5",
          "midi": 72,
          "time": 95.25,
          "velocity": 0.984251968503937,
          "duration": 0.3687500000000057
        },
        {
          "name": "C4",
          "midi": 60,
          "time": 95.25,
          "velocity": 0.984251968503937,
          "duration": 0.3687500000000057
        },
        {
          "name": "G#5",
          "midi": 80,
          "time": 95.625,
          "velocity": 0.9921259842519685,
          "duration": 0.3687500000000057
        },
        {
          "name": "G#4",
          "midi": 68,
          "time": 95.625,
          "velocity": 0.9921259842519685,
          "duration": 0.3687500000000057
        },
        {
          "name": "G#3",
          "midi": 56,
          "time": 95.625,
          "velocity": 0.9921259842519685,
          "duration": 0.3687500000000057
        },
        {
          "name": "G5",
          "midi": 79,
          "time": 96,
          "velocity": 0.9921259842519685,
          "duration": 1.8687500000000057
        },
        {
          "name": "G4",
          "midi": 67,
          "time": 96,
          "velocity": 0.9921259842519685,
          "duration": 1.8687500000000057
        },
        {
          "name": "G3",
          "midi": 55,
          "time": 96,
          "velocity": 0.9921259842519685,
          "duration": 1.8687500000000057
        },
        {
          "name": "G5",
          "midi": 79,
          "time": 97.875,
          "velocity": 0.9763779527559056,
          "duration": 0.3687500000000057
        },
        {
          "name": "G4",
          "midi": 67,
          "time": 97.875,
          "velocity": 0.9763779527559056,
          "duration": 0.3687500000000057
        },
        {
          "name": "G3",
          "midi": 55,
          "time": 97.875,
          "velocity": 0.9763779527559056,
          "duration": 0.3687500000000057
        },
        {
          "name": "A#5",
          "midi": 82,
          "time": 98.25,
          "velocity": 0.9921259842519685,
          "duration": 0.3687500000000057
        },
        {
          "name": "A#4",
          "midi": 70,
          "time": 98.25,
          "velocity": 0.9921259842519685,
          "duration": 0.3687500000000057
        },
        {
          "name": "A#3",
          "midi": 58,
          "time": 98.25,
          "velocity": 0.9921259842519685,
          "duration": 0.3687500000000057
        },
        {
          "name": "G5",
          "midi": 79,
          "time": 98.625,
          "velocity": 0.9921259842519685,
          "duration": 0.3687500000000057
        },
        {
          "name": "G4",
          "midi": 67,
          "time": 98.625,
          "velocity": 0.9921259842519685,
          "duration": 0.3687500000000057
        },
        {
          "name": "G3",
          "midi": 55,
          "time": 98.625,
          "velocity": 0.9921259842519685,
          "duration": 0.3687500000000057
        },
        {
          "name": "F5",
          "midi": 77,
          "time": 99,
          "velocity": 0.9763779527559056,
          "duration": 1.8687500000000057
        },
        {
          "name": "F4",
          "midi": 65,
          "time": 99,
          "velocity": 0.9763779527559056,
          "duration": 1.8687500000000057
        },
        {
          "name": "F3",
          "midi": 53,
          "time": 99,
          "velocity": 0.9763779527559056,
          "duration": 1.8687500000000057
        },
        {
          "name": "F5",
          "midi": 77,
          "time": 100.875,
          "velocity": 0.9921259842519685,
          "duration": 0.3687500000000057
        },
        {
          "name": "F4",
          "midi": 65,
          "time": 100.875,
          "velocity": 0.9921259842519685,
          "duration": 0.3687500000000057
        },
        {
          "name": "F3",
          "midi": 53,
          "time": 100.875,
          "velocity": 0.9921259842519685,
          "duration": 0.3687500000000057
        },
        {
          "name": "G#5",
          "midi": 80,
          "time": 101.25,
          "velocity": 1,
          "duration": 0.3687500000000057
        },
        {
          "name": "G#4",
          "midi": 68,
          "time": 101.25,
          "velocity": 1,
          "duration": 0.3687500000000057
        },
        {
          "name": "G#3",
          "midi": 56,
          "time": 101.25,
          "velocity": 1,
          "duration": 0.3687500000000057
        },
        {
          "name": "F#5",
          "midi": 78,
          "time": 101.625,
          "velocity": 1,
          "duration": 0.3687500000000057
        },
        {
          "name": "F#4",
          "midi": 66,
          "time": 101.625,
          "velocity": 1,
          "duration": 0.3687500000000057
        },
        {
          "name": "F#3",
          "midi": 54,
          "time": 101.625,
          "velocity": 1,
          "duration": 0.3687500000000057
        },
        {
          "name": "G5",
          "midi": 79,
          "time": 102,
          "velocity": 0.984251968503937,
          "duration": 1.8687500000000057
        },
        {
          "name": "G4",
          "midi": 67,
          "time": 102,
          "velocity": 0.984251968503937,
          "duration": 1.8687500000000057
        },
        {
          "name": "G3",
          "midi": 55,
          "time": 102,
          "velocity": 0.984251968503937,
          "duration": 1.8687500000000057
        },
        {
          "name": "G5",
          "midi": 79,
          "time": 103.875,
          "velocity": 0.984251968503937,
          "duration": 0.3687500000000057
        },
        {
          "name": "G4",
          "midi": 67,
          "time": 103.875,
          "velocity": 0.984251968503937,
          "duration": 0.3687500000000057
        },
        {
          "name": "G3",
          "midi": 55,
          "time": 103.875,
          "velocity": 0.984251968503937,
          "duration": 0.3687500000000057
        },
        {
          "name": "C6",
          "midi": 84,
          "time": 104.25,
          "velocity": 0.9763779527559056,
          "duration": 0.7437500000000057
        },
        {
          "name": "C5",
          "midi": 72,
          "time": 104.25,
          "velocity": 0.9763779527559056,
          "duration": 0.7437500000000057
        },
        {
          "name": "C4",
          "midi": 60,
          "time": 104.25,
          "velocity": 0.9763779527559056,
          "duration": 0.7437500000000057
        },
        {
          "name": "D#6",
          "midi": 87,
          "time": 104.625,
          "velocity": 0.9606299212598425,
          "duration": 0.3687500000000057
        },
        {
          "name": "D#5",
          "midi": 75,
          "time": 104.625,
          "velocity": 0.9606299212598425,
          "duration": 0.3687500000000057
        },
        {
          "name": "D#4",
          "midi": 63,
          "time": 104.625,
          "velocity": 0.9606299212598425,
          "duration": 0.3687500000000057
        },
        {
          "name": "D6",
          "midi": 86,
          "time": 105,
          "velocity": 0.9921259842519685,
          "duration": 0.3687500000000057
        },
        {
          "name": "D5",
          "midi": 74,
          "time": 105,
          "velocity": 0.9921259842519685,
          "duration": 0.3687500000000057
        },
        {
          "name": "D4",
          "midi": 62,
          "time": 105,
          "velocity": 0.9921259842519685,
          "duration": 0.3687500000000057
        },
        {
          "name": "C6",
          "midi": 84,
          "time": 105.375,
          "velocity": 1,
          "duration": 0.3687500000000057
        },
        {
          "name": "C5",
          "midi": 72,
          "time": 105.375,
          "velocity": 1,
          "duration": 0.3687500000000057
        },
        {
          "name": "C4",
          "midi": 60,
          "time": 105.375,
          "velocity": 1,
          "duration": 0.3687500000000057
        },
        {
          "name": "D#6",
          "midi": 87,
          "time": 105.75,
          "velocity": 0.9763779527559056,
          "duration": 0.3687500000000057
        },
        {
          "name": "D#5",
          "midi": 75,
          "time": 105.75,
          "velocity": 0.9763779527559056,
          "duration": 0.3687500000000057
        },
        {
          "name": "D#4",
          "midi": 63,
          "time": 105.75,
          "velocity": 0.9763779527559056,
          "duration": 0.3687500000000057
        },
        {
          "name": "C6",
          "midi": 84,
          "time": 106.125,
          "velocity": 0.9763779527559056,
          "duration": 0.3687500000000057
        },
        {
          "name": "C5",
          "midi": 72,
          "time": 106.125,
          "velocity": 0.9763779527559056,
          "duration": 0.3687500000000057
        },
        {
          "name": "C4",
          "midi": 60,
          "time": 106.125,
          "velocity": 0.9763779527559056,
          "duration": 0.3687500000000057
        },
        {
          "name": "D6",
          "midi": 86,
          "time": 106.5,
          "velocity": 0.9763779527559056,
          "duration": 0.3687500000000057
        },
        {
          "name": "D5",
          "midi": 74,
          "time": 106.5,
          "velocity": 0.9763779527559056,
          "duration": 0.3687500000000057
        },
        {
          "name": "D4",
          "midi": 62,
          "time": 106.5,
          "velocity": 0.9763779527559056,
          "duration": 0.3687500000000057
        },
        {
          "name": "C6",
          "midi": 84,
          "time": 106.875,
          "velocity": 0.984251968503937,
          "duration": 0.5
        },
        {
          "name": "C5",
          "midi": 72,
          "time": 106.875,
          "velocity": 0.984251968503937,
          "duration": 0.5
        },
        {
          "name": "C4",
          "midi": 60,
          "time": 106.875,
          "velocity": 0.984251968503937,
          "duration": 0.5
        },
        {
          "name": "G#5",
          "midi": 80,
          "time": 107.5,
          "velocity": 0.968503937007874,
          "duration": 0.25
        },
        {
          "name": "G#4",
          "midi": 68,
          "time": 107.5,
          "velocity": 0.968503937007874,
          "duration": 0.25
        },
        {
          "name": "G#3",
          "midi": 56,
          "time": 107.5,
          "velocity": 0.968503937007874,
          "duration": 0.25
        },
        {
          "name": "A#5",
          "midi": 82,
          "time": 107.75,
          "velocity": 0.968503937007874,
          "duration": 0.25
        },
        {
          "name": "A#4",
          "midi": 70,
          "time": 107.75,
          "velocity": 0.968503937007874,
          "duration": 0.25
        },
        {
          "name": "A#3",
          "midi": 58,
          "time": 107.75,
          "velocity": 0.968503937007874,
          "duration": 0.25
        },
        {
          "name": "G5",
          "midi": 79,
          "time": 108,
          "velocity": 0.968503937007874,
          "duration": 1.8687500000000057
        },
        {
          "name": "G4",
          "midi": 67,
          "time": 108,
          "velocity": 0.968503937007874,
          "duration": 1.8687500000000057
        },
        {
          "name": "G3",
          "midi": 55,
          "time": 108,
          "velocity": 0.968503937007874,
          "duration": 1.8687500000000057
        },
        {
          "name": "G5",
          "midi": 79,
          "time": 109.875,
          "velocity": 0.968503937007874,
          "duration": 0.3687500000000057
        },
        {
          "name": "G4",
          "midi": 67,
          "time": 109.875,
          "velocity": 0.968503937007874,
          "duration": 0.3687500000000057
        },
        {
          "name": "G3",
          "midi": 55,
          "time": 109.875,
          "velocity": 0.968503937007874,
          "duration": 0.3687500000000057
        },
        {
          "name": "C6",
          "midi": 84,
          "time": 110.25,
          "velocity": 0.952755905511811,
          "duration": 0.7437500000000057
        },
        {
          "name": "C5",
          "midi": 72,
          "time": 110.25,
          "velocity": 0.952755905511811,
          "duration": 0.7437500000000057
        },
        {
          "name": "C4",
          "midi": 60,
          "time": 110.25,
          "velocity": 0.952755905511811,
          "duration": 0.7437500000000057
        },
        {
          "name": "D#6",
          "midi": 87,
          "time": 110.625,
          "velocity": 0.952755905511811,
          "duration": 0.3687500000000057
        },
        {
          "name": "D#5",
          "midi": 75,
          "time": 110.625,
          "velocity": 0.952755905511811,
          "duration": 0.3687500000000057
        },
        {
          "name": "D#4",
          "midi": 63,
          "time": 110.625,
          "velocity": 0.952755905511811,
          "duration": 0.3687500000000057
        },
        {
          "name": "D6",
          "midi": 86,
          "time": 111,
          "velocity": 0.9921259842519685,
          "duration": 0.3687500000000057
        },
        {
          "name": "D5",
          "midi": 74,
          "time": 111,
          "velocity": 0.9921259842519685,
          "duration": 0.3687500000000057
        },
        {
          "name": "D4",
          "midi": 62,
          "time": 111,
          "velocity": 0.9921259842519685,
          "duration": 0.3687500000000057
        },
        {
          "name": "C6",
          "midi": 84,
          "time": 111.375,
          "velocity": 1,
          "duration": 0.3687500000000057
        },
        {
          "name": "C5",
          "midi": 72,
          "time": 111.375,
          "velocity": 1,
          "duration": 0.3687500000000057
        },
        {
          "name": "C4",
          "midi": 60,
          "time": 111.375,
          "velocity": 1,
          "duration": 0.3687500000000057
        },
        {
          "name": "D#6",
          "midi": 87,
          "time": 111.75,
          "velocity": 1,
          "duration": 0.3687500000000057
        },
        {
          "name": "D#5",
          "midi": 75,
          "time": 111.75,
          "velocity": 1,
          "duration": 0.3687500000000057
        },
        {
          "name": "D#4",
          "midi": 63,
          "time": 111.75,
          "velocity": 1,
          "duration": 0.3687500000000057
        },
        {
          "name": "C6",
          "midi": 84,
          "time": 112.125,
          "velocity": 1,
          "duration": 0.3687500000000057
        },
        {
          "name": "C5",
          "midi": 72,
          "time": 112.125,
          "velocity": 1,
          "duration": 0.3687500000000057
        },
        {
          "name": "C4",
          "midi": 60,
          "time": 112.125,
          "velocity": 1,
          "duration": 0.3687500000000057
        },
        {
          "name": "D6",
          "midi": 86,
          "time": 112.5,
          "velocity": 0.9606299212598425,
          "duration": 0.3687500000000057
        },
        {
          "name": "D5",
          "midi": 74,
          "time": 112.5,
          "velocity": 0.9606299212598425,
          "duration": 0.3687500000000057
        },
        {
          "name": "D4",
          "midi": 62,
          "time": 112.5,
          "velocity": 0.9606299212598425,
          "duration": 0.3687500000000057
        },
        {
          "name": "C6",
          "midi": 84,
          "time": 112.875,
          "velocity": 0.968503937007874,
          "duration": 0.5
        },
        {
          "name": "C5",
          "midi": 72,
          "time": 112.875,
          "velocity": 0.968503937007874,
          "duration": 0.5
        },
        {
          "name": "C4",
          "midi": 60,
          "time": 112.875,
          "velocity": 0.968503937007874,
          "duration": 0.5
        },
        {
          "name": "G5",
          "midi": 79,
          "time": 113.5,
          "velocity": 0.9763779527559056,
          "duration": 0.25
        },
        {
          "name": "G4",
          "midi": 67,
          "time": 113.5,
          "velocity": 0.9763779527559056,
          "duration": 0.25
        },
        {
          "name": "G3",
          "midi": 55,
          "time": 113.5,
          "velocity": 0.9763779527559056,
          "duration": 0.25
        },
        {
          "name": "F#5",
          "midi": 78,
          "time": 113.75,
          "velocity": 0.9763779527559056,
          "duration": 0.25
        },
        {
          "name": "F#4",
          "midi": 66,
          "time": 113.75,
          "velocity": 0.9763779527559056,
          "duration": 0.25
        },
        {
          "name": "F#3",
          "midi": 54,
          "time": 113.75,
          "velocity": 0.9763779527559056,
          "duration": 0.25
        },
        {
          "name": "F5",
          "midi": 77,
          "time": 114,
          "velocity": 0.9763779527559056,
          "duration": 1.4937500000000057
        },
        {
          "name": "F4",
          "midi": 65,
          "time": 114,
          "velocity": 0.9763779527559056,
          "duration": 1.4937500000000057
        },
        {
          "name": "F3",
          "midi": 53,
          "time": 114,
          "velocity": 0.9763779527559056,
          "duration": 1.4937500000000057
        },
        {
          "name": "F5",
          "midi": 77,
          "time": 115.875,
          "velocity": 1,
          "duration": 0.3687500000000057
        },
        {
          "name": "F4",
          "midi": 65,
          "time": 115.875,
          "velocity": 1,
          "duration": 0.3687500000000057
        },
        {
          "name": "F3",
          "midi": 53,
          "time": 115.875,
          "velocity": 1,
          "duration": 0.3687500000000057
        },
        {
          "name": "G#5",
          "midi": 80,
          "time": 116.25,
          "velocity": 1,
          "duration": 0.3687500000000057
        },
        {
          "name": "G#4",
          "midi": 68,
          "time": 116.25,
          "velocity": 1,
          "duration": 0.3687500000000057
        },
        {
          "name": "G#3",
          "midi": 56,
          "time": 116.25,
          "velocity": 1,
          "duration": 0.3687500000000057
        },
        {
          "name": "B5",
          "midi": 83,
          "time": 116.625,
          "velocity": 1,
          "duration": 0.3687500000000057
        },
        {
          "name": "B4",
          "midi": 71,
          "time": 116.625,
          "velocity": 1,
          "duration": 0.3687500000000057
        },
        {
          "name": "B3",
          "midi": 59,
          "time": 116.625,
          "velocity": 1,
          "duration": 0.3687500000000057
        },
        {
          "name": "D6",
          "midi": 86,
          "time": 117,
          "velocity": 0.9763779527559056,
          "duration": 1.8687500000000057
        },
        {
          "name": "D5",
          "midi": 74,
          "time": 117,
          "velocity": 0.9763779527559056,
          "duration": 1.8687500000000057
        },
        {
          "name": "D4",
          "midi": 62,
          "time": 117,
          "velocity": 0.9763779527559056,
          "duration": 1.8687500000000057
        },
        {
          "name": "F5",
          "midi": 77,
          "time": 118.875,
          "velocity": 1,
          "duration": 0.3687500000000057
        },
        {
          "name": "F4",
          "midi": 65,
          "time": 118.875,
          "velocity": 1,
          "duration": 0.3687500000000057
        },
        {
          "name": "F3",
          "midi": 53,
          "time": 118.875,
          "velocity": 1,
          "duration": 0.3687500000000057
        },
        {
          "name": "G#5",
          "midi": 80,
          "time": 119.25,
          "velocity": 1,
          "duration": 0.3687500000000057
        },
        {
          "name": "G#4",
          "midi": 68,
          "time": 119.25,
          "velocity": 1,
          "duration": 0.3687500000000057
        },
        {
          "name": "G#3",
          "midi": 56,
          "time": 119.25,
          "velocity": 1,
          "duration": 0.3687500000000057
        },
        {
          "name": "B5",
          "midi": 83,
          "time": 119.625,
          "velocity": 1,
          "duration": 0.3687500000000057
        },
        {
          "name": "B4",
          "midi": 71,
          "time": 119.625,
          "velocity": 1,
          "duration": 0.3687500000000057
        },
        {
          "name": "B3",
          "midi": 59,
          "time": 119.625,
          "velocity": 1,
          "duration": 0.3687500000000057
        },
        {
          "name": "C6",
          "midi": 84,
          "time": 120,
          "velocity": 0.968503937007874,
          "duration": 1.8687500000000057
        },
        {
          "name": "C5",
          "midi": 72,
          "time": 120,
          "velocity": 0.968503937007874,
          "duration": 1.8687500000000057
        },
        {
          "name": "C4",
          "midi": 60,
          "time": 120,
          "velocity": 0.968503937007874,
          "duration": 1.8687500000000057
        },
        {
          "name": "C5",
          "midi": 72,
          "time": 121.875,
          "velocity": 0.9921259842519685,
          "duration": 0.3687500000000057
        },
        {
          "name": "C4",
          "midi": 60,
          "time": 121.875,
          "velocity": 0.9921259842519685,
          "duration": 0.3687500000000057
        },
        {
          "name": "C3",
          "midi": 48,
          "time": 121.875,
          "velocity": 0.9921259842519685,
          "duration": 0.3687500000000057
        },
        {
          "name": "D#5",
          "midi": 75,
          "time": 122.25,
          "velocity": 1,
          "duration": 0.3687500000000057
        },
        {
          "name": "D#4",
          "midi": 63,
          "time": 122.25,
          "velocity": 1,
          "duration": 0.3687500000000057
        },
        {
          "name": "D#3",
          "midi": 51,
          "time": 122.25,
          "velocity": 1,
          "duration": 0.3687500000000057
        },
        {
          "name": "A#5",
          "midi": 82,
          "time": 122.625,
          "velocity": 1,
          "duration": 0.3687500000000057
        },
        {
          "name": "A#4",
          "midi": 70,
          "time": 122.625,
          "velocity": 1,
          "duration": 0.3687500000000057
        },
        {
          "name": "A#3",
          "midi": 58,
          "time": 122.625,
          "velocity": 1,
          "duration": 0.3687500000000057
        },
        {
          "name": "G#5",
          "midi": 80,
          "time": 123,
          "velocity": 0.9606299212598425,
          "duration": 0.3687500000000057
        },
        {
          "name": "G#4",
          "midi": 68,
          "time": 123,
          "velocity": 0.9606299212598425,
          "duration": 0.3687500000000057
        },
        {
          "name": "G#3",
          "midi": 56,
          "time": 123,
          "velocity": 0.9606299212598425,
          "duration": 0.3687500000000057
        },
        {
          "name": "G5",
          "midi": 79,
          "time": 123.375,
          "velocity": 0.968503937007874,
          "duration": 0.3687500000000057
        },
        {
          "name": "G4",
          "midi": 67,
          "time": 123.375,
          "velocity": 0.968503937007874,
          "duration": 0.3687500000000057
        },
        {
          "name": "G3",
          "midi": 55,
          "time": 123.375,
          "velocity": 0.968503937007874,
          "duration": 0.3687500000000057
        },
        {
          "name": "A#5",
          "midi": 82,
          "time": 123.75,
          "velocity": 0.968503937007874,
          "duration": 0.3687500000000057
        },
        {
          "name": "A#4",
          "midi": 70,
          "time": 123.75,
          "velocity": 0.968503937007874,
          "duration": 0.3687500000000057
        },
        {
          "name": "A#3",
          "midi": 58,
          "time": 123.75,
          "velocity": 0.968503937007874,
          "duration": 0.3687500000000057
        },
        {
          "name": "G#5",
          "midi": 80,
          "time": 124.125,
          "velocity": 0.968503937007874,
          "duration": 0.3687500000000057
        },
        {
          "name": "G#4",
          "midi": 68,
          "time": 124.125,
          "velocity": 0.968503937007874,
          "duration": 0.3687500000000057
        },
        {
          "name": "G#3",
          "midi": 56,
          "time": 124.125,
          "velocity": 0.968503937007874,
          "duration": 0.3687500000000057
        },
        {
          "name": "G#5",
          "midi": 80,
          "time": 124.5,
          "velocity": 0.9763779527559056,
          "duration": 0.3687500000000057
        },
        {
          "name": "G#4",
          "midi": 68,
          "time": 124.5,
          "velocity": 0.9763779527559056,
          "duration": 0.3687500000000057
        },
        {
          "name": "G#3",
          "midi": 56,
          "time": 124.5,
          "velocity": 0.9763779527559056,
          "duration": 0.3687500000000057
        },
        {
          "name": "G5",
          "midi": 79,
          "time": 124.875,
          "velocity": 0.9763779527559056,
          "duration": 0.375
        },
        {
          "name": "G4",
          "midi": 67,
          "time": 124.875,
          "velocity": 0.9763779527559056,
          "duration": 0.375
        },
        {
          "name": "G3",
          "midi": 55,
          "time": 124.875,
          "velocity": 0.9763779527559056,
          "duration": 0.375
        },
        {
          "name": "G5",
          "midi": 79,
          "time": 125.25,
          "velocity": 0.9763779527559056,
          "duration": 0.375
        },
        {
          "name": "G4",
          "midi": 67,
          "time": 125.25,
          "velocity": 0.9763779527559056,
          "duration": 0.375
        },
        {
          "name": "G3",
          "midi": 55,
          "time": 125.25,
          "velocity": 0.9763779527559056,
          "duration": 0.375
        },
        {
          "name": "B5",
          "midi": 83,
          "time": 125.625,
          "velocity": 0.9763779527559056,
          "duration": 0.375
        },
        {
          "name": "B4",
          "midi": 71,
          "time": 125.625,
          "velocity": 0.9763779527559056,
          "duration": 0.375
        },
        {
          "name": "B3",
          "midi": 59,
          "time": 125.625,
          "velocity": 0.9763779527559056,
          "duration": 0.375
        },
        {
          "name": "C6",
          "midi": 84,
          "time": 126,
          "velocity": 0.984251968503937,
          "duration": 2.9937500000000057
        },
        {
          "name": "C5",
          "midi": 72,
          "time": 126,
          "velocity": 0.984251968503937,
          "duration": 2.9937500000000057
        },
        {
          "name": "C4",
          "midi": 60,
          "time": 126,
          "velocity": 0.984251968503937,
          "duration": 2.9937500000000057
        }
      ],
      "controlChanges": {
        "7": [
          {
            "number": 7,
            "time": 0,
            "value": 0.7874015748031497
          }
        ],
        "10": [
          {
            "number": 10,
            "time": 0,
            "value": 0.6692913385826772
          }
        ],
        "64": [
          {
            "number": 64,
            "time": 0,
            "value": 0
          }
        ]
      }
    },
    {
      "startTime": 7.875,
      "duration": 128.99375,
      "length": 164,
      "id": 2,
      "name": "STRINGS MELODY",
      "instrumentNumber": 48,
      "instrument": "string ensemble 1",
      "instrumentFamily": "ensemble",
      "channelNumber": 1,
      "isPercussion": false,
      "notes": [
        {
          "name": "G5",
          "midi": 79,
          "time": 7.875,
          "velocity": 0.984251968503937,
          "duration": 0.375
        },
        {
          "name": "C6",
          "midi": 84,
          "time": 8.25,
          "velocity": 1,
          "duration": 0.375
        },
        {
          "name": "D#6",
          "midi": 87,
          "time": 8.625,
          "velocity": 1,
          "duration": 0.375
        },
        {
          "name": "D6",
          "midi": 86,
          "time": 9,
          "velocity": 1,
          "duration": 0.3874999999999993
        },
        {
          "name": "C6",
          "midi": 84,
          "time": 9.375,
          "velocity": 1,
          "duration": 0.3687499999999986
        },
        {
          "name": "D#6",
          "midi": 87,
          "time": 9.749999999999998,
          "velocity": 1,
          "duration": 0.36875000000000036
        },
        {
          "name": "C6",
          "midi": 84,
          "time": 10.124999999999998,
          "velocity": 1,
          "duration": 0.36875000000000036
        },
        {
          "name": "D6",
          "midi": 86,
          "time": 10.499999999999998,
          "velocity": 1,
          "duration": 0.36875000000000036
        },
        {
          "name": "C6",
          "midi": 84,
          "time": 10.874999999999998,
          "velocity": 1,
          "duration": 0.5
        },
        {
          "name": "G#5",
          "midi": 80,
          "time": 11.499999999999998,
          "velocity": 1,
          "duration": 0.25
        },
        {
          "name": "A#5",
          "midi": 82,
          "time": 11.749999999999998,
          "velocity": 1,
          "duration": 0.25
        },
        {
          "name": "G5",
          "midi": 79,
          "time": 11.999999999999998,
          "velocity": 0.984251968503937,
          "duration": 1.875
        },
        {
          "name": "G5",
          "midi": 79,
          "time": 13.874999999999998,
          "velocity": 0.968503937007874,
          "duration": 0.375
        },
        {
          "name": "C6",
          "midi": 84,
          "time": 14.249999999999998,
          "velocity": 0.968503937007874,
          "duration": 0.36875000000000036
        },
        {
          "name": "D#6",
          "midi": 87,
          "time": 14.624999999999998,
          "velocity": 0.9763779527559056,
          "duration": 0.375
        },
        {
          "name": "D6",
          "midi": 86,
          "time": 14.999999999999998,
          "velocity": 0.984251968503937,
          "duration": 0.36875000000000036
        },
        {
          "name": "C6",
          "midi": 84,
          "time": 15.374999999999998,
          "velocity": 0.984251968503937,
          "duration": 0.36875000000000036
        },
        {
          "name": "D#6",
          "midi": 87,
          "time": 15.749999999999998,
          "velocity": 0.984251968503937,
          "duration": 0.36875000000000036
        },
        {
          "name": "C6",
          "midi": 84,
          "time": 16.125,
          "velocity": 0.984251968503937,
          "duration": 0.3687499999999986
        },
        {
          "name": "D6",
          "midi": 86,
          "time": 16.5,
          "velocity": 0.968503937007874,
          "duration": 0.3687499999999986
        },
        {
          "name": "C6",
          "midi": 84,
          "time": 16.875,
          "velocity": 0.9763779527559056,
          "duration": 0.5
        },
        {
          "name": "G5",
          "midi": 79,
          "time": 17.5,
          "velocity": 0.9448818897637795,
          "duration": 0.25
        },
        {
          "name": "F#5",
          "midi": 78,
          "time": 17.75,
          "velocity": 0.9606299212598425,
          "duration": 0.25
        },
        {
          "name": "F5",
          "midi": 77,
          "time": 18,
          "velocity": 0.952755905511811,
          "duration": 1.8687499999999986
        },
        {
          "name": "F5",
          "midi": 77,
          "time": 19.875,
          "velocity": 0.9606299212598425,
          "duration": 0.3687499999999986
        },
        {
          "name": "G#5",
          "midi": 80,
          "time": 20.25,
          "velocity": 0.952755905511811,
          "duration": 0.3687499999999986
        },
        {
          "name": "B5",
          "midi": 83,
          "time": 20.625,
          "velocity": 0.952755905511811,
          "duration": 0.3687499999999986
        },
        {
          "name": "D6",
          "midi": 86,
          "time": 21,
          "velocity": 0.9448818897637795,
          "duration": 1.8687499999999986
        },
        {
          "name": "F5",
          "midi": 77,
          "time": 22.875,
          "velocity": 0.9448818897637795,
          "duration": 0.3687499999999986
        },
        {
          "name": "G#5",
          "midi": 80,
          "time": 23.25,
          "velocity": 0.9448818897637795,
          "duration": 0.3687499999999986
        },
        {
          "name": "B5",
          "midi": 83,
          "time": 23.625,
          "velocity": 0.9448818897637795,
          "duration": 0.3687499999999986
        },
        {
          "name": "C6",
          "midi": 84,
          "time": 24,
          "velocity": 0.9448818897637795,
          "duration": 1.8687499999999986
        },
        {
          "name": "C5",
          "midi": 72,
          "time": 25.875,
          "velocity": 0.9448818897637795,
          "duration": 0.3687499999999986
        },
        {
          "name": "D#5",
          "midi": 75,
          "time": 26.25,
          "velocity": 0.9448818897637795,
          "duration": 0.3687499999999986
        },
        {
          "name": "A#5",
          "midi": 82,
          "time": 26.625,
          "velocity": 0.9448818897637795,
          "duration": 0.3687499999999986
        },
        {
          "name": "G#5",
          "midi": 80,
          "time": 27,
          "velocity": 0.9448818897637795,
          "duration": 0.3687499999999986
        },
        {
          "name": "G5",
          "midi": 79,
          "time": 27.375,
          "velocity": 0.9606299212598425,
          "duration": 0.7437499999999986
        },
        {
          "name": "A#5",
          "midi": 82,
          "time": 28,
          "velocity": 0.9606299212598425,
          "duration": 0.25
        },
        {
          "name": "G#5",
          "midi": 80,
          "time": 28.25,
          "velocity": 0.9606299212598425,
          "duration": 0.25
        },
        {
          "name": "G#5",
          "midi": 80,
          "time": 28.5,
          "velocity": 0.9606299212598425,
          "duration": 0.3687499999999986
        },
        {
          "name": "G5",
          "midi": 79,
          "time": 28.875,
          "velocity": 0.9606299212598425,
          "duration": 0.3687499999999986
        },
        {
          "name": "G5",
          "midi": 79,
          "time": 29.25,
          "velocity": 0.9606299212598425,
          "duration": 0.3687499999999986
        },
        {
          "name": "B4",
          "midi": 71,
          "time": 29.625,
          "velocity": 0.9606299212598425,
          "duration": 0.3687499999999986
        },
        {
          "name": "C5",
          "midi": 72,
          "time": 30,
          "velocity": 0.952755905511811,
          "duration": 1.8687499999999986
        },
        {
          "name": "C6",
          "midi": 84,
          "time": 31.875,
          "velocity": 1,
          "duration": 0.3687499999999986
        },
        {
          "name": "C6",
          "midi": 84,
          "time": 32.25,
          "velocity": 0.9763779527559056,
          "duration": 0.3687499999999986
        },
        {
          "name": "B5",
          "midi": 83,
          "time": 32.625,
          "velocity": 0.984251968503937,
          "duration": 0.3687499999999986
        },
        {
          "name": "A#5",
          "midi": 82,
          "time": 33,
          "velocity": 1,
          "duration": 1.4937499999999986
        },
        {
          "name": "D6",
          "midi": 86,
          "time": 34.5,
          "velocity": 1,
          "duration": 0.7437499999999986
        },
        {
          "name": "C6",
          "midi": 84,
          "time": 35.25,
          "velocity": 1,
          "duration": 0.3687499999999986
        },
        {
          "name": "G#5",
          "midi": 80,
          "time": 35.625,
          "velocity": 1,
          "duration": 0.3687499999999986
        },
        {
          "name": "G5",
          "midi": 79,
          "time": 36,
          "velocity": 1,
          "duration": 1.8687499999999986
        },
        {
          "name": "G5",
          "midi": 79,
          "time": 37.875,
          "velocity": 0.984251968503937,
          "duration": 0.3687499999999986
        },
        {
          "name": "A#5",
          "midi": 82,
          "time": 38.25,
          "velocity": 0.984251968503937,
          "duration": 0.3687499999999986
        },
        {
          "name": "G5",
          "midi": 79,
          "time": 38.625,
          "velocity": 0.984251968503937,
          "duration": 0.3687499999999986
        },
        {
          "name": "F5",
          "midi": 77,
          "time": 39,
          "velocity": 0.984251968503937,
          "duration": 1.8687499999999986
        },
        {
          "name": "F5",
          "midi": 77,
          "time": 40.875,
          "velocity": 0.968503937007874,
          "duration": 0.3687499999999986
        },
        {
          "name": "G#5",
          "midi": 80,
          "time": 41.25,
          "velocity": 0.9763779527559056,
          "duration": 0.3687499999999986
        },
        {
          "name": "F#5",
          "midi": 78,
          "time": 41.625,
          "velocity": 0.9763779527559056,
          "duration": 0.3687499999999986
        },
        {
          "name": "G5",
          "midi": 79,
          "time": 42,
          "velocity": 0.9763779527559056,
          "duration": 1.8687499999999986
        },
        {
          "name": "G5",
          "midi": 79,
          "time": 43.875,
          "velocity": 0.9763779527559056,
          "duration": 0.3687499999999986
        },
        {
          "name": "C6",
          "midi": 84,
          "time": 44.25,
          "velocity": 0.9763779527559056,
          "duration": 0.7437499999999986
        },
        {
          "name": "D#6",
          "midi": 87,
          "time": 44.625,
          "velocity": 1,
          "duration": 0.3687499999999986
        },
        {
          "name": "D6",
          "midi": 86,
          "time": 45,
          "velocity": 1,
          "duration": 0.3687499999999986
        },
        {
          "name": "C6",
          "midi": 84,
          "time": 45.375,
          "velocity": 1,
          "duration": 0.3687499999999986
        },
        {
          "name": "D#6",
          "midi": 87,
          "time": 45.75,
          "velocity": 0.984251968503937,
          "duration": 0.3687499999999986
        },
        {
          "name": "C6",
          "midi": 84,
          "time": 46.125,
          "velocity": 0.984251968503937,
          "duration": 0.3687499999999986
        },
        {
          "name": "D6",
          "midi": 86,
          "time": 46.5,
          "velocity": 0.984251968503937,
          "duration": 0.3687499999999986
        },
        {
          "name": "C6",
          "midi": 84,
          "time": 46.875,
          "velocity": 0.984251968503937,
          "duration": 0.5
        },
        {
          "name": "G#5",
          "midi": 80,
          "time": 47.5,
          "velocity": 0.984251968503937,
          "duration": 0.25
        },
        {
          "name": "A#5",
          "midi": 82,
          "time": 47.75,
          "velocity": 0.984251968503937,
          "duration": 0.25
        },
        {
          "name": "G5",
          "midi": 79,
          "time": 48,
          "velocity": 0.9763779527559056,
          "duration": 1.8687499999999986
        },
        {
          "name": "G5",
          "midi": 79,
          "time": 49.875,
          "velocity": 0.984251968503937,
          "duration": 0.3687499999999986
        },
        {
          "name": "C6",
          "midi": 84,
          "time": 50.25,
          "velocity": 0.968503937007874,
          "duration": 0.7437499999999986
        },
        {
          "name": "D#6",
          "midi": 87,
          "time": 50.625,
          "velocity": 0.968503937007874,
          "duration": 0.3687499999999986
        },
        {
          "name": "D6",
          "midi": 86,
          "time": 51,
          "velocity": 0.968503937007874,
          "duration": 0.3687499999999986
        },
        {
          "name": "C6",
          "midi": 84,
          "time": 51.375,
          "velocity": 0.984251968503937,
          "duration": 0.3687499999999986
        },
        {
          "name": "D#6",
          "midi": 87,
          "time": 51.75,
          "velocity": 1,
          "duration": 0.3687499999999986
        },
        {
          "name": "C6",
          "midi": 84,
          "time": 52.125,
          "velocity": 1,
          "duration": 0.3687499999999986
        },
        {
          "name": "D6",
          "midi": 86,
          "time": 52.5,
          "velocity": 0.968503937007874,
          "duration": 0.3687499999999986
        },
        {
          "name": "C6",
          "midi": 84,
          "time": 52.875,
          "velocity": 0.968503937007874,
          "duration": 0.5
        },
        {
          "name": "G5",
          "midi": 79,
          "time": 53.5,
          "velocity": 0.968503937007874,
          "duration": 0.25
        },
        {
          "name": "F#5",
          "midi": 78,
          "time": 53.75,
          "velocity": 0.968503937007874,
          "duration": 0.25
        },
        {
          "name": "F5",
          "midi": 77,
          "time": 54,
          "velocity": 0.9921259842519685,
          "duration": 1.4937499999999986
        },
        {
          "name": "F5",
          "midi": 77,
          "time": 55.875,
          "velocity": 1,
          "duration": 0.3687499999999986
        },
        {
          "name": "G#5",
          "midi": 80,
          "time": 56.25,
          "velocity": 1,
          "duration": 0.3687499999999986
        },
        {
          "name": "B5",
          "midi": 83,
          "time": 56.625,
          "velocity": 1,
          "duration": 0.3687499999999986
        },
        {
          "name": "D6",
          "midi": 86,
          "time": 57,
          "velocity": 1,
          "duration": 1.8687499999999986
        },
        {
          "name": "F5",
          "midi": 77,
          "time": 58.875,
          "velocity": 1,
          "duration": 0.3687499999999986
        },
        {
          "name": "G#5",
          "midi": 80,
          "time": 59.25,
          "velocity": 1,
          "duration": 0.3687499999999986
        },
        {
          "name": "B5",
          "midi": 83,
          "time": 59.625,
          "velocity": 1,
          "duration": 0.3687499999999986
        },
        {
          "name": "C6",
          "midi": 84,
          "time": 60,
          "velocity": 0.9763779527559056,
          "duration": 1.8687499999999986
        },
        {
          "name": "C5",
          "midi": 72,
          "time": 61.875,
          "velocity": 1,
          "duration": 0.3687499999999986
        },
        {
          "name": "D#5",
          "midi": 75,
          "time": 62.25,
          "velocity": 0.9921259842519685,
          "duration": 0.3687499999999986
        },
        {
          "name": "A#5",
          "midi": 82,
          "time": 62.625,
          "velocity": 1,
          "duration": 0.3687499999999986
        },
        {
          "name": "G#5",
          "midi": 80,
          "time": 63,
          "velocity": 1,
          "duration": 0.3687499999999986
        },
        {
          "name": "G5",
          "midi": 79,
          "time": 63.375,
          "velocity": 1,
          "duration": 0.3687499999999986
        },
        {
          "name": "A#5",
          "midi": 82,
          "time": 63.75,
          "velocity": 0.9763779527559056,
          "duration": 0.3687500000000057
        },
        {
          "name": "G#5",
          "midi": 80,
          "time": 64.125,
          "velocity": 0.9763779527559056,
          "duration": 0.3687500000000057
        },
        {
          "name": "G#5",
          "midi": 80,
          "time": 64.5,
          "velocity": 0.9763779527559056,
          "duration": 0.3687500000000057
        },
        {
          "name": "G5",
          "midi": 79,
          "time": 64.875,
          "velocity": 0.9763779527559056,
          "duration": 0.5
        },
        {
          "name": "G5",
          "midi": 79,
          "time": 65.5,
          "velocity": 0.984251968503937,
          "duration": 0.25
        },
        {
          "name": "B5",
          "midi": 83,
          "time": 65.75,
          "velocity": 0.984251968503937,
          "duration": 0.25
        },
        {
          "name": "C6",
          "midi": 84,
          "time": 66,
          "velocity": 0.984251968503937,
          "duration": 1.8687500000000057
        },
        {
          "name": "C6",
          "midi": 84,
          "time": 91.875,
          "velocity": 1,
          "duration": 0.3687500000000057
        },
        {
          "name": "C6",
          "midi": 84,
          "time": 92.25,
          "velocity": 1,
          "duration": 0.3687500000000057
        },
        {
          "name": "B5",
          "midi": 83,
          "time": 92.625,
          "velocity": 1,
          "duration": 0.3687500000000057
        },
        {
          "name": "A#5",
          "midi": 82,
          "time": 93,
          "velocity": 1,
          "duration": 1.4937500000000057
        },
        {
          "name": "D6",
          "midi": 86,
          "time": 94.5,
          "velocity": 0.984251968503937,
          "duration": 0.7437500000000057
        },
        {
          "name": "C6",
          "midi": 84,
          "time": 95.25,
          "velocity": 1,
          "duration": 0.3687500000000057
        },
        {
          "name": "G#5",
          "midi": 80,
          "time": 95.625,
          "velocity": 1,
          "duration": 0.3687500000000057
        },
        {
          "name": "G5",
          "midi": 79,
          "time": 96,
          "velocity": 1,
          "duration": 1.8687500000000057
        },
        {
          "name": "G5",
          "midi": 79,
          "time": 97.875,
          "velocity": 1,
          "duration": 0.3687500000000057
        },
        {
          "name": "A#5",
          "midi": 82,
          "time": 98.25,
          "velocity": 1,
          "duration": 0.3687500000000057
        },
        {
          "name": "G5",
          "midi": 79,
          "time": 98.625,
          "velocity": 1,
          "duration": 0.3687500000000057
        },
        {
          "name": "F5",
          "midi": 77,
          "time": 99,
          "velocity": 0.9921259842519685,
          "duration": 1.8687500000000057
        },
        {
          "name": "F5",
          "midi": 77,
          "time": 100.875,
          "velocity": 1,
          "duration": 0.3687500000000057
        },
        {
          "name": "G#5",
          "midi": 80,
          "time": 101.25,
          "velocity": 1,
          "duration": 0.3687500000000057
        },
        {
          "name": "F#5",
          "midi": 78,
          "time": 101.625,
          "velocity": 1,
          "duration": 0.3687500000000057
        },
        {
          "name": "G5",
          "midi": 79,
          "time": 102,
          "velocity": 1,
          "duration": 1.8687500000000057
        },
        {
          "name": "G5",
          "midi": 79,
          "time": 103.875,
          "velocity": 0.9921259842519685,
          "duration": 0.3687500000000057
        },
        {
          "name": "C6",
          "midi": 84,
          "time": 104.25,
          "velocity": 0.9921259842519685,
          "duration": 0.7437500000000057
        },
        {
          "name": "D#6",
          "midi": 87,
          "time": 104.625,
          "velocity": 1,
          "duration": 0.3687500000000057
        },
        {
          "name": "D6",
          "midi": 86,
          "time": 105,
          "velocity": 1,
          "duration": 0.3687500000000057
        },
        {
          "name": "C6",
          "midi": 84,
          "time": 105.375,
          "velocity": 1,
          "duration": 0.3687500000000057
        },
        {
          "name": "D#6",
          "midi": 87,
          "time": 105.75,
          "velocity": 1,
          "duration": 0.3687500000000057
        },
        {
          "name": "C6",
          "midi": 84,
          "time": 106.125,
          "velocity": 1,
          "duration": 0.3687500000000057
        },
        {
          "name": "D6",
          "midi": 86,
          "time": 106.5,
          "velocity": 1,
          "duration": 0.3687500000000057
        },
        {
          "name": "C6",
          "midi": 84,
          "time": 106.875,
          "velocity": 1,
          "duration": 0.5
        },
        {
          "name": "G#5",
          "midi": 80,
          "time": 107.5,
          "velocity": 1,
          "duration": 0.25
        },
        {
          "name": "A#5",
          "midi": 82,
          "time": 107.75,
          "velocity": 1,
          "duration": 0.25
        },
        {
          "name": "G5",
          "midi": 79,
          "time": 108,
          "velocity": 1,
          "duration": 1.8687500000000057
        },
        {
          "name": "G5",
          "midi": 79,
          "time": 109.875,
          "velocity": 0.984251968503937,
          "duration": 0.3687500000000057
        },
        {
          "name": "C6",
          "midi": 84,
          "time": 110.25,
          "velocity": 0.984251968503937,
          "duration": 0.7437500000000057
        },
        {
          "name": "D#6",
          "midi": 87,
          "time": 110.625,
          "velocity": 0.984251968503937,
          "duration": 0.3687500000000057
        },
        {
          "name": "D6",
          "midi": 86,
          "time": 111,
          "velocity": 0.968503937007874,
          "duration": 0.3687500000000057
        },
        {
          "name": "C6",
          "midi": 84,
          "time": 111.375,
          "velocity": 0.968503937007874,
          "duration": 0.3687500000000057
        },
        {
          "name": "D#6",
          "midi": 87,
          "time": 111.75,
          "velocity": 0.968503937007874,
          "duration": 0.3687500000000057
        },
        {
          "name": "C6",
          "midi": 84,
          "time": 112.125,
          "velocity": 0.968503937007874,
          "duration": 0.3687500000000057
        },
        {
          "name": "D6",
          "midi": 86,
          "time": 112.5,
          "velocity": 0.968503937007874,
          "duration": 0.3687500000000057
        },
        {
          "name": "C6",
          "midi": 84,
          "time": 112.875,
          "velocity": 0.968503937007874,
          "duration": 0.5
        },
        {
          "name": "G5",
          "midi": 79,
          "time": 113.5,
          "velocity": 0.968503937007874,
          "duration": 0.25
        },
        {
          "name": "F#5",
          "midi": 78,
          "time": 113.75,
          "velocity": 0.9921259842519685,
          "duration": 0.25
        },
        {
          "name": "F5",
          "midi": 77,
          "time": 114,
          "velocity": 1,
          "duration": 1.4937500000000057
        },
        {
          "name": "F5",
          "midi": 77,
          "time": 115.875,
          "velocity": 1,
          "duration": 0.3687500000000057
        },
        {
          "name": "G#5",
          "midi": 80,
          "time": 116.25,
          "velocity": 1,
          "duration": 0.3687500000000057
        },
        {
          "name": "B5",
          "midi": 83,
          "time": 116.625,
          "velocity": 1,
          "duration": 0.3687500000000057
        },
        {
          "name": "D6",
          "midi": 86,
          "time": 117,
          "velocity": 1,
          "duration": 1.8687500000000057
        },
        {
          "name": "F5",
          "midi": 77,
          "time": 118.875,
          "velocity": 0.9763779527559056,
          "duration": 0.3687500000000057
        },
        {
          "name": "G#5",
          "midi": 80,
          "time": 119.25,
          "velocity": 0.9763779527559056,
          "duration": 0.3687500000000057
        },
        {
          "name": "B5",
          "midi": 83,
          "time": 119.625,
          "velocity": 0.9763779527559056,
          "duration": 0.3687500000000057
        },
        {
          "name": "C6",
          "midi": 84,
          "time": 120,
          "velocity": 0.984251968503937,
          "duration": 1.8687500000000057
        },
        {
          "name": "C5",
          "midi": 72,
          "time": 121.875,
          "velocity": 0.984251968503937,
          "duration": 0.3687500000000057
        },
        {
          "name": "D#5",
          "midi": 75,
          "time": 122.25,
          "velocity": 1,
          "duration": 0.3687500000000057
        },
        {
          "name": "A#5",
          "midi": 82,
          "time": 122.625,
          "velocity": 1,
          "duration": 0.3687500000000057
        },
        {
          "name": "G#5",
          "midi": 80,
          "time": 123,
          "velocity": 1,
          "duration": 0.3687500000000057
        },
        {
          "name": "G5",
          "midi": 79,
          "time": 123.375,
          "velocity": 1,
          "duration": 0.3687500000000057
        },
        {
          "name": "A#5",
          "midi": 82,
          "time": 123.75,
          "velocity": 0.968503937007874,
          "duration": 0.3687500000000057
        },
        {
          "name": "G#5",
          "midi": 80,
          "time": 124.125,
          "velocity": 0.968503937007874,
          "duration": 0.3687500000000057
        },
        {
          "name": "G#5",
          "midi": 80,
          "time": 124.5,
          "velocity": 0.968503937007874,
          "duration": 0.3687500000000057
        },
        {
          "name": "G5",
          "midi": 79,
          "time": 124.875,
          "velocity": 0.984251968503937,
          "duration": 0.375
        },
        {
          "name": "G5",
          "midi": 79,
          "time": 125.25,
          "velocity": 0.984251968503937,
          "duration": 0.375
        },
        {
          "name": "B5",
          "midi": 83,
          "time": 125.625,
          "velocity": 0.984251968503937,
          "duration": 0.375
        },
        {
          "name": "C6",
          "midi": 84,
          "time": 126,
          "velocity": 0.984251968503937,
          "duration": 2.9937500000000057
        }
      ],
      "controlChanges": {
        "7": [
          {
            "number": 7,
            "time": 0,
            "value": 0.3937007874015748
          }
        ],
        "10": [
          {
            "number": 10,
            "time": 0,
            "value": 0.3543307086614173
          }
        ],
        "64": [
          {
            "number": 64,
            "time": 0,
            "value": 0
          }
        ]
      }
    },
    {
      "startTime": 3.375,
      "duration": 8.625,
      "length": 12,
      "id": 3,
      "name": "STRINGHIGH",
      "instrumentNumber": 48,
      "instrument": "string ensemble 1",
      "instrumentFamily": "ensemble",
      "channelNumber": 2,
      "isPercussion": false,
      "notes": [
        {
          "name": "C4",
          "midi": 60,
          "time": 3.375,
          "velocity": 0.41732283464566927,
          "duration": 0.3687499999999999
        },
        {
          "name": "G4",
          "midi": 67,
          "time": 3.75,
          "velocity": 0.5196850393700787,
          "duration": 0.36875000000000036
        },
        {
          "name": "D#4",
          "midi": 63,
          "time": 3.75,
          "velocity": 0.4251968503937008,
          "duration": 0.36875000000000036
        },
        {
          "name": "C4",
          "midi": 60,
          "time": 4.125,
          "velocity": 0.6062992125984252,
          "duration": 0.36875000000000036
        },
        {
          "name": "D4",
          "midi": 62,
          "time": 4.5,
          "velocity": 0.48031496062992124,
          "duration": 1.4937500000000004
        },
        {
          "name": "F4",
          "midi": 65,
          "time": 4.5,
          "velocity": 0.5118110236220472,
          "duration": 1.4937500000000004
        },
        {
          "name": "C4",
          "midi": 60,
          "time": 6.375,
          "velocity": 0.41732283464566927,
          "duration": 0.36875000000000036
        },
        {
          "name": "G4",
          "midi": 67,
          "time": 6.75,
          "velocity": 0.5196850393700787,
          "duration": 0.36875000000000036
        },
        {
          "name": "D#4",
          "midi": 63,
          "time": 6.75,
          "velocity": 0.4251968503937008,
          "duration": 0.36875000000000036
        },
        {
          "name": "C4",
          "midi": 60,
          "time": 7.125,
          "velocity": 0.6062992125984252,
          "duration": 0.36875000000000036
        },
        {
          "name": "D4",
          "midi": 62,
          "time": 7.5,
          "velocity": 0.48031496062992124,
          "duration": 1.125
        },
        {
          "name": "F4",
          "midi": 65,
          "time": 7.5,
          "velocity": 0.5118110236220472,
          "duration": 1.125
        }
      ],
      "controlChanges": {
        "7": [
          {
            "number": 7,
            "time": 0,
            "value": 0.7795275590551181
          }
        ],
        "10": [
          {
            "number": 10,
            "time": 0,
            "value": 0.1968503937007874
          }
        ],
        "64": [
          {
            "number": 64,
            "time": 0,
            "value": 0
          }
        ]
      }
    },
    {
      "startTime": 67.875,
      "duration": 128.99375,
      "length": 190,
      "id": 4,
      "name": "MARIMBA",
      "instrumentNumber": 12,
      "instrument": "marimba",
      "instrumentFamily": "chromatic percussion",
      "channelNumber": 3,
      "isPercussion": false,
      "notes": [
        {
          "name": "G4",
          "midi": 67,
          "time": 67.875,
          "velocity": 0.984251968503937,
          "duration": 0.3687500000000057
        },
        {
          "name": "C5",
          "midi": 72,
          "time": 68.25,
          "velocity": 0.9921259842519685,
          "duration": 0.3687500000000057
        },
        {
          "name": "D#5",
          "midi": 75,
          "time": 68.625,
          "velocity": 1,
          "duration": 0.3687500000000057
        },
        {
          "name": "D5",
          "midi": 74,
          "time": 69,
          "velocity": 1,
          "duration": 0.38750000000000284
        },
        {
          "name": "C5",
          "midi": 72,
          "time": 69.375,
          "velocity": 1,
          "duration": 0.3687500000000057
        },
        {
          "name": "D#5",
          "midi": 75,
          "time": 69.75,
          "velocity": 1,
          "duration": 0.3687500000000057
        },
        {
          "name": "C5",
          "midi": 72,
          "time": 70.125,
          "velocity": 1,
          "duration": 0.3687500000000057
        },
        {
          "name": "D5",
          "midi": 74,
          "time": 70.5,
          "velocity": 0.9921259842519685,
          "duration": 0.3687500000000057
        },
        {
          "name": "C5",
          "midi": 72,
          "time": 70.875,
          "velocity": 1,
          "duration": 0.5
        },
        {
          "name": "G#4",
          "midi": 68,
          "time": 71.5,
          "velocity": 1,
          "duration": 0.25
        },
        {
          "name": "A#4",
          "midi": 70,
          "time": 71.75,
          "velocity": 1,
          "duration": 0.25
        },
        {
          "name": "G4",
          "midi": 67,
          "time": 72,
          "velocity": 0.6062992125984252,
          "duration": 0.056250000000005684
        },
        {
          "name": "G4",
          "midi": 67,
          "time": 72.0625,
          "velocity": 0.6062992125984252,
          "duration": 0.056250000000005684
        },
        {
          "name": "G4",
          "midi": 67,
          "time": 72.125,
          "velocity": 0.6062992125984252,
          "duration": 0.056250000000005684
        },
        {
          "name": "G4",
          "midi": 67,
          "time": 72.1875,
          "velocity": 0.6062992125984252,
          "duration": 0.056250000000005684
        },
        {
          "name": "G4",
          "midi": 67,
          "time": 72.25,
          "velocity": 0.6062992125984252,
          "duration": 0.056250000000005684
        },
        {
          "name": "G4",
          "midi": 67,
          "time": 72.3125,
          "velocity": 0.6062992125984252,
          "duration": 0.056250000000005684
        },
        {
          "name": "G4",
          "midi": 67,
          "time": 72.375,
          "velocity": 0.5984251968503937,
          "duration": 0.056250000000005684
        },
        {
          "name": "G4",
          "midi": 67,
          "time": 72.4375,
          "velocity": 0.5826771653543307,
          "duration": 0.056250000000005684
        },
        {
          "name": "G4",
          "midi": 67,
          "time": 72.5,
          "velocity": 0.5826771653543307,
          "duration": 0.056250000000005684
        },
        {
          "name": "G4",
          "midi": 67,
          "time": 72.5625,
          "velocity": 0.5826771653543307,
          "duration": 0.056250000000005684
        },
        {
          "name": "G4",
          "midi": 67,
          "time": 72.625,
          "velocity": 0.5669291338582677,
          "duration": 0.056250000000005684
        },
        {
          "name": "G4",
          "midi": 67,
          "time": 72.6875,
          "velocity": 0.5669291338582677,
          "duration": 0.056250000000005684
        },
        {
          "name": "G4",
          "midi": 67,
          "time": 72.75,
          "velocity": 0.5669291338582677,
          "duration": 0.056250000000005684
        },
        {
          "name": "G4",
          "midi": 67,
          "time": 72.8125,
          "velocity": 0.5669291338582677,
          "duration": 0.056250000000005684
        },
        {
          "name": "G4",
          "midi": 67,
          "time": 72.875,
          "velocity": 0.5669291338582677,
          "duration": 0.056250000000005684
        },
        {
          "name": "G4",
          "midi": 67,
          "time": 72.9375,
          "velocity": 0.5669291338582677,
          "duration": 0.056250000000005684
        },
        {
          "name": "G4",
          "midi": 67,
          "time": 73,
          "velocity": 0.5669291338582677,
          "duration": 0.056250000000005684
        },
        {
          "name": "G4",
          "midi": 67,
          "time": 73.0625,
          "velocity": 0.5826771653543307,
          "duration": 0.056250000000005684
        },
        {
          "name": "G4",
          "midi": 67,
          "time": 73.125,
          "velocity": 0.5826771653543307,
          "duration": 0.056250000000005684
        },
        {
          "name": "G4",
          "midi": 67,
          "time": 73.1875,
          "velocity": 0.5826771653543307,
          "duration": 0.056250000000005684
        },
        {
          "name": "G4",
          "midi": 67,
          "time": 73.875,
          "velocity": 1,
          "duration": 0.375
        },
        {
          "name": "C5",
          "midi": 72,
          "time": 74.25,
          "velocity": 0.9921259842519685,
          "duration": 0.3687500000000057
        },
        {
          "name": "D#5",
          "midi": 75,
          "time": 74.625,
          "velocity": 0.9921259842519685,
          "duration": 0.375
        },
        {
          "name": "D5",
          "midi": 74,
          "time": 75,
          "velocity": 1,
          "duration": 0.3687500000000057
        },
        {
          "name": "C5",
          "midi": 72,
          "time": 75.375,
          "velocity": 1,
          "duration": 0.3687500000000057
        },
        {
          "name": "D#5",
          "midi": 75,
          "time": 75.75,
          "velocity": 1,
          "duration": 0.3687500000000057
        },
        {
          "name": "C5",
          "midi": 72,
          "time": 76.125,
          "velocity": 1,
          "duration": 0.3687500000000057
        },
        {
          "name": "D5",
          "midi": 74,
          "time": 76.5,
          "velocity": 1,
          "duration": 0.3687500000000057
        },
        {
          "name": "C5",
          "midi": 72,
          "time": 76.875,
          "velocity": 1,
          "duration": 0.5
        },
        {
          "name": "G4",
          "midi": 67,
          "time": 77.5,
          "velocity": 1,
          "duration": 0.25
        },
        {
          "name": "F#4",
          "midi": 66,
          "time": 77.75,
          "velocity": 1,
          "duration": 0.25
        },
        {
          "name": "F4",
          "midi": 65,
          "time": 78,
          "velocity": 0.5984251968503937,
          "duration": 0.056250000000005684
        },
        {
          "name": "F4",
          "midi": 65,
          "time": 78.0625,
          "velocity": 0.5984251968503937,
          "duration": 0.056250000000005684
        },
        {
          "name": "F4",
          "midi": 65,
          "time": 78.125,
          "velocity": 0.5984251968503937,
          "duration": 0.056250000000005684
        },
        {
          "name": "F4",
          "midi": 65,
          "time": 78.1875,
          "velocity": 0.5984251968503937,
          "duration": 0.056250000000005684
        },
        {
          "name": "F4",
          "midi": 65,
          "time": 78.25,
          "velocity": 0.6062992125984252,
          "duration": 0.056250000000005684
        },
        {
          "name": "F4",
          "midi": 65,
          "time": 78.3125,
          "velocity": 0.6062992125984252,
          "duration": 0.056250000000005684
        },
        {
          "name": "F4",
          "midi": 65,
          "time": 78.375,
          "velocity": 0.6062992125984252,
          "duration": 0.056250000000005684
        },
        {
          "name": "F4",
          "midi": 65,
          "time": 78.4375,
          "velocity": 0.6062992125984252,
          "duration": 0.056250000000005684
        },
        {
          "name": "F4",
          "midi": 65,
          "time": 78.5,
          "velocity": 0.6062992125984252,
          "duration": 0.056250000000005684
        },
        {
          "name": "F4",
          "midi": 65,
          "time": 78.5625,
          "velocity": 0.6062992125984252,
          "duration": 0.056250000000005684
        },
        {
          "name": "F4",
          "midi": 65,
          "time": 78.625,
          "velocity": 0.6062992125984252,
          "duration": 0.056250000000005684
        },
        {
          "name": "F4",
          "midi": 65,
          "time": 78.6875,
          "velocity": 0.6062992125984252,
          "duration": 0.056250000000005684
        },
        {
          "name": "F4",
          "midi": 65,
          "time": 78.75,
          "velocity": 0.6062992125984252,
          "duration": 0.056250000000005684
        },
        {
          "name": "F4",
          "midi": 65,
          "time": 78.8125,
          "velocity": 0.6062992125984252,
          "duration": 0.056250000000005684
        },
        {
          "name": "F4",
          "midi": 65,
          "time": 78.875,
          "velocity": 0.6062992125984252,
          "duration": 0.056250000000005684
        },
        {
          "name": "F4",
          "midi": 65,
          "time": 78.9375,
          "velocity": 0.6062992125984252,
          "duration": 0.056250000000005684
        },
        {
          "name": "F4",
          "midi": 65,
          "time": 79,
          "velocity": 0.6062992125984252,
          "duration": 0.056250000000005684
        },
        {
          "name": "F4",
          "midi": 65,
          "time": 79.0625,
          "velocity": 0.6062992125984252,
          "duration": 0.056250000000005684
        },
        {
          "name": "F4",
          "midi": 65,
          "time": 79.125,
          "velocity": 0.6062992125984252,
          "duration": 0.056250000000005684
        },
        {
          "name": "F4",
          "midi": 65,
          "time": 79.1875,
          "velocity": 0.6062992125984252,
          "duration": 0.056250000000005684
        },
        {
          "name": "F4",
          "midi": 65,
          "time": 79.875,
          "velocity": 1,
          "duration": 0.3687500000000057
        },
        {
          "name": "G#4",
          "midi": 68,
          "time": 80.25,
          "velocity": 1,
          "duration": 0.3687500000000057
        },
        {
          "name": "B4",
          "midi": 71,
          "time": 80.625,
          "velocity": 1,
          "duration": 0.3687500000000057
        },
        {
          "name": "D5",
          "midi": 74,
          "time": 81,
          "velocity": 0.5905511811023622,
          "duration": 0.056250000000005684
        },
        {
          "name": "D5",
          "midi": 74,
          "time": 81.0625,
          "velocity": 0.5984251968503937,
          "duration": 0.056250000000005684
        },
        {
          "name": "D5",
          "midi": 74,
          "time": 81.125,
          "velocity": 0.5984251968503937,
          "duration": 0.056250000000005684
        },
        {
          "name": "D5",
          "midi": 74,
          "time": 81.1875,
          "velocity": 0.5984251968503937,
          "duration": 0.056250000000005684
        },
        {
          "name": "D5",
          "midi": 74,
          "time": 81.25,
          "velocity": 0.5984251968503937,
          "duration": 0.056250000000005684
        },
        {
          "name": "D5",
          "midi": 74,
          "time": 81.3125,
          "velocity": 0.5984251968503937,
          "duration": 0.056250000000005684
        },
        {
          "name": "D5",
          "midi": 74,
          "time": 81.375,
          "velocity": 0.5984251968503937,
          "duration": 0.056250000000005684
        },
        {
          "name": "D5",
          "midi": 74,
          "time": 81.4375,
          "velocity": 0.5984251968503937,
          "duration": 0.056250000000005684
        },
        {
          "name": "D5",
          "midi": 74,
          "time": 81.5,
          "velocity": 0.5905511811023622,
          "duration": 0.056250000000005684
        },
        {
          "name": "D5",
          "midi": 74,
          "time": 81.5625,
          "velocity": 0.5905511811023622,
          "duration": 0.056250000000005684
        },
        {
          "name": "D5",
          "midi": 74,
          "time": 81.625,
          "velocity": 0.5905511811023622,
          "duration": 0.056250000000005684
        },
        {
          "name": "D5",
          "midi": 74,
          "time": 81.6875,
          "velocity": 0.5905511811023622,
          "duration": 0.056250000000005684
        },
        {
          "name": "D5",
          "midi": 74,
          "time": 81.75,
          "velocity": 0.5905511811023622,
          "duration": 0.056250000000005684
        },
        {
          "name": "D5",
          "midi": 74,
          "time": 81.8125,
          "velocity": 0.5905511811023622,
          "duration": 0.056250000000005684
        },
        {
          "name": "D5",
          "midi": 74,
          "time": 81.875,
          "velocity": 0.5905511811023622,
          "duration": 0.056250000000005684
        },
        {
          "name": "D5",
          "midi": 74,
          "time": 81.9375,
          "velocity": 0.5984251968503937,
          "duration": 0.056250000000005684
        },
        {
          "name": "D5",
          "midi": 74,
          "time": 82,
          "velocity": 0.5984251968503937,
          "duration": 0.056250000000005684
        },
        {
          "name": "D5",
          "midi": 74,
          "time": 82.0625,
          "velocity": 0.5984251968503937,
          "duration": 0.056250000000005684
        },
        {
          "name": "D5",
          "midi": 74,
          "time": 82.125,
          "velocity": 0.5984251968503937,
          "duration": 0.056250000000005684
        },
        {
          "name": "D5",
          "midi": 74,
          "time": 82.1875,
          "velocity": 0.5984251968503937,
          "duration": 0.056250000000005684
        },
        {
          "name": "D5",
          "midi": 74,
          "time": 82.25,
          "velocity": 0.5984251968503937,
          "duration": 0.056250000000005684
        },
        {
          "name": "F4",
          "midi": 65,
          "time": 82.875,
          "velocity": 1,
          "duration": 0.3687500000000057
        },
        {
          "name": "G#4",
          "midi": 68,
          "time": 83.25,
          "velocity": 1,
          "duration": 0.3687500000000057
        },
        {
          "name": "B4",
          "midi": 71,
          "time": 83.625,
          "velocity": 1,
          "duration": 0.3687500000000057
        },
        {
          "name": "C5",
          "midi": 72,
          "time": 84,
          "velocity": 0.5669291338582677,
          "duration": 0.056250000000005684
        },
        {
          "name": "C5",
          "midi": 72,
          "time": 84.0625,
          "velocity": 0.5669291338582677,
          "duration": 0.056250000000005684
        },
        {
          "name": "C5",
          "midi": 72,
          "time": 84.125,
          "velocity": 0.5669291338582677,
          "duration": 0.056250000000005684
        },
        {
          "name": "C5",
          "midi": 72,
          "time": 84.1875,
          "velocity": 0.5669291338582677,
          "duration": 0.056250000000005684
        },
        {
          "name": "C5",
          "midi": 72,
          "time": 84.25,
          "velocity": 0.5669291338582677,
          "duration": 0.056250000000005684
        },
        {
          "name": "C5",
          "midi": 72,
          "time": 84.3125,
          "velocity": 0.5669291338582677,
          "duration": 0.056250000000005684
        },
        {
          "name": "C5",
          "midi": 72,
          "time": 84.375,
          "velocity": 0.5669291338582677,
          "duration": 0.056250000000005684
        },
        {
          "name": "C5",
          "midi": 72,
          "time": 84.4375,
          "velocity": 0.5669291338582677,
          "duration": 0.056250000000005684
        },
        {
          "name": "C5",
          "midi": 72,
          "time": 84.5,
          "velocity": 0.5669291338582677,
          "duration": 0.056250000000005684
        },
        {
          "name": "C5",
          "midi": 72,
          "time": 84.5625,
          "velocity": 0.5669291338582677,
          "duration": 0.056250000000005684
        },
        {
          "name": "C5",
          "midi": 72,
          "time": 84.625,
          "velocity": 0.5669291338582677,
          "duration": 0.056250000000005684
        },
        {
          "name": "C5",
          "midi": 72,
          "time": 84.6875,
          "velocity": 0.5669291338582677,
          "duration": 0.056250000000005684
        },
        {
          "name": "C5",
          "midi": 72,
          "time": 84.75,
          "velocity": 0.5669291338582677,
          "duration": 0.056250000000005684
        },
        {
          "name": "C5",
          "midi": 72,
          "time": 84.8125,
          "velocity": 0.5669291338582677,
          "duration": 0.056250000000005684
        },
        {
          "name": "C5",
          "midi": 72,
          "time": 84.875,
          "velocity": 0.5669291338582677,
          "duration": 0.056250000000005684
        },
        {
          "name": "C5",
          "midi": 72,
          "time": 84.9375,
          "velocity": 0.5669291338582677,
          "duration": 0.056250000000005684
        },
        {
          "name": "C5",
          "midi": 72,
          "time": 85,
          "velocity": 0.5748031496062992,
          "duration": 0.056250000000005684
        },
        {
          "name": "C5",
          "midi": 72,
          "time": 85.0625,
          "velocity": 0.5826771653543307,
          "duration": 0.056250000000005684
        },
        {
          "name": "C5",
          "midi": 72,
          "time": 85.125,
          "velocity": 0.5905511811023622,
          "duration": 0.056250000000005684
        },
        {
          "name": "C5",
          "midi": 72,
          "time": 85.1875,
          "velocity": 0.5905511811023622,
          "duration": 0.056250000000005684
        },
        {
          "name": "C5",
          "midi": 72,
          "time": 85.25,
          "velocity": 0.5984251968503937,
          "duration": 0.056250000000005684
        },
        {
          "name": "C4",
          "midi": 60,
          "time": 85.875,
          "velocity": 0.9763779527559056,
          "duration": 0.3687500000000057
        },
        {
          "name": "D#4",
          "midi": 63,
          "time": 86.25,
          "velocity": 0.9921259842519685,
          "duration": 0.3687500000000057
        },
        {
          "name": "A#4",
          "midi": 70,
          "time": 86.625,
          "velocity": 0.9921259842519685,
          "duration": 0.3687500000000057
        },
        {
          "name": "G#4",
          "midi": 68,
          "time": 87,
          "velocity": 0.984251968503937,
          "duration": 0.3687500000000057
        },
        {
          "name": "G4",
          "midi": 67,
          "time": 87.375,
          "velocity": 1,
          "duration": 0.7437500000000057
        },
        {
          "name": "A#4",
          "midi": 70,
          "time": 88,
          "velocity": 0.968503937007874,
          "duration": 0.25
        },
        {
          "name": "G#4",
          "midi": 68,
          "time": 88.25,
          "velocity": 1,
          "duration": 0.25
        },
        {
          "name": "G#4",
          "midi": 68,
          "time": 88.5,
          "velocity": 1,
          "duration": 0.3687500000000057
        },
        {
          "name": "G4",
          "midi": 67,
          "time": 88.875,
          "velocity": 1,
          "duration": 0.3687500000000057
        },
        {
          "name": "G4",
          "midi": 67,
          "time": 89.25,
          "velocity": 0.9763779527559056,
          "duration": 0.3687500000000057
        },
        {
          "name": "B3",
          "midi": 59,
          "time": 89.625,
          "velocity": 1,
          "duration": 0.3687500000000057
        },
        {
          "name": "C4",
          "midi": 60,
          "time": 90,
          "velocity": 0.5826771653543307,
          "duration": 0.056250000000005684
        },
        {
          "name": "C4",
          "midi": 60,
          "time": 90.0625,
          "velocity": 0.5826771653543307,
          "duration": 0.056250000000005684
        },
        {
          "name": "C4",
          "midi": 60,
          "time": 90.125,
          "velocity": 0.5826771653543307,
          "duration": 0.056250000000005684
        },
        {
          "name": "C4",
          "midi": 60,
          "time": 90.1875,
          "velocity": 0.5826771653543307,
          "duration": 0.056250000000005684
        },
        {
          "name": "C4",
          "midi": 60,
          "time": 90.25,
          "velocity": 0.5826771653543307,
          "duration": 0.056250000000005684
        },
        {
          "name": "C4",
          "midi": 60,
          "time": 90.3125,
          "velocity": 0.5826771653543307,
          "duration": 0.056250000000005684
        },
        {
          "name": "C4",
          "midi": 60,
          "time": 90.375,
          "velocity": 0.5826771653543307,
          "duration": 0.056250000000005684
        },
        {
          "name": "C4",
          "midi": 60,
          "time": 90.4375,
          "velocity": 0.5826771653543307,
          "duration": 0.056250000000005684
        },
        {
          "name": "C4",
          "midi": 60,
          "time": 90.5,
          "velocity": 0.5826771653543307,
          "duration": 0.056250000000005684
        },
        {
          "name": "C4",
          "midi": 60,
          "time": 90.5625,
          "velocity": 0.5826771653543307,
          "duration": 0.056250000000005684
        },
        {
          "name": "C4",
          "midi": 60,
          "time": 90.625,
          "velocity": 0.5826771653543307,
          "duration": 0.056250000000005684
        },
        {
          "name": "C4",
          "midi": 60,
          "time": 90.6875,
          "velocity": 0.5826771653543307,
          "duration": 0.056250000000005684
        },
        {
          "name": "C4",
          "midi": 60,
          "time": 90.75,
          "velocity": 0.5826771653543307,
          "duration": 0.056250000000005684
        },
        {
          "name": "C4",
          "midi": 60,
          "time": 90.8125,
          "velocity": 0.5826771653543307,
          "duration": 0.056250000000005684
        },
        {
          "name": "C4",
          "midi": 60,
          "time": 90.875,
          "velocity": 0.5826771653543307,
          "duration": 0.056250000000005684
        },
        {
          "name": "C4",
          "midi": 60,
          "time": 90.9375,
          "velocity": 0.5826771653543307,
          "duration": 0.056250000000005684
        },
        {
          "name": "C4",
          "midi": 60,
          "time": 91,
          "velocity": 0.5905511811023622,
          "duration": 0.056250000000005684
        },
        {
          "name": "C4",
          "midi": 60,
          "time": 91.0625,
          "velocity": 0.5984251968503937,
          "duration": 0.056250000000005684
        },
        {
          "name": "C4",
          "midi": 60,
          "time": 91.125,
          "velocity": 0.5984251968503937,
          "duration": 0.056250000000005684
        },
        {
          "name": "C4",
          "midi": 60,
          "time": 91.1875,
          "velocity": 0.5984251968503937,
          "duration": 0.056250000000005684
        },
        {
          "name": "C4",
          "midi": 60,
          "time": 91.25,
          "velocity": 0.5984251968503937,
          "duration": 0.056250000000005684
        },
        {
          "name": "C4",
          "midi": 60,
          "time": 126,
          "velocity": 0.33070866141732286,
          "duration": 0.056250000000005684
        },
        {
          "name": "C4",
          "midi": 60,
          "time": 126.0625,
          "velocity": 0.33070866141732286,
          "duration": 0.056250000000005684
        },
        {
          "name": "C4",
          "midi": 60,
          "time": 126.125,
          "velocity": 0.3228346456692913,
          "duration": 0.056250000000005684
        },
        {
          "name": "C4",
          "midi": 60,
          "time": 126.1875,
          "velocity": 0.3228346456692913,
          "duration": 0.056250000000005684
        },
        {
          "name": "C4",
          "midi": 60,
          "time": 126.25,
          "velocity": 0.33070866141732286,
          "duration": 0.056250000000005684
        },
        {
          "name": "C4",
          "midi": 60,
          "time": 126.3125,
          "velocity": 0.33070866141732286,
          "duration": 0.056250000000005684
        },
        {
          "name": "C4",
          "midi": 60,
          "time": 126.375,
          "velocity": 0.33070866141732286,
          "duration": 0.056250000000005684
        },
        {
          "name": "C4",
          "midi": 60,
          "time": 126.4375,
          "velocity": 0.33070866141732286,
          "duration": 0.056250000000005684
        },
        {
          "name": "C4",
          "midi": 60,
          "time": 126.5,
          "velocity": 0.33070866141732286,
          "duration": 0.056250000000005684
        },
        {
          "name": "C4",
          "midi": 60,
          "time": 126.5625,
          "velocity": 0.33070866141732286,
          "duration": 0.056250000000005684
        },
        {
          "name": "C4",
          "midi": 60,
          "time": 126.625,
          "velocity": 0.3228346456692913,
          "duration": 0.056250000000005684
        },
        {
          "name": "C4",
          "midi": 60,
          "time": 126.6875,
          "velocity": 0.3228346456692913,
          "duration": 0.056250000000005684
        },
        {
          "name": "C4",
          "midi": 60,
          "time": 126.75,
          "velocity": 0.3228346456692913,
          "duration": 0.056250000000005684
        },
        {
          "name": "C4",
          "midi": 60,
          "time": 126.8125,
          "velocity": 0.3228346456692913,
          "duration": 0.056250000000005684
        },
        {
          "name": "C4",
          "midi": 60,
          "time": 126.875,
          "velocity": 0.3228346456692913,
          "duration": 0.056250000000005684
        },
        {
          "name": "C4",
          "midi": 60,
          "time": 126.9375,
          "velocity": 0.31496062992125984,
          "duration": 0.056250000000005684
        },
        {
          "name": "C4",
          "midi": 60,
          "time": 127,
          "velocity": 0.30708661417322836,
          "duration": 0.056250000000005684
        },
        {
          "name": "C4",
          "midi": 60,
          "time": 127.0625,
          "velocity": 0.30708661417322836,
          "duration": 0.056250000000005684
        },
        {
          "name": "C4",
          "midi": 60,
          "time": 127.125,
          "velocity": 0.30708661417322836,
          "duration": 0.056250000000005684
        },
        {
          "name": "C4",
          "midi": 60,
          "time": 127.1875,
          "velocity": 0.30708661417322836,
          "duration": 0.056250000000005684
        },
        {
          "name": "C4",
          "midi": 60,
          "time": 127.25,
          "velocity": 0.30708661417322836,
          "duration": 0.056250000000005684
        },
        {
          "name": "C4",
          "midi": 60,
          "time": 127.3125,
          "velocity": 0.30708661417322836,
          "duration": 0.056250000000005684
        },
        {
          "name": "C4",
          "midi": 60,
          "time": 127.375,
          "velocity": 0.30708661417322836,
          "duration": 0.056250000000005684
        },
        {
          "name": "C4",
          "midi": 60,
          "time": 127.4375,
          "velocity": 0.30708661417322836,
          "duration": 0.056250000000005684
        },
        {
          "name": "C4",
          "midi": 60,
          "time": 127.5,
          "velocity": 0.30708661417322836,
          "duration": 0.056250000000005684
        },
        {
          "name": "C4",
          "midi": 60,
          "time": 127.5625,
          "velocity": 0.30708661417322836,
          "duration": 0.056250000000005684
        },
        {
          "name": "C4",
          "midi": 60,
          "time": 127.625,
          "velocity": 0.30708661417322836,
          "duration": 0.056250000000005684
        },
        {
          "name": "C4",
          "midi": 60,
          "time": 127.6875,
          "velocity": 0.30708661417322836,
          "duration": 0.056250000000005684
        },
        {
          "name": "C4",
          "midi": 60,
          "time": 127.75,
          "velocity": 0.30708661417322836,
          "duration": 0.056250000000005684
        },
        {
          "name": "C4",
          "midi": 60,
          "time": 127.8125,
          "velocity": 0.30708661417322836,
          "duration": 0.056250000000005684
        },
        {
          "name": "C4",
          "midi": 60,
          "time": 127.875,
          "velocity": 0.30708661417322836,
          "duration": 0.056250000000005684
        },
        {
          "name": "C4",
          "midi": 60,
          "time": 127.9375,
          "velocity": 0.30708661417322836,
          "duration": 0.056250000000005684
        },
        {
          "name": "C4",
          "midi": 60,
          "time": 128,
          "velocity": 0.30708661417322836,
          "duration": 0.056250000000005684
        },
        {
          "name": "C4",
          "midi": 60,
          "time": 128.0625,
          "velocity": 0.30708661417322836,
          "duration": 0.056250000000005684
        },
        {
          "name": "C4",
          "midi": 60,
          "time": 128.125,
          "velocity": 0.30708661417322836,
          "duration": 0.056250000000005684
        },
        {
          "name": "C4",
          "midi": 60,
          "time": 128.1875,
          "velocity": 0.30708661417322836,
          "duration": 0.056250000000005684
        },
        {
          "name": "C4",
          "midi": 60,
          "time": 128.25,
          "velocity": 0.30708661417322836,
          "duration": 0.056250000000005684
        },
        {
          "name": "C4",
          "midi": 60,
          "time": 128.3125,
          "velocity": 0.30708661417322836,
          "duration": 0.056250000000005684
        },
        {
          "name": "C4",
          "midi": 60,
          "time": 128.375,
          "velocity": 0.30708661417322836,
          "duration": 0.056250000000005684
        },
        {
          "name": "C4",
          "midi": 60,
          "time": 128.4375,
          "velocity": 0.30708661417322836,
          "duration": 0.056250000000005684
        },
        {
          "name": "C4",
          "midi": 60,
          "time": 128.5,
          "velocity": 0.30708661417322836,
          "duration": 0.056250000000005684
        },
        {
          "name": "C4",
          "midi": 60,
          "time": 128.5625,
          "velocity": 0.30708661417322836,
          "duration": 0.056250000000005684
        },
        {
          "name": "C4",
          "midi": 60,
          "time": 128.625,
          "velocity": 0.30708661417322836,
          "duration": 0.056250000000005684
        },
        {
          "name": "C4",
          "midi": 60,
          "time": 128.6875,
          "velocity": 0.30708661417322836,
          "duration": 0.056250000000005684
        },
        {
          "name": "C4",
          "midi": 60,
          "time": 128.75,
          "velocity": 0.30708661417322836,
          "duration": 0.056250000000005684
        },
        {
          "name": "C4",
          "midi": 60,
          "time": 128.8125,
          "velocity": 0.30708661417322836,
          "duration": 0.056250000000005684
        },
        {
          "name": "C4",
          "midi": 60,
          "time": 128.875,
          "velocity": 0.30708661417322836,
          "duration": 0.056250000000005684
        },
        {
          "name": "C4",
          "midi": 60,
          "time": 128.9375,
          "velocity": 0.30708661417322836,
          "duration": 0.056250000000005684
        }
      ],
      "controlChanges": {
        "7": [
          {
            "number": 7,
            "time": 0,
            "value": 0.8661417322834646
          }
        ],
        "10": [
          {
            "number": 10,
            "time": 0,
            "value": 0
          }
        ],
        "64": [
          {
            "number": 64,
            "time": 0,
            "value": 0
          }
        ]
      }
    },
    {
      "startTime": 3,
      "duration": 128.99375,
      "length": 215,
      "id": 5,
      "name": "STRINGLOW",
      "instrumentNumber": 48,
      "instrument": "string ensemble 1",
      "instrumentFamily": "ensemble",
      "channelNumber": 4,
      "isPercussion": false,
      "notes": [
        {
          "name": "G3",
          "midi": 55,
          "time": 3,
          "velocity": 0.952755905511811,
          "duration": 1.4937500000000004
        },
        {
          "name": "C3",
          "midi": 48,
          "time": 3,
          "velocity": 0.952755905511811,
          "duration": 1.4937500000000004
        },
        {
          "name": "G#3",
          "midi": 56,
          "time": 4.5,
          "velocity": 0.9763779527559056,
          "duration": 1.4937500000000004
        },
        {
          "name": "C3",
          "midi": 48,
          "time": 4.5,
          "velocity": 0.9763779527559056,
          "duration": 1.4937500000000004
        },
        {
          "name": "G3",
          "midi": 55,
          "time": 6,
          "velocity": 1,
          "duration": 1.4937500000000004
        },
        {
          "name": "C3",
          "midi": 48,
          "time": 6,
          "velocity": 1,
          "duration": 1.4937500000000004
        },
        {
          "name": "G#3",
          "midi": 56,
          "time": 7.5,
          "velocity": 0.984251968503937,
          "duration": 1.125
        },
        {
          "name": "C3",
          "midi": 48,
          "time": 7.5,
          "velocity": 0.984251968503937,
          "duration": 1.125
        },
        {
          "name": "C3",
          "midi": 48,
          "time": 9,
          "velocity": 0.9921259842519685,
          "duration": 1.4937500000000004
        },
        {
          "name": "G3",
          "midi": 55,
          "time": 9,
          "velocity": 0.9921259842519685,
          "duration": 1.4937500000000004
        },
        {
          "name": "C3",
          "midi": 48,
          "time": 10.5,
          "velocity": 1,
          "duration": 1.4937500000000004
        },
        {
          "name": "G#3",
          "midi": 56,
          "time": 10.5,
          "velocity": 1,
          "duration": 1.4937500000000004
        },
        {
          "name": "C3",
          "midi": 48,
          "time": 12,
          "velocity": 0.9921259842519685,
          "duration": 2.9937500000000004
        },
        {
          "name": "G3",
          "midi": 55,
          "time": 12,
          "velocity": 0.9921259842519685,
          "duration": 0.7437500000000004
        },
        {
          "name": "F3",
          "midi": 53,
          "time": 12.75,
          "velocity": 1,
          "duration": 0.7437500000000004
        },
        {
          "name": "D#3",
          "midi": 51,
          "time": 13.5,
          "velocity": 0.984251968503937,
          "duration": 1.4937500000000004
        },
        {
          "name": "C3",
          "midi": 48,
          "time": 15,
          "velocity": 1,
          "duration": 1.4937499999999986
        },
        {
          "name": "G3",
          "midi": 55,
          "time": 15,
          "velocity": 1,
          "duration": 1.4937499999999986
        },
        {
          "name": "D#3",
          "midi": 51,
          "time": 16.5,
          "velocity": 1,
          "duration": 0.7437499999999986
        },
        {
          "name": "C4",
          "midi": 60,
          "time": 16.5,
          "velocity": 1,
          "duration": 0.7437499999999986
        },
        {
          "name": "D#3",
          "midi": 51,
          "time": 17.25,
          "velocity": 1,
          "duration": 0.7437499999999986
        },
        {
          "name": "F3",
          "midi": 53,
          "time": 18,
          "velocity": 0.9921259842519685,
          "duration": 0.7437499999999986
        },
        {
          "name": "G#3",
          "midi": 56,
          "time": 18,
          "velocity": 0.9921259842519685,
          "duration": 2.2437499999999986
        },
        {
          "name": "C3",
          "midi": 48,
          "time": 18.75,
          "velocity": 1,
          "duration": 0.7437499999999986
        },
        {
          "name": "F3",
          "midi": 53,
          "time": 19.5,
          "velocity": 0.9763779527559056,
          "duration": 0.7437499999999986
        },
        {
          "name": "C3",
          "midi": 48,
          "time": 20.25,
          "velocity": 1,
          "duration": 0.3687499999999986
        },
        {
          "name": "D3",
          "midi": 50,
          "time": 20.625,
          "velocity": 1,
          "duration": 0.3687499999999986
        },
        {
          "name": "F2",
          "midi": 41,
          "time": 21,
          "velocity": 0.9606299212598425,
          "duration": 2.2437499999999986
        },
        {
          "name": "C3",
          "midi": 48,
          "time": 21.375,
          "velocity": 0.9606299212598425,
          "duration": 0.3687499999999986
        },
        {
          "name": "F3",
          "midi": 53,
          "time": 21.75,
          "velocity": 0.9606299212598425,
          "duration": 0.3687499999999986
        },
        {
          "name": "G#3",
          "midi": 56,
          "time": 22.125,
          "velocity": 0.9606299212598425,
          "duration": 0.3687499999999986
        },
        {
          "name": "C4",
          "midi": 60,
          "time": 22.5,
          "velocity": 0.9606299212598425,
          "duration": 0.7437499999999986
        },
        {
          "name": "C3",
          "midi": 48,
          "time": 23.25,
          "velocity": 0.9606299212598425,
          "duration": 0.3687499999999986
        },
        {
          "name": "D3",
          "midi": 50,
          "time": 23.625,
          "velocity": 0.9606299212598425,
          "duration": 0.3687499999999986
        },
        {
          "name": "C2",
          "midi": 36,
          "time": 24,
          "velocity": 0.9921259842519685,
          "duration": 1.875
        },
        {
          "name": "G2",
          "midi": 43,
          "time": 24.375,
          "velocity": 0.9921259842519685,
          "duration": 0.3687499999999986
        },
        {
          "name": "C3",
          "midi": 48,
          "time": 24.75,
          "velocity": 0.9921259842519685,
          "duration": 0.3687499999999986
        },
        {
          "name": "D#3",
          "midi": 51,
          "time": 25.125,
          "velocity": 0.9921259842519685,
          "duration": 0.3687499999999986
        },
        {
          "name": "G3",
          "midi": 55,
          "time": 25.5,
          "velocity": 1,
          "duration": 1.125
        },
        {
          "name": "G3",
          "midi": 55,
          "time": 27,
          "velocity": 1,
          "duration": 1.4937499999999986
        },
        {
          "name": "G2",
          "midi": 43,
          "time": 27,
          "velocity": 1,
          "duration": 1.4937499999999986
        },
        {
          "name": "F3",
          "midi": 53,
          "time": 28.5,
          "velocity": 0.9448818897637795,
          "duration": 1.4937499999999986
        },
        {
          "name": "G2",
          "midi": 43,
          "time": 28.5,
          "velocity": 0.9448818897637795,
          "duration": 1.4937499999999986
        },
        {
          "name": "D#3",
          "midi": 51,
          "time": 30,
          "velocity": 0.9448818897637795,
          "duration": 1.875
        },
        {
          "name": "C3",
          "midi": 48,
          "time": 30,
          "velocity": 0.9448818897637795,
          "duration": 0.7437499999999986
        },
        {
          "name": "G2",
          "midi": 43,
          "time": 30.75,
          "velocity": 0.9448818897637795,
          "duration": 0.7437499999999986
        },
        {
          "name": "C2",
          "midi": 36,
          "time": 31.5,
          "velocity": 0.952755905511811,
          "duration": 1.1187499999999986
        },
        {
          "name": "D3",
          "midi": 50,
          "time": 33,
          "velocity": 0.952755905511811,
          "duration": 1.4937499999999986
        },
        {
          "name": "F3",
          "midi": 53,
          "time": 33.25,
          "velocity": 0.968503937007874,
          "duration": 0.24374999999999858
        },
        {
          "name": "A#3",
          "midi": 58,
          "time": 33.5,
          "velocity": 0.968503937007874,
          "duration": 0.24374999999999858
        },
        {
          "name": "F3",
          "midi": 53,
          "time": 33.75,
          "velocity": 0.968503937007874,
          "duration": 0.7437499999999986
        },
        {
          "name": "A#2",
          "midi": 46,
          "time": 34.5,
          "velocity": 0.952755905511811,
          "duration": 1.4937499999999986
        },
        {
          "name": "F3",
          "midi": 53,
          "time": 34.75,
          "velocity": 0.968503937007874,
          "duration": 0.24374999999999858
        },
        {
          "name": "G#3",
          "midi": 56,
          "time": 35,
          "velocity": 0.9448818897637795,
          "duration": 0.24374999999999858
        },
        {
          "name": "A#3",
          "midi": 58,
          "time": 35.25,
          "velocity": 0.952755905511811,
          "duration": 0.7437499999999986
        },
        {
          "name": "D#2",
          "midi": 39,
          "time": 36,
          "velocity": 0.9606299212598425,
          "duration": 1.4937499999999986
        },
        {
          "name": "A#2",
          "midi": 46,
          "time": 36.375,
          "velocity": 0.984251968503937,
          "duration": 1.1187499999999986
        },
        {
          "name": "D#2",
          "midi": 39,
          "time": 37.5,
          "velocity": 0.9763779527559056,
          "duration": 1.4937499999999986
        },
        {
          "name": "D#3",
          "midi": 51,
          "time": 37.875,
          "velocity": 0.968503937007874,
          "duration": 0.3687499999999986
        },
        {
          "name": "G3",
          "midi": 55,
          "time": 38.25,
          "velocity": 0.968503937007874,
          "duration": 0.3687499999999986
        },
        {
          "name": "D#3",
          "midi": 51,
          "time": 38.625,
          "velocity": 0.968503937007874,
          "duration": 0.3687499999999986
        },
        {
          "name": "F2",
          "midi": 41,
          "time": 39,
          "velocity": 0.9606299212598425,
          "duration": 1.4937499999999986
        },
        {
          "name": "C#3",
          "midi": 49,
          "time": 39.25,
          "velocity": 0.9606299212598425,
          "duration": 0.24374999999999858
        },
        {
          "name": "F3",
          "midi": 53,
          "time": 39.5,
          "velocity": 0.9606299212598425,
          "duration": 0.24374999999999858
        },
        {
          "name": "G#3",
          "midi": 56,
          "time": 39.75,
          "velocity": 0.9606299212598425,
          "duration": 0.7437499999999986
        },
        {
          "name": "G#2",
          "midi": 44,
          "time": 40.5,
          "velocity": 1,
          "duration": 1.4937499999999986
        },
        {
          "name": "D3",
          "midi": 50,
          "time": 40.75,
          "velocity": 1,
          "duration": 0.24374999999999858
        },
        {
          "name": "F3",
          "midi": 53,
          "time": 41,
          "velocity": 1,
          "duration": 0.24374999999999858
        },
        {
          "name": "G#3",
          "midi": 56,
          "time": 41.25,
          "velocity": 1,
          "duration": 0.7437499999999986
        },
        {
          "name": "G2",
          "midi": 43,
          "time": 42,
          "velocity": 0.968503937007874,
          "duration": 2.9937499999999986
        },
        {
          "name": "D3",
          "midi": 50,
          "time": 42.375,
          "velocity": 0.968503937007874,
          "duration": 0.3687499999999986
        },
        {
          "name": "G3",
          "midi": 55,
          "time": 42.75,
          "velocity": 0.9606299212598425,
          "duration": 0.3687499999999986
        },
        {
          "name": "D3",
          "midi": 50,
          "time": 43.125,
          "velocity": 0.984251968503937,
          "duration": 0.3687499999999986
        },
        {
          "name": "G3",
          "midi": 55,
          "time": 43.5,
          "velocity": 0.984251968503937,
          "duration": 0.3687499999999986
        },
        {
          "name": "C3",
          "midi": 48,
          "time": 45,
          "velocity": 1,
          "duration": 1.4937499999999986
        },
        {
          "name": "G3",
          "midi": 55,
          "time": 45,
          "velocity": 1,
          "duration": 1.4937499999999986
        },
        {
          "name": "C3",
          "midi": 48,
          "time": 46.5,
          "velocity": 0.968503937007874,
          "duration": 1.4937499999999986
        },
        {
          "name": "G#3",
          "midi": 56,
          "time": 46.5,
          "velocity": 0.968503937007874,
          "duration": 1.4937499999999986
        },
        {
          "name": "C3",
          "midi": 48,
          "time": 48,
          "velocity": 0.9921259842519685,
          "duration": 2.9937499999999986
        },
        {
          "name": "G3",
          "midi": 55,
          "time": 48,
          "velocity": 0.9921259842519685,
          "duration": 0.7437499999999986
        },
        {
          "name": "F3",
          "midi": 53,
          "time": 48.75,
          "velocity": 0.9921259842519685,
          "duration": 0.7437499999999986
        },
        {
          "name": "D#3",
          "midi": 51,
          "time": 49.5,
          "velocity": 1,
          "duration": 1.4937499999999986
        },
        {
          "name": "C3",
          "midi": 48,
          "time": 51,
          "velocity": 0.9763779527559056,
          "duration": 1.4937499999999986
        },
        {
          "name": "G3",
          "midi": 55,
          "time": 51,
          "velocity": 0.9763779527559056,
          "duration": 1.4937499999999986
        },
        {
          "name": "C3",
          "midi": 48,
          "time": 52.5,
          "velocity": 1,
          "duration": 1.4937499999999986
        },
        {
          "name": "G#3",
          "midi": 56,
          "time": 52.5,
          "velocity": 1,
          "duration": 0.7437499999999986
        },
        {
          "name": "D#3",
          "midi": 51,
          "time": 53.25,
          "velocity": 0.9763779527559056,
          "duration": 0.7437499999999986
        },
        {
          "name": "C3",
          "midi": 48,
          "time": 54,
          "velocity": 1,
          "duration": 2.2437499999999986
        },
        {
          "name": "G#3",
          "midi": 56,
          "time": 54,
          "velocity": 1,
          "duration": 0.7437499999999986
        },
        {
          "name": "G3",
          "midi": 55,
          "time": 54.75,
          "velocity": 0.9763779527559056,
          "duration": 0.7437499999999986
        },
        {
          "name": "G#3",
          "midi": 56,
          "time": 55.5,
          "velocity": 0.9921259842519685,
          "duration": 0.7437499999999986
        },
        {
          "name": "C3",
          "midi": 48,
          "time": 56.25,
          "velocity": 0.9763779527559056,
          "duration": 0.3687499999999986
        },
        {
          "name": "D3",
          "midi": 50,
          "time": 56.625,
          "velocity": 0.9921259842519685,
          "duration": 0.3687499999999986
        },
        {
          "name": "F2",
          "midi": 41,
          "time": 57,
          "velocity": 1,
          "duration": 2.2437499999999986
        },
        {
          "name": "C3",
          "midi": 48,
          "time": 57.375,
          "velocity": 1,
          "duration": 0.3687499999999986
        },
        {
          "name": "F3",
          "midi": 53,
          "time": 57.75,
          "velocity": 1,
          "duration": 0.3687499999999986
        },
        {
          "name": "G#3",
          "midi": 56,
          "time": 58.125,
          "velocity": 1,
          "duration": 0.3687499999999986
        },
        {
          "name": "C4",
          "midi": 60,
          "time": 58.5,
          "velocity": 0.968503937007874,
          "duration": 0.7437499999999986
        },
        {
          "name": "C3",
          "midi": 48,
          "time": 59.25,
          "velocity": 0.984251968503937,
          "duration": 0.3687499999999986
        },
        {
          "name": "D3",
          "midi": 50,
          "time": 59.625,
          "velocity": 0.984251968503937,
          "duration": 0.3687499999999986
        },
        {
          "name": "C2",
          "midi": 36,
          "time": 60,
          "velocity": 0.968503937007874,
          "duration": 2.2437499999999986
        },
        {
          "name": "G2",
          "midi": 43,
          "time": 60.375,
          "velocity": 0.968503937007874,
          "duration": 0.3687499999999986
        },
        {
          "name": "C3",
          "midi": 48,
          "time": 60.75,
          "velocity": 0.968503937007874,
          "duration": 0.3687499999999986
        },
        {
          "name": "D#3",
          "midi": 51,
          "time": 61.125,
          "velocity": 0.968503937007874,
          "duration": 0.3687499999999986
        },
        {
          "name": "G3",
          "midi": 55,
          "time": 61.5,
          "velocity": 0.984251968503937,
          "duration": 0.7437499999999986
        },
        {
          "name": "G3",
          "midi": 55,
          "time": 63,
          "velocity": 1,
          "duration": 1.4937500000000057
        },
        {
          "name": "G2",
          "midi": 43,
          "time": 63,
          "velocity": 1,
          "duration": 1.4937500000000057
        },
        {
          "name": "G3",
          "midi": 55,
          "time": 64.5,
          "velocity": 1,
          "duration": 1.4937500000000057
        },
        {
          "name": "G2",
          "midi": 43,
          "time": 64.5,
          "velocity": 1,
          "duration": 1.4937500000000057
        },
        {
          "name": "C2",
          "midi": 36,
          "time": 66,
          "velocity": 1,
          "duration": 0.7437500000000057
        },
        {
          "name": "C3",
          "midi": 48,
          "time": 66,
          "velocity": 1,
          "duration": 0.7437500000000057
        },
        {
          "name": "G2",
          "midi": 43,
          "time": 66.75,
          "velocity": 1,
          "duration": 0.7437500000000057
        },
        {
          "name": "C2",
          "midi": 36,
          "time": 67.5,
          "velocity": 0.968503937007874,
          "duration": 0.7437500000000057
        },
        {
          "name": "C3",
          "midi": 48,
          "time": 69,
          "velocity": 0.984251968503937,
          "duration": 1.4937500000000057
        },
        {
          "name": "G3",
          "midi": 55,
          "time": 69,
          "velocity": 0.984251968503937,
          "duration": 1.4937500000000057
        },
        {
          "name": "C3",
          "midi": 48,
          "time": 70.5,
          "velocity": 1,
          "duration": 1.4937500000000057
        },
        {
          "name": "G#3",
          "midi": 56,
          "time": 70.5,
          "velocity": 1,
          "duration": 1.4937500000000057
        },
        {
          "name": "C3",
          "midi": 48,
          "time": 72,
          "velocity": 1,
          "duration": 2.9937500000000057
        },
        {
          "name": "G3",
          "midi": 55,
          "time": 72,
          "velocity": 1,
          "duration": 0.7437500000000057
        },
        {
          "name": "F3",
          "midi": 53,
          "time": 72.75,
          "velocity": 1,
          "duration": 0.7437500000000057
        },
        {
          "name": "D#3",
          "midi": 51,
          "time": 73.5,
          "velocity": 1,
          "duration": 1.4937500000000057
        },
        {
          "name": "C3",
          "midi": 48,
          "time": 75,
          "velocity": 1,
          "duration": 1.4937500000000057
        },
        {
          "name": "G3",
          "midi": 55,
          "time": 75,
          "velocity": 1,
          "duration": 1.4937500000000057
        },
        {
          "name": "D#3",
          "midi": 51,
          "time": 76.5,
          "velocity": 0.9921259842519685,
          "duration": 0.7437500000000057
        },
        {
          "name": "C4",
          "midi": 60,
          "time": 76.5,
          "velocity": 0.9921259842519685,
          "duration": 0.7437500000000057
        },
        {
          "name": "D#3",
          "midi": 51,
          "time": 77.25,
          "velocity": 1,
          "duration": 0.7437500000000057
        },
        {
          "name": "F3",
          "midi": 53,
          "time": 78,
          "velocity": 1,
          "duration": 0.7437500000000057
        },
        {
          "name": "G#3",
          "midi": 56,
          "time": 78,
          "velocity": 1,
          "duration": 2.2437500000000057
        },
        {
          "name": "C3",
          "midi": 48,
          "time": 78.75,
          "velocity": 1,
          "duration": 0.7437500000000057
        },
        {
          "name": "F3",
          "midi": 53,
          "time": 79.5,
          "velocity": 1,
          "duration": 0.7437500000000057
        },
        {
          "name": "C3",
          "midi": 48,
          "time": 80.25,
          "velocity": 1,
          "duration": 0.3687500000000057
        },
        {
          "name": "D3",
          "midi": 50,
          "time": 80.625,
          "velocity": 1,
          "duration": 0.3687500000000057
        },
        {
          "name": "F2",
          "midi": 41,
          "time": 81,
          "velocity": 1,
          "duration": 2.2437500000000057
        },
        {
          "name": "C3",
          "midi": 48,
          "time": 81.375,
          "velocity": 1,
          "duration": 0.3687500000000057
        },
        {
          "name": "F3",
          "midi": 53,
          "time": 81.75,
          "velocity": 0.9606299212598425,
          "duration": 0.3687500000000057
        },
        {
          "name": "G#3",
          "midi": 56,
          "time": 82.125,
          "velocity": 0.984251968503937,
          "duration": 0.3687500000000057
        },
        {
          "name": "C4",
          "midi": 60,
          "time": 82.5,
          "velocity": 1,
          "duration": 0.7437500000000057
        },
        {
          "name": "C3",
          "midi": 48,
          "time": 83.25,
          "velocity": 0.984251968503937,
          "duration": 0.3687500000000057
        },
        {
          "name": "D3",
          "midi": 50,
          "time": 83.625,
          "velocity": 0.9921259842519685,
          "duration": 0.3687500000000057
        },
        {
          "name": "C2",
          "midi": 36,
          "time": 84,
          "velocity": 1,
          "duration": 1.875
        },
        {
          "name": "G2",
          "midi": 43,
          "time": 84.375,
          "velocity": 1,
          "duration": 0.3687500000000057
        },
        {
          "name": "C3",
          "midi": 48,
          "time": 84.75,
          "velocity": 0.968503937007874,
          "duration": 0.3687500000000057
        },
        {
          "name": "D#3",
          "midi": 51,
          "time": 85.125,
          "velocity": 0.968503937007874,
          "duration": 0.3687500000000057
        },
        {
          "name": "G3",
          "midi": 55,
          "time": 85.5,
          "velocity": 0.968503937007874,
          "duration": 1.125
        },
        {
          "name": "G3",
          "midi": 55,
          "time": 87,
          "velocity": 0.9921259842519685,
          "duration": 1.4937500000000057
        },
        {
          "name": "G2",
          "midi": 43,
          "time": 87,
          "velocity": 0.9921259842519685,
          "duration": 1.4937500000000057
        },
        {
          "name": "F3",
          "midi": 53,
          "time": 88.5,
          "velocity": 0.984251968503937,
          "duration": 1.4937500000000057
        },
        {
          "name": "G2",
          "midi": 43,
          "time": 88.5,
          "velocity": 0.984251968503937,
          "duration": 1.4937500000000057
        },
        {
          "name": "D#3",
          "midi": 51,
          "time": 90,
          "velocity": 1,
          "duration": 1.875
        },
        {
          "name": "C3",
          "midi": 48,
          "time": 90,
          "velocity": 1,
          "duration": 0.7437500000000057
        },
        {
          "name": "G2",
          "midi": 43,
          "time": 90.75,
          "velocity": 1,
          "duration": 0.7437500000000057
        },
        {
          "name": "C2",
          "midi": 36,
          "time": 91.5,
          "velocity": 0.984251968503937,
          "duration": 1.1187500000000057
        },
        {
          "name": "D3",
          "midi": 50,
          "time": 93,
          "velocity": 1,
          "duration": 1.4937500000000057
        },
        {
          "name": "F3",
          "midi": 53,
          "time": 93.25,
          "velocity": 1,
          "duration": 0.24375000000000568
        },
        {
          "name": "A#3",
          "midi": 58,
          "time": 93.5,
          "velocity": 1,
          "duration": 0.24375000000000568
        },
        {
          "name": "F3",
          "midi": 53,
          "time": 93.75,
          "velocity": 1,
          "duration": 0.7437500000000057
        },
        {
          "name": "A#2",
          "midi": 46,
          "time": 94.5,
          "velocity": 1,
          "duration": 1.4937500000000057
        },
        {
          "name": "F3",
          "midi": 53,
          "time": 94.75,
          "velocity": 1,
          "duration": 0.24375000000000568
        },
        {
          "name": "G#3",
          "midi": 56,
          "time": 95,
          "velocity": 1,
          "duration": 0.24375000000000568
        },
        {
          "name": "A#3",
          "midi": 58,
          "time": 95.25,
          "velocity": 0.984251968503937,
          "duration": 0.7437500000000057
        },
        {
          "name": "D#2",
          "midi": 39,
          "time": 96,
          "velocity": 0.984251968503937,
          "duration": 1.4937500000000057
        },
        {
          "name": "A#2",
          "midi": 46,
          "time": 96.375,
          "velocity": 1,
          "duration": 1.1187500000000057
        },
        {
          "name": "D#2",
          "midi": 39,
          "time": 97.5,
          "velocity": 0.9921259842519685,
          "duration": 1.4937500000000057
        },
        {
          "name": "D#3",
          "midi": 51,
          "time": 97.875,
          "velocity": 0.9921259842519685,
          "duration": 0.3687500000000057
        },
        {
          "name": "G3",
          "midi": 55,
          "time": 98.25,
          "velocity": 0.9763779527559056,
          "duration": 0.3687500000000057
        },
        {
          "name": "D#3",
          "midi": 51,
          "time": 98.625,
          "velocity": 0.9921259842519685,
          "duration": 0.3687500000000057
        },
        {
          "name": "F2",
          "midi": 41,
          "time": 99,
          "velocity": 0.952755905511811,
          "duration": 1.4937500000000057
        },
        {
          "name": "C#3",
          "midi": 49,
          "time": 99.25,
          "velocity": 0.9763779527559056,
          "duration": 0.24375000000000568
        },
        {
          "name": "F3",
          "midi": 53,
          "time": 99.5,
          "velocity": 0.9763779527559056,
          "duration": 0.24375000000000568
        },
        {
          "name": "G#3",
          "midi": 56,
          "time": 99.75,
          "velocity": 1,
          "duration": 0.7437500000000057
        },
        {
          "name": "G#2",
          "midi": 44,
          "time": 100.5,
          "velocity": 0.984251968503937,
          "duration": 1.4937500000000057
        },
        {
          "name": "D3",
          "midi": 50,
          "time": 100.75,
          "velocity": 0.984251968503937,
          "duration": 0.24375000000000568
        },
        {
          "name": "F3",
          "midi": 53,
          "time": 101,
          "velocity": 0.984251968503937,
          "duration": 0.24375000000000568
        },
        {
          "name": "G#3",
          "midi": 56,
          "time": 101.25,
          "velocity": 0.984251968503937,
          "duration": 0.7437500000000057
        },
        {
          "name": "G2",
          "midi": 43,
          "time": 102,
          "velocity": 0.968503937007874,
          "duration": 2.9937500000000057
        },
        {
          "name": "D3",
          "midi": 50,
          "time": 102.375,
          "velocity": 0.968503937007874,
          "duration": 0.3687500000000057
        },
        {
          "name": "G3",
          "midi": 55,
          "time": 102.75,
          "velocity": 0.968503937007874,
          "duration": 0.3687500000000057
        },
        {
          "name": "D3",
          "midi": 50,
          "time": 103.125,
          "velocity": 0.968503937007874,
          "duration": 0.3687500000000057
        },
        {
          "name": "G3",
          "midi": 55,
          "time": 103.5,
          "velocity": 0.968503937007874,
          "duration": 0.3687500000000057
        },
        {
          "name": "C3",
          "midi": 48,
          "time": 105,
          "velocity": 1,
          "duration": 1.4937500000000057
        },
        {
          "name": "G3",
          "midi": 55,
          "time": 105,
          "velocity": 1,
          "duration": 1.4937500000000057
        },
        {
          "name": "C3",
          "midi": 48,
          "time": 106.5,
          "velocity": 0.952755905511811,
          "duration": 1.4937500000000057
        },
        {
          "name": "G#3",
          "midi": 56,
          "time": 106.5,
          "velocity": 0.952755905511811,
          "duration": 1.4937500000000057
        },
        {
          "name": "C3",
          "midi": 48,
          "time": 108,
          "velocity": 0.968503937007874,
          "duration": 2.9937500000000057
        },
        {
          "name": "G3",
          "midi": 55,
          "time": 108,
          "velocity": 0.968503937007874,
          "duration": 0.7437500000000057
        },
        {
          "name": "F3",
          "midi": 53,
          "time": 108.75,
          "velocity": 1,
          "duration": 0.7437500000000057
        },
        {
          "name": "D#3",
          "midi": 51,
          "time": 109.5,
          "velocity": 1,
          "duration": 1.4937500000000057
        },
        {
          "name": "C3",
          "midi": 48,
          "time": 111,
          "velocity": 1,
          "duration": 1.4937500000000057
        },
        {
          "name": "G3",
          "midi": 55,
          "time": 111,
          "velocity": 1,
          "duration": 1.4937500000000057
        },
        {
          "name": "C3",
          "midi": 48,
          "time": 112.5,
          "velocity": 1,
          "duration": 1.4937500000000057
        },
        {
          "name": "G#3",
          "midi": 56,
          "time": 112.5,
          "velocity": 1,
          "duration": 0.7437500000000057
        },
        {
          "name": "D#3",
          "midi": 51,
          "time": 113.25,
          "velocity": 1,
          "duration": 0.7437500000000057
        },
        {
          "name": "C3",
          "midi": 48,
          "time": 114,
          "velocity": 1,
          "duration": 2.2437500000000057
        },
        {
          "name": "G#3",
          "midi": 56,
          "time": 114,
          "velocity": 1,
          "duration": 0.7437500000000057
        },
        {
          "name": "G3",
          "midi": 55,
          "time": 114.75,
          "velocity": 1,
          "duration": 0.7437500000000057
        },
        {
          "name": "G#3",
          "midi": 56,
          "time": 115.5,
          "velocity": 1,
          "duration": 0.7437500000000057
        },
        {
          "name": "C3",
          "midi": 48,
          "time": 116.25,
          "velocity": 1,
          "duration": 0.3687500000000057
        },
        {
          "name": "D3",
          "midi": 50,
          "time": 116.625,
          "velocity": 1,
          "duration": 0.3687500000000057
        },
        {
          "name": "F2",
          "midi": 41,
          "time": 117,
          "velocity": 1,
          "duration": 2.2437500000000057
        },
        {
          "name": "C3",
          "midi": 48,
          "time": 117.375,
          "velocity": 1,
          "duration": 0.3687500000000057
        },
        {
          "name": "F3",
          "midi": 53,
          "time": 117.75,
          "velocity": 0.9921259842519685,
          "duration": 0.3687500000000057
        },
        {
          "name": "G#3",
          "midi": 56,
          "time": 118.125,
          "velocity": 0.9921259842519685,
          "duration": 0.3687500000000057
        },
        {
          "name": "C4",
          "midi": 60,
          "time": 118.5,
          "velocity": 1,
          "duration": 0.7437500000000057
        },
        {
          "name": "C3",
          "midi": 48,
          "time": 119.25,
          "velocity": 0.984251968503937,
          "duration": 0.3687500000000057
        },
        {
          "name": "D3",
          "midi": 50,
          "time": 119.625,
          "velocity": 0.984251968503937,
          "duration": 0.3687500000000057
        },
        {
          "name": "C2",
          "midi": 36,
          "time": 120,
          "velocity": 0.984251968503937,
          "duration": 2.2437500000000057
        },
        {
          "name": "G2",
          "midi": 43,
          "time": 120.375,
          "velocity": 0.984251968503937,
          "duration": 0.3687500000000057
        },
        {
          "name": "C3",
          "midi": 48,
          "time": 120.75,
          "velocity": 1,
          "duration": 0.3687500000000057
        },
        {
          "name": "D#3",
          "midi": 51,
          "time": 121.125,
          "velocity": 1,
          "duration": 0.3687500000000057
        },
        {
          "name": "G3",
          "midi": 55,
          "time": 121.5,
          "velocity": 1,
          "duration": 0.7437500000000057
        },
        {
          "name": "G3",
          "midi": 55,
          "time": 123,
          "velocity": 1,
          "duration": 1.4937500000000057
        },
        {
          "name": "G2",
          "midi": 43,
          "time": 123,
          "velocity": 1,
          "duration": 1.4937500000000057
        },
        {
          "name": "G3",
          "midi": 55,
          "time": 124.5,
          "velocity": 1,
          "duration": 1.4937500000000057
        },
        {
          "name": "G2",
          "midi": 43,
          "time": 124.5,
          "velocity": 1,
          "duration": 1.4937500000000057
        },
        {
          "name": "C2",
          "midi": 36,
          "time": 126,
          "velocity": 1,
          "duration": 2.9937500000000057
        }
      ],
      "controlChanges": {
        "7": [
          {
            "number": 7,
            "time": 0,
            "value": 0.5511811023622047
          }
        ],
        "10": [
          {
            "number": 10,
            "time": 0,
            "value": 0.7480314960629921
          }
        ],
        "64": [
          {
            "number": 64,
            "time": 0,
            "value": 0
          }
        ]
      }
    },
    {
      "startTime": 3,
      "duration": 128.99375,
      "length": 328,
      "id": 6,
      "name": "ACGUIT",
      "instrumentNumber": 25,
      "instrument": "acoustic guitar (steel)",
      "instrumentFamily": "guitar",
      "channelNumber": 5,
      "isPercussion": false,
      "notes": [
        {
          "name": "C3",
          "midi": 48,
          "time": 3,
          "velocity": 0.7480314960629921,
          "duration": 1.4937500000000004
        },
        {
          "name": "C4",
          "midi": 60,
          "time": 3.375,
          "velocity": 0.8818897637795275,
          "duration": 0.3687499999999999
        },
        {
          "name": "D#4",
          "midi": 63,
          "time": 3.75,
          "velocity": 0.6062992125984252,
          "duration": 0.375
        },
        {
          "name": "G4",
          "midi": 67,
          "time": 3.75,
          "velocity": 0.6456692913385826,
          "duration": 0.375
        },
        {
          "name": "C4",
          "midi": 60,
          "time": 4.125,
          "velocity": 0.7007874015748031,
          "duration": 0.36875000000000036
        },
        {
          "name": "D4",
          "midi": 62,
          "time": 4.5,
          "velocity": 0.7795275590551181,
          "duration": 1.4937500000000004
        },
        {
          "name": "F4",
          "midi": 65,
          "time": 4.5,
          "velocity": 0.84251968503937,
          "duration": 1.4937500000000004
        },
        {
          "name": "C3",
          "midi": 48,
          "time": 6,
          "velocity": 0.7086614173228346,
          "duration": 1.4937500000000004
        },
        {
          "name": "C4",
          "midi": 60,
          "time": 6.375,
          "velocity": 0.937007874015748,
          "duration": 0.36875000000000036
        },
        {
          "name": "G4",
          "midi": 67,
          "time": 6.75,
          "velocity": 0.8818897637795275,
          "duration": 0.36875000000000036
        },
        {
          "name": "D#4",
          "midi": 63,
          "time": 6.75,
          "velocity": 0.7795275590551181,
          "duration": 0.36875000000000036
        },
        {
          "name": "C4",
          "midi": 60,
          "time": 7.125,
          "velocity": 0.937007874015748,
          "duration": 0.36875000000000036
        },
        {
          "name": "D4",
          "midi": 62,
          "time": 7.5,
          "velocity": 0.8267716535433071,
          "duration": 1.4937500000000004
        },
        {
          "name": "F4",
          "midi": 65,
          "time": 7.5,
          "velocity": 0.905511811023622,
          "duration": 1.4937500000000004
        },
        {
          "name": "C4",
          "midi": 60,
          "time": 9,
          "velocity": 0.5196850393700787,
          "duration": 0.36875000000000036
        },
        {
          "name": "D#4",
          "midi": 63,
          "time": 9.375,
          "velocity": 0.44881889763779526,
          "duration": 0.36875000000000036
        },
        {
          "name": "G4",
          "midi": 67,
          "time": 9.75,
          "velocity": 0.7795275590551181,
          "duration": 0.36875000000000036
        },
        {
          "name": "D#4",
          "midi": 63,
          "time": 10.125,
          "velocity": 0.3464566929133858,
          "duration": 0.36875000000000036
        },
        {
          "name": "F4",
          "midi": 65,
          "time": 10.5,
          "velocity": 0.5826771653543307,
          "duration": 0.36875000000000036
        },
        {
          "name": "G#4",
          "midi": 68,
          "time": 10.875,
          "velocity": 0.2992125984251969,
          "duration": 0.36875000000000036
        },
        {
          "name": "C5",
          "midi": 72,
          "time": 11.25,
          "velocity": 0.7952755905511811,
          "duration": 0.36875000000000036
        },
        {
          "name": "G#4",
          "midi": 68,
          "time": 11.625,
          "velocity": 0.49606299212598426,
          "duration": 0.36875000000000036
        },
        {
          "name": "C4",
          "midi": 60,
          "time": 12,
          "velocity": 0.7007874015748031,
          "duration": 0.36875000000000036
        },
        {
          "name": "D#4",
          "midi": 63,
          "time": 12.375,
          "velocity": 0.47244094488188976,
          "duration": 0.36875000000000036
        },
        {
          "name": "G4",
          "midi": 67,
          "time": 12.75,
          "velocity": 0.6614173228346457,
          "duration": 0.36875000000000036
        },
        {
          "name": "D#4",
          "midi": 63,
          "time": 13.125,
          "velocity": 0.6377952755905512,
          "duration": 0.36875000000000036
        },
        {
          "name": "C4",
          "midi": 60,
          "time": 13.5,
          "velocity": 0.7007874015748031,
          "duration": 0.36875000000000036
        },
        {
          "name": "D#4",
          "midi": 63,
          "time": 13.875,
          "velocity": 0.5275590551181102,
          "duration": 0.36875000000000036
        },
        {
          "name": "G4",
          "midi": 67,
          "time": 14.25,
          "velocity": 0.5590551181102362,
          "duration": 0.36875000000000036
        },
        {
          "name": "D#4",
          "midi": 63,
          "time": 14.625,
          "velocity": 0.7322834645669292,
          "duration": 0.36875000000000036
        },
        {
          "name": "C4",
          "midi": 60,
          "time": 15,
          "velocity": 0.7795275590551181,
          "duration": 0.375
        },
        {
          "name": "D#4",
          "midi": 63,
          "time": 15.375,
          "velocity": 0.5433070866141733,
          "duration": 0.36875000000000036
        },
        {
          "name": "G4",
          "midi": 67,
          "time": 15.75,
          "velocity": 0.6141732283464567,
          "duration": 0.375
        },
        {
          "name": "D#4",
          "midi": 63,
          "time": 16.125,
          "velocity": 0.6850393700787402,
          "duration": 0.3687499999999986
        },
        {
          "name": "C4",
          "midi": 60,
          "time": 16.5,
          "velocity": 0.5511811023622047,
          "duration": 0.3687499999999986
        },
        {
          "name": "D#4",
          "midi": 63,
          "time": 16.875,
          "velocity": 0.47244094488188976,
          "duration": 0.3687499999999986
        },
        {
          "name": "G4",
          "midi": 67,
          "time": 17.25,
          "velocity": 0.5984251968503937,
          "duration": 0.3687499999999986
        },
        {
          "name": "D#4",
          "midi": 63,
          "time": 17.625,
          "velocity": 0.6377952755905512,
          "duration": 0.3687499999999986
        },
        {
          "name": "F4",
          "midi": 65,
          "time": 18,
          "velocity": 0.6299212598425197,
          "duration": 0.3687499999999986
        },
        {
          "name": "G#4",
          "midi": 68,
          "time": 18.375,
          "velocity": 0.47244094488188976,
          "duration": 0.3687499999999986
        },
        {
          "name": "C5",
          "midi": 72,
          "time": 18.75,
          "velocity": 0.7952755905511811,
          "duration": 0.3687499999999986
        },
        {
          "name": "G#4",
          "midi": 68,
          "time": 19.125,
          "velocity": 0.4566929133858268,
          "duration": 0.3687499999999986
        },
        {
          "name": "F4",
          "midi": 65,
          "time": 19.5,
          "velocity": 0.5984251968503937,
          "duration": 0.3687499999999986
        },
        {
          "name": "G#4",
          "midi": 68,
          "time": 19.875,
          "velocity": 0.47244094488188976,
          "duration": 0.3687499999999986
        },
        {
          "name": "C5",
          "midi": 72,
          "time": 20.25,
          "velocity": 0.7952755905511811,
          "duration": 0.3687499999999986
        },
        {
          "name": "G#4",
          "midi": 68,
          "time": 20.625,
          "velocity": 0.5118110236220472,
          "duration": 0.3687499999999986
        },
        {
          "name": "F4",
          "midi": 65,
          "time": 21,
          "velocity": 0.6141732283464567,
          "duration": 0.3687499999999986
        },
        {
          "name": "G#4",
          "midi": 68,
          "time": 21.375,
          "velocity": 0.4566929133858268,
          "duration": 0.3687499999999986
        },
        {
          "name": "C5",
          "midi": 72,
          "time": 21.75,
          "velocity": 0.7480314960629921,
          "duration": 0.3687499999999986
        },
        {
          "name": "G#4",
          "midi": 68,
          "time": 22.125,
          "velocity": 0.4330708661417323,
          "duration": 0.3687499999999986
        },
        {
          "name": "F4",
          "midi": 65,
          "time": 22.5,
          "velocity": 0.5433070866141733,
          "duration": 0.3687499999999986
        },
        {
          "name": "G#4",
          "midi": 68,
          "time": 22.875,
          "velocity": 0.4330708661417323,
          "duration": 0.3687499999999986
        },
        {
          "name": "C5",
          "midi": 72,
          "time": 23.25,
          "velocity": 0.7480314960629921,
          "duration": 0.3687499999999986
        },
        {
          "name": "G#4",
          "midi": 68,
          "time": 23.625,
          "velocity": 0.4645669291338583,
          "duration": 0.3687499999999986
        },
        {
          "name": "C4",
          "midi": 60,
          "time": 24,
          "velocity": 0.6299212598425197,
          "duration": 0.3687499999999986
        },
        {
          "name": "D#4",
          "midi": 63,
          "time": 24.375,
          "velocity": 0.5669291338582677,
          "duration": 0.3687499999999986
        },
        {
          "name": "G4",
          "midi": 67,
          "time": 24.75,
          "velocity": 0.6062992125984252,
          "duration": 0.3687499999999986
        },
        {
          "name": "D#4",
          "midi": 63,
          "time": 25.125,
          "velocity": 0.7007874015748031,
          "duration": 0.3687499999999986
        },
        {
          "name": "C4",
          "midi": 60,
          "time": 25.5,
          "velocity": 0.7007874015748031,
          "duration": 0.3687499999999986
        },
        {
          "name": "D#4",
          "midi": 63,
          "time": 25.875,
          "velocity": 0.6141732283464567,
          "duration": 0.3687499999999986
        },
        {
          "name": "G4",
          "midi": 67,
          "time": 26.25,
          "velocity": 0.6299212598425197,
          "duration": 0.375
        },
        {
          "name": "D#4",
          "midi": 63,
          "time": 26.625,
          "velocity": 0.6141732283464567,
          "duration": 0.3687499999999986
        },
        {
          "name": "G3",
          "midi": 55,
          "time": 27,
          "velocity": 0.5196850393700787,
          "duration": 0.375
        },
        {
          "name": "C4",
          "midi": 60,
          "time": 27.375,
          "velocity": 0.6692913385826772,
          "duration": 0.3687499999999986
        },
        {
          "name": "D4",
          "midi": 62,
          "time": 27.75,
          "velocity": 0.8661417322834646,
          "duration": 0.3687499999999986
        },
        {
          "name": "B3",
          "midi": 59,
          "time": 28.125,
          "velocity": 0.6614173228346457,
          "duration": 0.3687499999999986
        },
        {
          "name": "G3",
          "midi": 55,
          "time": 28.5,
          "velocity": 0.5984251968503937,
          "duration": 0.3687499999999986
        },
        {
          "name": "B3",
          "midi": 59,
          "time": 28.875,
          "velocity": 0.7795275590551181,
          "duration": 0.3687499999999986
        },
        {
          "name": "D4",
          "midi": 62,
          "time": 29.25,
          "velocity": 0.905511811023622,
          "duration": 0.3687499999999986
        },
        {
          "name": "B3",
          "midi": 59,
          "time": 29.625,
          "velocity": 0.7322834645669292,
          "duration": 0.3687499999999986
        },
        {
          "name": "C4",
          "midi": 60,
          "time": 30,
          "velocity": 0.7480314960629921,
          "duration": 0.3687499999999986
        },
        {
          "name": "D#4",
          "midi": 63,
          "time": 30.375,
          "velocity": 0.6535433070866141,
          "duration": 0.3687499999999986
        },
        {
          "name": "G4",
          "midi": 67,
          "time": 30.75,
          "velocity": 0.5826771653543307,
          "duration": 0.3687499999999986
        },
        {
          "name": "D#4",
          "midi": 63,
          "time": 31.125,
          "velocity": 0.6692913385826772,
          "duration": 0.3687499999999986
        },
        {
          "name": "C4",
          "midi": 60,
          "time": 31.5,
          "velocity": 0.7086614173228346,
          "duration": 0.3687499999999986
        },
        {
          "name": "D#4",
          "midi": 63,
          "time": 31.875,
          "velocity": 0.6535433070866141,
          "duration": 0.3687499999999986
        },
        {
          "name": "G4",
          "midi": 67,
          "time": 32.25,
          "velocity": 0.5354330708661418,
          "duration": 0.3687499999999986
        },
        {
          "name": "D#4",
          "midi": 63,
          "time": 32.625,
          "velocity": 0.905511811023622,
          "duration": 0.3687499999999986
        },
        {
          "name": "A#3",
          "midi": 58,
          "time": 33,
          "velocity": 0.5354330708661418,
          "duration": 0.3687499999999986
        },
        {
          "name": "D4",
          "midi": 62,
          "time": 33.375,
          "velocity": 0.7480314960629921,
          "duration": 0.3687499999999986
        },
        {
          "name": "F4",
          "midi": 65,
          "time": 33.75,
          "velocity": 0.6692913385826772,
          "duration": 0.3687499999999986
        },
        {
          "name": "D4",
          "midi": 62,
          "time": 34.125,
          "velocity": 0.84251968503937,
          "duration": 0.3687499999999986
        },
        {
          "name": "A#3",
          "midi": 58,
          "time": 34.5,
          "velocity": 0.5748031496062992,
          "duration": 0.3687499999999986
        },
        {
          "name": "D4",
          "midi": 62,
          "time": 34.875,
          "velocity": 0.7795275590551181,
          "duration": 0.3687499999999986
        },
        {
          "name": "F4",
          "midi": 65,
          "time": 35.25,
          "velocity": 0.6771653543307087,
          "duration": 0.3687499999999986
        },
        {
          "name": "D4",
          "midi": 62,
          "time": 35.625,
          "velocity": 0.8661417322834646,
          "duration": 0.3687499999999986
        },
        {
          "name": "D#4",
          "midi": 63,
          "time": 36,
          "velocity": 0.5039370078740157,
          "duration": 0.3687499999999986
        },
        {
          "name": "G4",
          "midi": 67,
          "time": 36.375,
          "velocity": 0.5748031496062992,
          "duration": 0.3687499999999986
        },
        {
          "name": "A#4",
          "midi": 70,
          "time": 36.75,
          "velocity": 0.6850393700787402,
          "duration": 0.3687499999999986
        },
        {
          "name": "G4",
          "midi": 67,
          "time": 37.125,
          "velocity": 0.6614173228346457,
          "duration": 0.3687499999999986
        },
        {
          "name": "D#4",
          "midi": 63,
          "time": 37.5,
          "velocity": 0.4566929133858268,
          "duration": 0.3687499999999986
        },
        {
          "name": "G4",
          "midi": 67,
          "time": 37.875,
          "velocity": 0.5984251968503937,
          "duration": 0.3687499999999986
        },
        {
          "name": "A#4",
          "midi": 70,
          "time": 38.25,
          "velocity": 0.7480314960629921,
          "duration": 0.3687499999999986
        },
        {
          "name": "G4",
          "midi": 67,
          "time": 38.625,
          "velocity": 0.6141732283464567,
          "duration": 0.3687499999999986
        },
        {
          "name": "C#4",
          "midi": 61,
          "time": 39,
          "velocity": 0.8110236220472441,
          "duration": 0.3687499999999986
        },
        {
          "name": "F4",
          "midi": 65,
          "time": 39.375,
          "velocity": 0.7322834645669292,
          "duration": 0.3687499999999986
        },
        {
          "name": "G#4",
          "midi": 68,
          "time": 39.75,
          "velocity": 0.6692913385826772,
          "duration": 0.3687499999999986
        },
        {
          "name": "F4",
          "midi": 65,
          "time": 40.125,
          "velocity": 0.8818897637795275,
          "duration": 0.3687499999999986
        },
        {
          "name": "F4",
          "midi": 65,
          "time": 40.5,
          "velocity": 0.6377952755905512,
          "duration": 0.3687499999999986
        },
        {
          "name": "G#4",
          "midi": 68,
          "time": 40.875,
          "velocity": 0.4645669291338583,
          "duration": 0.3687499999999986
        },
        {
          "name": "C5",
          "midi": 72,
          "time": 41.25,
          "velocity": 0.7322834645669292,
          "duration": 0.3687499999999986
        },
        {
          "name": "G#4",
          "midi": 68,
          "time": 41.625,
          "velocity": 0.5118110236220472,
          "duration": 0.3687499999999986
        },
        {
          "name": "G4",
          "midi": 67,
          "time": 42,
          "velocity": 0.6614173228346457,
          "duration": 0.3687499999999986
        },
        {
          "name": "B4",
          "midi": 71,
          "time": 42.375,
          "velocity": 0.8267716535433071,
          "duration": 0.3687499999999986
        },
        {
          "name": "D5",
          "midi": 74,
          "time": 42.75,
          "velocity": 0.8818897637795275,
          "duration": 0.3687499999999986
        },
        {
          "name": "B4",
          "midi": 71,
          "time": 43.125,
          "velocity": 0.8267716535433071,
          "duration": 0.3687499999999986
        },
        {
          "name": "G4",
          "midi": 67,
          "time": 43.5,
          "velocity": 0.7322834645669292,
          "duration": 0.3687499999999986
        },
        {
          "name": "B4",
          "midi": 71,
          "time": 43.875,
          "velocity": 0.7952755905511811,
          "duration": 0.3687499999999986
        },
        {
          "name": "D5",
          "midi": 74,
          "time": 44.25,
          "velocity": 0.905511811023622,
          "duration": 0.3687499999999986
        },
        {
          "name": "B4",
          "midi": 71,
          "time": 44.625,
          "velocity": 0.8267716535433071,
          "duration": 0.3687499999999986
        },
        {
          "name": "C4",
          "midi": 60,
          "time": 45,
          "velocity": 0.8267716535433071,
          "duration": 0.3687499999999986
        },
        {
          "name": "D#4",
          "midi": 63,
          "time": 45.375,
          "velocity": 0.7007874015748031,
          "duration": 0.3687499999999986
        },
        {
          "name": "G4",
          "midi": 67,
          "time": 45.75,
          "velocity": 0.5748031496062992,
          "duration": 0.3687499999999986
        },
        {
          "name": "D#4",
          "midi": 63,
          "time": 46.125,
          "velocity": 0.8110236220472441,
          "duration": 0.3687499999999986
        },
        {
          "name": "F4",
          "midi": 65,
          "time": 46.5,
          "velocity": 0.6299212598425197,
          "duration": 0.3687499999999986
        },
        {
          "name": "G#4",
          "midi": 68,
          "time": 46.875,
          "velocity": 0.44881889763779526,
          "duration": 0.3687499999999986
        },
        {
          "name": "C5",
          "midi": 72,
          "time": 47.25,
          "velocity": 0.7401574803149606,
          "duration": 0.3687499999999986
        },
        {
          "name": "G#4",
          "midi": 68,
          "time": 47.625,
          "velocity": 0.5039370078740157,
          "duration": 0.3687499999999986
        },
        {
          "name": "C4",
          "midi": 60,
          "time": 48,
          "velocity": 0.6614173228346457,
          "duration": 0.3687499999999986
        },
        {
          "name": "D#4",
          "midi": 63,
          "time": 48.375,
          "velocity": 0.5669291338582677,
          "duration": 0.3687499999999986
        },
        {
          "name": "G4",
          "midi": 67,
          "time": 48.75,
          "velocity": 0.6456692913385826,
          "duration": 0.3687499999999986
        },
        {
          "name": "D#4",
          "midi": 63,
          "time": 49.125,
          "velocity": 0.7007874015748031,
          "duration": 0.3687499999999986
        },
        {
          "name": "C4",
          "midi": 60,
          "time": 49.5,
          "velocity": 0.7401574803149606,
          "duration": 0.3687499999999986
        },
        {
          "name": "D#4",
          "midi": 63,
          "time": 49.875,
          "velocity": 0.6692913385826772,
          "duration": 0.3687499999999986
        },
        {
          "name": "G4",
          "midi": 67,
          "time": 50.25,
          "velocity": 0.5590551181102362,
          "duration": 0.3687499999999986
        },
        {
          "name": "D#4",
          "midi": 63,
          "time": 50.625,
          "velocity": 0.8661417322834646,
          "duration": 0.3687499999999986
        },
        {
          "name": "C4",
          "midi": 60,
          "time": 51,
          "velocity": 0.7795275590551181,
          "duration": 0.3687499999999986
        },
        {
          "name": "D#4",
          "midi": 63,
          "time": 51.375,
          "velocity": 0.7480314960629921,
          "duration": 0.3687499999999986
        },
        {
          "name": "G4",
          "midi": 67,
          "time": 51.75,
          "velocity": 0.6614173228346457,
          "duration": 0.3687499999999986
        },
        {
          "name": "D#4",
          "midi": 63,
          "time": 52.125,
          "velocity": 0.8267716535433071,
          "duration": 0.3687499999999986
        },
        {
          "name": "F4",
          "midi": 65,
          "time": 52.5,
          "velocity": 0.6299212598425197,
          "duration": 0.3687499999999986
        },
        {
          "name": "G#4",
          "midi": 68,
          "time": 52.875,
          "velocity": 0.48031496062992124,
          "duration": 0.3687499999999986
        },
        {
          "name": "C5",
          "midi": 72,
          "time": 53.25,
          "velocity": 0.7952755905511811,
          "duration": 0.3687499999999986
        },
        {
          "name": "G#4",
          "midi": 68,
          "time": 53.625,
          "velocity": 0.5118110236220472,
          "duration": 0.3687499999999986
        },
        {
          "name": "F4",
          "midi": 65,
          "time": 54,
          "velocity": 0.5354330708661418,
          "duration": 0.3687499999999986
        },
        {
          "name": "G#4",
          "midi": 68,
          "time": 54.375,
          "velocity": 0.4645669291338583,
          "duration": 0.3687499999999986
        },
        {
          "name": "C5",
          "midi": 72,
          "time": 54.75,
          "velocity": 0.8267716535433071,
          "duration": 0.3687499999999986
        },
        {
          "name": "G#4",
          "midi": 68,
          "time": 55.125,
          "velocity": 0.5590551181102362,
          "duration": 0.3687499999999986
        },
        {
          "name": "F4",
          "midi": 65,
          "time": 55.5,
          "velocity": 0.5984251968503937,
          "duration": 0.3687499999999986
        },
        {
          "name": "G#4",
          "midi": 68,
          "time": 55.875,
          "velocity": 0.47244094488188976,
          "duration": 0.3687499999999986
        },
        {
          "name": "C5",
          "midi": 72,
          "time": 56.25,
          "velocity": 0.8267716535433071,
          "duration": 0.3687499999999986
        },
        {
          "name": "G#4",
          "midi": 68,
          "time": 56.625,
          "velocity": 0.44881889763779526,
          "duration": 0.3687499999999986
        },
        {
          "name": "F4",
          "midi": 65,
          "time": 57,
          "velocity": 0.5984251968503937,
          "duration": 0.3687499999999986
        },
        {
          "name": "G#4",
          "midi": 68,
          "time": 57.375,
          "velocity": 0.47244094488188976,
          "duration": 0.3687499999999986
        },
        {
          "name": "C5",
          "midi": 72,
          "time": 57.75,
          "velocity": 0.8267716535433071,
          "duration": 0.3687499999999986
        },
        {
          "name": "G#4",
          "midi": 68,
          "time": 58.125,
          "velocity": 0.5275590551181102,
          "duration": 0.3687499999999986
        },
        {
          "name": "F4",
          "midi": 65,
          "time": 58.5,
          "velocity": 0.5748031496062992,
          "duration": 0.3687499999999986
        },
        {
          "name": "G#4",
          "midi": 68,
          "time": 58.875,
          "velocity": 0.4566929133858268,
          "duration": 0.3687499999999986
        },
        {
          "name": "C5",
          "midi": 72,
          "time": 59.25,
          "velocity": 0.7952755905511811,
          "duration": 0.3687499999999986
        },
        {
          "name": "G#4",
          "midi": 68,
          "time": 59.625,
          "velocity": 0.5984251968503937,
          "duration": 0.3687499999999986
        },
        {
          "name": "C4",
          "midi": 60,
          "time": 60,
          "velocity": 0.7716535433070866,
          "duration": 0.3687499999999986
        },
        {
          "name": "D#4",
          "midi": 63,
          "time": 60.375,
          "velocity": 0.5984251968503937,
          "duration": 0.3687499999999986
        },
        {
          "name": "G4",
          "midi": 67,
          "time": 60.75,
          "velocity": 0.5826771653543307,
          "duration": 0.3687499999999986
        },
        {
          "name": "D#4",
          "midi": 63,
          "time": 61.125,
          "velocity": 0.7007874015748031,
          "duration": 0.3687499999999986
        },
        {
          "name": "C4",
          "midi": 60,
          "time": 61.5,
          "velocity": 0.7480314960629921,
          "duration": 0.375
        },
        {
          "name": "D#4",
          "midi": 63,
          "time": 61.875,
          "velocity": 0.7165354330708661,
          "duration": 0.3687499999999986
        },
        {
          "name": "G4",
          "midi": 67,
          "time": 62.25,
          "velocity": 0.6377952755905512,
          "duration": 0.3687499999999986
        },
        {
          "name": "D#4",
          "midi": 63,
          "time": 62.625,
          "velocity": 0.7952755905511811,
          "duration": 0.3687499999999986
        },
        {
          "name": "G3",
          "midi": 55,
          "time": 63,
          "velocity": 0.6141732283464567,
          "duration": 0.3687499999999986
        },
        {
          "name": "C4",
          "midi": 60,
          "time": 63.375,
          "velocity": 0.6614173228346457,
          "duration": 0.3687499999999986
        },
        {
          "name": "D4",
          "midi": 62,
          "time": 63.75,
          "velocity": 0.84251968503937,
          "duration": 0.3687500000000057
        },
        {
          "name": "B3",
          "midi": 59,
          "time": 64.125,
          "velocity": 0.7401574803149606,
          "duration": 0.3687500000000057
        },
        {
          "name": "G3",
          "midi": 55,
          "time": 64.5,
          "velocity": 0.6614173228346457,
          "duration": 0.3687500000000057
        },
        {
          "name": "B3",
          "midi": 59,
          "time": 64.875,
          "velocity": 0.8188976377952756,
          "duration": 0.3687500000000057
        },
        {
          "name": "D4",
          "midi": 62,
          "time": 65.25,
          "velocity": 1,
          "duration": 0.3687500000000057
        },
        {
          "name": "B3",
          "midi": 59,
          "time": 65.625,
          "velocity": 0.7952755905511811,
          "duration": 0.3687500000000057
        },
        {
          "name": "C4",
          "midi": 60,
          "time": 66,
          "velocity": 0.7952755905511811,
          "duration": 0.3687500000000057
        },
        {
          "name": "D#4",
          "midi": 63,
          "time": 66.375,
          "velocity": 0.5826771653543307,
          "duration": 0.3687500000000057
        },
        {
          "name": "G4",
          "midi": 67,
          "time": 66.75,
          "velocity": 0.7322834645669292,
          "duration": 0.3687500000000057
        },
        {
          "name": "D#4",
          "midi": 63,
          "time": 67.125,
          "velocity": 0.7637795275590551,
          "duration": 0.3687500000000057
        },
        {
          "name": "C4",
          "midi": 60,
          "time": 67.5,
          "velocity": 0.8267716535433071,
          "duration": 0.3687500000000057
        },
        {
          "name": "D#4",
          "midi": 63,
          "time": 67.875,
          "velocity": 0.6850393700787402,
          "duration": 0.3687500000000057
        },
        {
          "name": "G4",
          "midi": 67,
          "time": 68.25,
          "velocity": 0.7401574803149606,
          "duration": 0.3687500000000057
        },
        {
          "name": "D#4",
          "midi": 63,
          "time": 68.625,
          "velocity": 0.7480314960629921,
          "duration": 0.3687500000000057
        },
        {
          "name": "C4",
          "midi": 60,
          "time": 69,
          "velocity": 0.5196850393700787,
          "duration": 0.3687500000000057
        },
        {
          "name": "D#4",
          "midi": 63,
          "time": 69.375,
          "velocity": 0.44881889763779526,
          "duration": 0.3687500000000057
        },
        {
          "name": "G4",
          "midi": 67,
          "time": 69.75,
          "velocity": 0.7795275590551181,
          "duration": 0.3687500000000057
        },
        {
          "name": "D#4",
          "midi": 63,
          "time": 70.125,
          "velocity": 0.3464566929133858,
          "duration": 0.3687500000000057
        },
        {
          "name": "F4",
          "midi": 65,
          "time": 70.5,
          "velocity": 0.5826771653543307,
          "duration": 0.3687500000000057
        },
        {
          "name": "G#4",
          "midi": 68,
          "time": 70.875,
          "velocity": 0.2992125984251969,
          "duration": 0.3687500000000057
        },
        {
          "name": "C5",
          "midi": 72,
          "time": 71.25,
          "velocity": 0.7952755905511811,
          "duration": 0.3687500000000057
        },
        {
          "name": "G#4",
          "midi": 68,
          "time": 71.625,
          "velocity": 0.49606299212598426,
          "duration": 0.3687500000000057
        },
        {
          "name": "C4",
          "midi": 60,
          "time": 72,
          "velocity": 0.7007874015748031,
          "duration": 0.3687500000000057
        },
        {
          "name": "D#4",
          "midi": 63,
          "time": 72.375,
          "velocity": 0.47244094488188976,
          "duration": 0.3687500000000057
        },
        {
          "name": "G4",
          "midi": 67,
          "time": 72.75,
          "velocity": 0.6614173228346457,
          "duration": 0.3687500000000057
        },
        {
          "name": "D#4",
          "midi": 63,
          "time": 73.125,
          "velocity": 0.6377952755905512,
          "duration": 0.3687500000000057
        },
        {
          "name": "C4",
          "midi": 60,
          "time": 73.5,
          "velocity": 0.7007874015748031,
          "duration": 0.3687500000000057
        },
        {
          "name": "D#4",
          "midi": 63,
          "time": 73.875,
          "velocity": 0.5275590551181102,
          "duration": 0.3687500000000057
        },
        {
          "name": "G4",
          "midi": 67,
          "time": 74.25,
          "velocity": 0.5590551181102362,
          "duration": 0.3687500000000057
        },
        {
          "name": "D#4",
          "midi": 63,
          "time": 74.625,
          "velocity": 0.7322834645669292,
          "duration": 0.3687500000000057
        },
        {
          "name": "C4",
          "midi": 60,
          "time": 75,
          "velocity": 0.7795275590551181,
          "duration": 0.375
        },
        {
          "name": "D#4",
          "midi": 63,
          "time": 75.375,
          "velocity": 0.5433070866141733,
          "duration": 0.3687500000000057
        },
        {
          "name": "G4",
          "midi": 67,
          "time": 75.75,
          "velocity": 0.6141732283464567,
          "duration": 0.375
        },
        {
          "name": "D#4",
          "midi": 63,
          "time": 76.125,
          "velocity": 0.6850393700787402,
          "duration": 0.3687500000000057
        },
        {
          "name": "C4",
          "midi": 60,
          "time": 76.5,
          "velocity": 0.5511811023622047,
          "duration": 0.3687500000000057
        },
        {
          "name": "D#4",
          "midi": 63,
          "time": 76.875,
          "velocity": 0.47244094488188976,
          "duration": 0.3687500000000057
        },
        {
          "name": "G4",
          "midi": 67,
          "time": 77.25,
          "velocity": 0.5984251968503937,
          "duration": 0.3687500000000057
        },
        {
          "name": "D#4",
          "midi": 63,
          "time": 77.625,
          "velocity": 0.6377952755905512,
          "duration": 0.3687500000000057
        },
        {
          "name": "F4",
          "midi": 65,
          "time": 78,
          "velocity": 0.6299212598425197,
          "duration": 0.3687500000000057
        },
        {
          "name": "G#4",
          "midi": 68,
          "time": 78.375,
          "velocity": 0.47244094488188976,
          "duration": 0.3687500000000057
        },
        {
          "name": "C5",
          "midi": 72,
          "time": 78.75,
          "velocity": 0.7952755905511811,
          "duration": 0.3687500000000057
        },
        {
          "name": "G#4",
          "midi": 68,
          "time": 79.125,
          "velocity": 0.4566929133858268,
          "duration": 0.3687500000000057
        },
        {
          "name": "F4",
          "midi": 65,
          "time": 79.5,
          "velocity": 0.5984251968503937,
          "duration": 0.3687500000000057
        },
        {
          "name": "G#4",
          "midi": 68,
          "time": 79.875,
          "velocity": 0.47244094488188976,
          "duration": 0.3687500000000057
        },
        {
          "name": "C5",
          "midi": 72,
          "time": 80.25,
          "velocity": 0.7952755905511811,
          "duration": 0.3687500000000057
        },
        {
          "name": "G#4",
          "midi": 68,
          "time": 80.625,
          "velocity": 0.5118110236220472,
          "duration": 0.3687500000000057
        },
        {
          "name": "F4",
          "midi": 65,
          "time": 81,
          "velocity": 0.6141732283464567,
          "duration": 0.3687500000000057
        },
        {
          "name": "G#4",
          "midi": 68,
          "time": 81.375,
          "velocity": 0.4566929133858268,
          "duration": 0.3687500000000057
        },
        {
          "name": "C5",
          "midi": 72,
          "time": 81.75,
          "velocity": 0.7480314960629921,
          "duration": 0.3687500000000057
        },
        {
          "name": "G#4",
          "midi": 68,
          "time": 82.125,
          "velocity": 0.4330708661417323,
          "duration": 0.3687500000000057
        },
        {
          "name": "F4",
          "midi": 65,
          "time": 82.5,
          "velocity": 0.5433070866141733,
          "duration": 0.3687500000000057
        },
        {
          "name": "G#4",
          "midi": 68,
          "time": 82.875,
          "velocity": 0.4330708661417323,
          "duration": 0.3687500000000057
        },
        {
          "name": "C5",
          "midi": 72,
          "time": 83.25,
          "velocity": 0.7480314960629921,
          "duration": 0.3687500000000057
        },
        {
          "name": "G#4",
          "midi": 68,
          "time": 83.625,
          "velocity": 0.4645669291338583,
          "duration": 0.3687500000000057
        },
        {
          "name": "C4",
          "midi": 60,
          "time": 84,
          "velocity": 0.6299212598425197,
          "duration": 0.3687500000000057
        },
        {
          "name": "D#4",
          "midi": 63,
          "time": 84.375,
          "velocity": 0.5669291338582677,
          "duration": 0.3687500000000057
        },
        {
          "name": "G4",
          "midi": 67,
          "time": 84.75,
          "velocity": 0.6062992125984252,
          "duration": 0.3687500000000057
        },
        {
          "name": "D#4",
          "midi": 63,
          "time": 85.125,
          "velocity": 0.7007874015748031,
          "duration": 0.3687500000000057
        },
        {
          "name": "C4",
          "midi": 60,
          "time": 85.5,
          "velocity": 0.7007874015748031,
          "duration": 0.3687500000000057
        },
        {
          "name": "D#4",
          "midi": 63,
          "time": 85.875,
          "velocity": 0.6141732283464567,
          "duration": 0.3687500000000057
        },
        {
          "name": "G4",
          "midi": 67,
          "time": 86.25,
          "velocity": 0.6299212598425197,
          "duration": 0.375
        },
        {
          "name": "D#4",
          "midi": 63,
          "time": 86.625,
          "velocity": 0.6141732283464567,
          "duration": 0.3687500000000057
        },
        {
          "name": "G3",
          "midi": 55,
          "time": 87,
          "velocity": 0.5196850393700787,
          "duration": 0.375
        },
        {
          "name": "C4",
          "midi": 60,
          "time": 87.375,
          "velocity": 0.6692913385826772,
          "duration": 0.3687500000000057
        },
        {
          "name": "D4",
          "midi": 62,
          "time": 87.75,
          "velocity": 0.8661417322834646,
          "duration": 0.3687500000000057
        },
        {
          "name": "B3",
          "midi": 59,
          "time": 88.125,
          "velocity": 0.6614173228346457,
          "duration": 0.3687500000000057
        },
        {
          "name": "G3",
          "midi": 55,
          "time": 88.5,
          "velocity": 0.5984251968503937,
          "duration": 0.3687500000000057
        },
        {
          "name": "B3",
          "midi": 59,
          "time": 88.875,
          "velocity": 0.7795275590551181,
          "duration": 0.3687500000000057
        },
        {
          "name": "D4",
          "midi": 62,
          "time": 89.25,
          "velocity": 0.905511811023622,
          "duration": 0.3687500000000057
        },
        {
          "name": "B3",
          "midi": 59,
          "time": 89.625,
          "velocity": 0.7322834645669292,
          "duration": 0.3687500000000057
        },
        {
          "name": "C4",
          "midi": 60,
          "time": 90,
          "velocity": 0.7480314960629921,
          "duration": 0.3687500000000057
        },
        {
          "name": "D#4",
          "midi": 63,
          "time": 90.375,
          "velocity": 0.6535433070866141,
          "duration": 0.3687500000000057
        },
        {
          "name": "G4",
          "midi": 67,
          "time": 90.75,
          "velocity": 0.5826771653543307,
          "duration": 0.3687500000000057
        },
        {
          "name": "D#4",
          "midi": 63,
          "time": 91.125,
          "velocity": 0.6692913385826772,
          "duration": 0.3687500000000057
        },
        {
          "name": "C4",
          "midi": 60,
          "time": 91.5,
          "velocity": 0.7086614173228346,
          "duration": 0.3687500000000057
        },
        {
          "name": "D#4",
          "midi": 63,
          "time": 91.875,
          "velocity": 0.6535433070866141,
          "duration": 0.3687500000000057
        },
        {
          "name": "G4",
          "midi": 67,
          "time": 92.25,
          "velocity": 0.5354330708661418,
          "duration": 0.3687500000000057
        },
        {
          "name": "D#4",
          "midi": 63,
          "time": 92.625,
          "velocity": 0.905511811023622,
          "duration": 0.3687500000000057
        },
        {
          "name": "A#3",
          "midi": 58,
          "time": 93,
          "velocity": 0.5354330708661418,
          "duration": 0.3687500000000057
        },
        {
          "name": "D4",
          "midi": 62,
          "time": 93.375,
          "velocity": 0.7480314960629921,
          "duration": 0.3687500000000057
        },
        {
          "name": "F4",
          "midi": 65,
          "time": 93.75,
          "velocity": 0.6692913385826772,
          "duration": 0.3687500000000057
        },
        {
          "name": "D4",
          "midi": 62,
          "time": 94.125,
          "velocity": 0.84251968503937,
          "duration": 0.3687500000000057
        },
        {
          "name": "A#3",
          "midi": 58,
          "time": 94.5,
          "velocity": 0.5748031496062992,
          "duration": 0.3687500000000057
        },
        {
          "name": "D4",
          "midi": 62,
          "time": 94.875,
          "velocity": 0.7795275590551181,
          "duration": 0.3687500000000057
        },
        {
          "name": "F4",
          "midi": 65,
          "time": 95.25,
          "velocity": 0.6771653543307087,
          "duration": 0.3687500000000057
        },
        {
          "name": "D4",
          "midi": 62,
          "time": 95.625,
          "velocity": 0.8661417322834646,
          "duration": 0.3687500000000057
        },
        {
          "name": "D#4",
          "midi": 63,
          "time": 96,
          "velocity": 0.5039370078740157,
          "duration": 0.3687500000000057
        },
        {
          "name": "G4",
          "midi": 67,
          "time": 96.375,
          "velocity": 0.5748031496062992,
          "duration": 0.3687500000000057
        },
        {
          "name": "A#4",
          "midi": 70,
          "time": 96.75,
          "velocity": 0.6850393700787402,
          "duration": 0.3687500000000057
        },
        {
          "name": "G4",
          "midi": 67,
          "time": 97.125,
          "velocity": 0.6614173228346457,
          "duration": 0.3687500000000057
        },
        {
          "name": "D#4",
          "midi": 63,
          "time": 97.5,
          "velocity": 0.4566929133858268,
          "duration": 0.3687500000000057
        },
        {
          "name": "G4",
          "midi": 67,
          "time": 97.875,
          "velocity": 0.5984251968503937,
          "duration": 0.3687500000000057
        },
        {
          "name": "A#4",
          "midi": 70,
          "time": 98.25,
          "velocity": 0.7480314960629921,
          "duration": 0.3687500000000057
        },
        {
          "name": "G4",
          "midi": 67,
          "time": 98.625,
          "velocity": 0.6141732283464567,
          "duration": 0.3687500000000057
        },
        {
          "name": "C#4",
          "midi": 61,
          "time": 99,
          "velocity": 0.8110236220472441,
          "duration": 0.3687500000000057
        },
        {
          "name": "F4",
          "midi": 65,
          "time": 99.375,
          "velocity": 0.7322834645669292,
          "duration": 0.3687500000000057
        },
        {
          "name": "G#4",
          "midi": 68,
          "time": 99.75,
          "velocity": 0.6692913385826772,
          "duration": 0.3687500000000057
        },
        {
          "name": "F4",
          "midi": 65,
          "time": 100.125,
          "velocity": 0.8818897637795275,
          "duration": 0.3687500000000057
        },
        {
          "name": "F4",
          "midi": 65,
          "time": 100.5,
          "velocity": 0.6377952755905512,
          "duration": 0.3687500000000057
        },
        {
          "name": "G#4",
          "midi": 68,
          "time": 100.875,
          "velocity": 0.4645669291338583,
          "duration": 0.3687500000000057
        },
        {
          "name": "C5",
          "midi": 72,
          "time": 101.25,
          "velocity": 0.7322834645669292,
          "duration": 0.3687500000000057
        },
        {
          "name": "G#4",
          "midi": 68,
          "time": 101.625,
          "velocity": 0.5118110236220472,
          "duration": 0.3687500000000057
        },
        {
          "name": "G4",
          "midi": 67,
          "time": 102,
          "velocity": 0.6614173228346457,
          "duration": 0.3687500000000057
        },
        {
          "name": "B4",
          "midi": 71,
          "time": 102.375,
          "velocity": 0.8267716535433071,
          "duration": 0.3687500000000057
        },
        {
          "name": "D5",
          "midi": 74,
          "time": 102.75,
          "velocity": 0.8818897637795275,
          "duration": 0.3687500000000057
        },
        {
          "name": "B4",
          "midi": 71,
          "time": 103.125,
          "velocity": 0.8267716535433071,
          "duration": 0.3687500000000057
        },
        {
          "name": "G4",
          "midi": 67,
          "time": 103.5,
          "velocity": 0.7322834645669292,
          "duration": 0.3687500000000057
        },
        {
          "name": "B4",
          "midi": 71,
          "time": 103.875,
          "velocity": 0.7952755905511811,
          "duration": 0.3687500000000057
        },
        {
          "name": "D5",
          "midi": 74,
          "time": 104.25,
          "velocity": 0.905511811023622,
          "duration": 0.3687500000000057
        },
        {
          "name": "B4",
          "midi": 71,
          "time": 104.625,
          "velocity": 0.8267716535433071,
          "duration": 0.3687500000000057
        },
        {
          "name": "C4",
          "midi": 60,
          "time": 105,
          "velocity": 0.8267716535433071,
          "duration": 0.3687500000000057
        },
        {
          "name": "D#4",
          "midi": 63,
          "time": 105.375,
          "velocity": 0.7007874015748031,
          "duration": 0.3687500000000057
        },
        {
          "name": "G4",
          "midi": 67,
          "time": 105.75,
          "velocity": 0.5748031496062992,
          "duration": 0.3687500000000057
        },
        {
          "name": "D#4",
          "midi": 63,
          "time": 106.125,
          "velocity": 0.8110236220472441,
          "duration": 0.3687500000000057
        },
        {
          "name": "F4",
          "midi": 65,
          "time": 106.5,
          "velocity": 0.6299212598425197,
          "duration": 0.3687500000000057
        },
        {
          "name": "G#4",
          "midi": 68,
          "time": 106.875,
          "velocity": 0.44881889763779526,
          "duration": 0.3687500000000057
        },
        {
          "name": "C5",
          "midi": 72,
          "time": 107.25,
          "velocity": 0.7401574803149606,
          "duration": 0.3687500000000057
        },
        {
          "name": "G#4",
          "midi": 68,
          "time": 107.625,
          "velocity": 0.5039370078740157,
          "duration": 0.3687500000000057
        },
        {
          "name": "C4",
          "midi": 60,
          "time": 108,
          "velocity": 0.6614173228346457,
          "duration": 0.3687500000000057
        },
        {
          "name": "D#4",
          "midi": 63,
          "time": 108.375,
          "velocity": 0.5669291338582677,
          "duration": 0.3687500000000057
        },
        {
          "name": "G4",
          "midi": 67,
          "time": 108.75,
          "velocity": 0.6456692913385826,
          "duration": 0.3687500000000057
        },
        {
          "name": "D#4",
          "midi": 63,
          "time": 109.125,
          "velocity": 0.7007874015748031,
          "duration": 0.3687500000000057
        },
        {
          "name": "C4",
          "midi": 60,
          "time": 109.5,
          "velocity": 0.7401574803149606,
          "duration": 0.3687500000000057
        },
        {
          "name": "D#4",
          "midi": 63,
          "time": 109.875,
          "velocity": 0.6692913385826772,
          "duration": 0.3687500000000057
        },
        {
          "name": "G4",
          "midi": 67,
          "time": 110.25,
          "velocity": 0.5590551181102362,
          "duration": 0.3687500000000057
        },
        {
          "name": "D#4",
          "midi": 63,
          "time": 110.625,
          "velocity": 0.8661417322834646,
          "duration": 0.3687500000000057
        },
        {
          "name": "C4",
          "midi": 60,
          "time": 111,
          "velocity": 0.7795275590551181,
          "duration": 0.3687500000000057
        },
        {
          "name": "D#4",
          "midi": 63,
          "time": 111.375,
          "velocity": 0.7480314960629921,
          "duration": 0.3687500000000057
        },
        {
          "name": "G4",
          "midi": 67,
          "time": 111.75,
          "velocity": 0.6614173228346457,
          "duration": 0.3687500000000057
        },
        {
          "name": "D#4",
          "midi": 63,
          "time": 112.125,
          "velocity": 0.8267716535433071,
          "duration": 0.3687500000000057
        },
        {
          "name": "F4",
          "midi": 65,
          "time": 112.5,
          "velocity": 0.6299212598425197,
          "duration": 0.3687500000000057
        },
        {
          "name": "G#4",
          "midi": 68,
          "time": 112.875,
          "velocity": 0.48031496062992124,
          "duration": 0.3687500000000057
        },
        {
          "name": "C5",
          "midi": 72,
          "time": 113.25,
          "velocity": 0.7952755905511811,
          "duration": 0.3687500000000057
        },
        {
          "name": "G#4",
          "midi": 68,
          "time": 113.625,
          "velocity": 0.5118110236220472,
          "duration": 0.3687500000000057
        },
        {
          "name": "F4",
          "midi": 65,
          "time": 114,
          "velocity": 0.5354330708661418,
          "duration": 0.3687500000000057
        },
        {
          "name": "G#4",
          "midi": 68,
          "time": 114.375,
          "velocity": 0.4645669291338583,
          "duration": 0.3687500000000057
        },
        {
          "name": "C5",
          "midi": 72,
          "time": 114.75,
          "velocity": 0.8267716535433071,
          "duration": 0.3687500000000057
        },
        {
          "name": "G#4",
          "midi": 68,
          "time": 115.125,
          "velocity": 0.5590551181102362,
          "duration": 0.3687500000000057
        },
        {
          "name": "F4",
          "midi": 65,
          "time": 115.5,
          "velocity": 0.5984251968503937,
          "duration": 0.3687500000000057
        },
        {
          "name": "G#4",
          "midi": 68,
          "time": 115.875,
          "velocity": 0.47244094488188976,
          "duration": 0.3687500000000057
        },
        {
          "name": "C5",
          "midi": 72,
          "time": 116.25,
          "velocity": 0.8267716535433071,
          "duration": 0.3687500000000057
        },
        {
          "name": "G#4",
          "midi": 68,
          "time": 116.625,
          "velocity": 0.44881889763779526,
          "duration": 0.3687500000000057
        },
        {
          "name": "F4",
          "midi": 65,
          "time": 117,
          "velocity": 0.5984251968503937,
          "duration": 0.3687500000000057
        },
        {
          "name": "G#4",
          "midi": 68,
          "time": 117.375,
          "velocity": 0.47244094488188976,
          "duration": 0.3687500000000057
        },
        {
          "name": "C5",
          "midi": 72,
          "time": 117.75,
          "velocity": 0.8267716535433071,
          "duration": 0.3687500000000057
        },
        {
          "name": "G#4",
          "midi": 68,
          "time": 118.125,
          "velocity": 0.5275590551181102,
          "duration": 0.3687500000000057
        },
        {
          "name": "F4",
          "midi": 65,
          "time": 118.5,
          "velocity": 0.5748031496062992,
          "duration": 0.3687500000000057
        },
        {
          "name": "G#4",
          "midi": 68,
          "time": 118.875,
          "velocity": 0.4566929133858268,
          "duration": 0.3687500000000057
        },
        {
          "name": "C5",
          "midi": 72,
          "time": 119.25,
          "velocity": 0.7952755905511811,
          "duration": 0.3687500000000057
        },
        {
          "name": "G#4",
          "midi": 68,
          "time": 119.625,
          "velocity": 0.5984251968503937,
          "duration": 0.3687500000000057
        },
        {
          "name": "C4",
          "midi": 60,
          "time": 120,
          "velocity": 0.7716535433070866,
          "duration": 0.3687500000000057
        },
        {
          "name": "D#4",
          "midi": 63,
          "time": 120.375,
          "velocity": 0.5984251968503937,
          "duration": 0.3687500000000057
        },
        {
          "name": "G4",
          "midi": 67,
          "time": 120.75,
          "velocity": 0.5826771653543307,
          "duration": 0.3687500000000057
        },
        {
          "name": "D#4",
          "midi": 63,
          "time": 121.125,
          "velocity": 0.7007874015748031,
          "duration": 0.3687500000000057
        },
        {
          "name": "C4",
          "midi": 60,
          "time": 121.5,
          "velocity": 0.7480314960629921,
          "duration": 0.375
        },
        {
          "name": "D#4",
          "midi": 63,
          "time": 121.875,
          "velocity": 0.7165354330708661,
          "duration": 0.3687500000000057
        },
        {
          "name": "G4",
          "midi": 67,
          "time": 122.25,
          "velocity": 0.6377952755905512,
          "duration": 0.3687500000000057
        },
        {
          "name": "D#4",
          "midi": 63,
          "time": 122.625,
          "velocity": 0.7952755905511811,
          "duration": 0.3687500000000057
        },
        {
          "name": "G3",
          "midi": 55,
          "time": 123,
          "velocity": 0.6141732283464567,
          "duration": 0.3687500000000057
        },
        {
          "name": "C4",
          "midi": 60,
          "time": 123.375,
          "velocity": 0.6614173228346457,
          "duration": 0.3687500000000057
        },
        {
          "name": "D4",
          "midi": 62,
          "time": 123.75,
          "velocity": 0.84251968503937,
          "duration": 0.3687500000000057
        },
        {
          "name": "B3",
          "midi": 59,
          "time": 124.125,
          "velocity": 0.7401574803149606,
          "duration": 0.3687500000000057
        },
        {
          "name": "G3",
          "midi": 55,
          "time": 124.5,
          "velocity": 0.6614173228346457,
          "duration": 0.3687500000000057
        },
        {
          "name": "C3",
          "midi": 48,
          "time": 126,
          "velocity": 0.48031496062992124,
          "duration": 2.9937500000000057
        },
        {
          "name": "G3",
          "midi": 55,
          "time": 126,
          "velocity": 0.5118110236220472,
          "duration": 2.9937500000000057
        },
        {
          "name": "D#4",
          "midi": 63,
          "time": 126,
          "velocity": 0.36220472440944884,
          "duration": 2.9937500000000057
        },
        {
          "name": "G4",
          "midi": 67,
          "time": 126,
          "velocity": 0.5984251968503937,
          "duration": 2.9937500000000057
        },
        {
          "name": "C5",
          "midi": 72,
          "time": 126,
          "velocity": 0.5826771653543307,
          "duration": 2.9937500000000057
        }
      ],
      "controlChanges": {
        "7": [
          {
            "number": 7,
            "time": 0,
            "value": 0.7086614173228346
          }
        ],
        "10": [
          {
            "number": 10,
            "time": 0,
            "value": 0.2755905511811024
          }
        ],
        "64": [
          {
            "number": 64,
            "time": 0,
            "value": 0
          }
        ]
      }
    },
    {
      "startTime": 9,
      "duration": 128.99375,
      "length": 54,
      "id": 7,
      "name": "BASS",
      "instrumentNumber": 33,
      "instrument": "electric bass (finger)",
      "instrumentFamily": "bass",
      "channelNumber": 6,
      "isPercussion": false,
      "notes": [
        {
          "name": "C2",
          "midi": 36,
          "time": 9,
          "velocity": 1,
          "duration": 1.4937500000000004
        },
        {
          "name": "F1",
          "midi": 29,
          "time": 10.5,
          "velocity": 1,
          "duration": 1.4937500000000004
        },
        {
          "name": "C2",
          "midi": 36,
          "time": 12,
          "velocity": 1,
          "duration": 2.9937500000000004
        },
        {
          "name": "C2",
          "midi": 36,
          "time": 15,
          "velocity": 1,
          "duration": 2.9937499999999986
        },
        {
          "name": "F1",
          "midi": 29,
          "time": 18,
          "velocity": 1,
          "duration": 2.9937499999999986
        },
        {
          "name": "F1",
          "midi": 29,
          "time": 21,
          "velocity": 1,
          "duration": 2.9937499999999986
        },
        {
          "name": "C2",
          "midi": 36,
          "time": 24,
          "velocity": 0.9606299212598425,
          "duration": 2.9937499999999986
        },
        {
          "name": "C2",
          "midi": 36,
          "time": 27,
          "velocity": 1,
          "duration": 1.4937499999999986
        },
        {
          "name": "G1",
          "midi": 31,
          "time": 28.5,
          "velocity": 0.984251968503937,
          "duration": 1.4937499999999986
        },
        {
          "name": "C2",
          "midi": 36,
          "time": 30,
          "velocity": 1,
          "duration": 2.9937499999999986
        },
        {
          "name": "A#1",
          "midi": 34,
          "time": 33,
          "velocity": 1,
          "duration": 1.4937499999999986
        },
        {
          "name": "A#1",
          "midi": 34,
          "time": 34.5,
          "velocity": 1,
          "duration": 1.4937499999999986
        },
        {
          "name": "D#2",
          "midi": 39,
          "time": 36,
          "velocity": 1,
          "duration": 2.9937499999999986
        },
        {
          "name": "C#2",
          "midi": 37,
          "time": 39,
          "velocity": 0.984251968503937,
          "duration": 1.4937499999999986
        },
        {
          "name": "F1",
          "midi": 29,
          "time": 40.5,
          "velocity": 0.9763779527559056,
          "duration": 1.4937499999999986
        },
        {
          "name": "G1",
          "midi": 31,
          "time": 42,
          "velocity": 0.9763779527559056,
          "duration": 2.9937499999999986
        },
        {
          "name": "C2",
          "midi": 36,
          "time": 45,
          "velocity": 1,
          "duration": 1.4937499999999986
        },
        {
          "name": "F1",
          "midi": 29,
          "time": 46.5,
          "velocity": 0.9921259842519685,
          "duration": 1.4937499999999986
        },
        {
          "name": "C2",
          "midi": 36,
          "time": 48,
          "velocity": 1,
          "duration": 2.9937499999999986
        },
        {
          "name": "C2",
          "midi": 36,
          "time": 51,
          "velocity": 0.9921259842519685,
          "duration": 1.4937499999999986
        },
        {
          "name": "F1",
          "midi": 29,
          "time": 52.5,
          "velocity": 0.9921259842519685,
          "duration": 1.4937499999999986
        },
        {
          "name": "F1",
          "midi": 29,
          "time": 54,
          "velocity": 0.9921259842519685,
          "duration": 1.4937499999999986
        },
        {
          "name": "F1",
          "midi": 29,
          "time": 55.5,
          "velocity": 0.984251968503937,
          "duration": 1.4937499999999986
        },
        {
          "name": "F1",
          "midi": 29,
          "time": 57,
          "velocity": 0.9921259842519685,
          "duration": 2.9937499999999986
        },
        {
          "name": "C2",
          "midi": 36,
          "time": 60,
          "velocity": 0.968503937007874,
          "duration": 2.9937499999999986
        },
        {
          "name": "G1",
          "midi": 31,
          "time": 63,
          "velocity": 0.9763779527559056,
          "duration": 2.9937500000000057
        },
        {
          "name": "C2",
          "midi": 36,
          "time": 66,
          "velocity": 0.952755905511811,
          "duration": 2.9937500000000057
        },
        {
          "name": "C2",
          "midi": 36,
          "time": 69,
          "velocity": 0.952755905511811,
          "duration": 1.4937500000000057
        },
        {
          "name": "F1",
          "midi": 29,
          "time": 70.5,
          "velocity": 0.9448818897637795,
          "duration": 1.4937500000000057
        },
        {
          "name": "C2",
          "midi": 36,
          "time": 72,
          "velocity": 0.9448818897637795,
          "duration": 2.9937500000000057
        },
        {
          "name": "C2",
          "midi": 36,
          "time": 75,
          "velocity": 0.984251968503937,
          "duration": 2.9937500000000057
        },
        {
          "name": "F1",
          "midi": 29,
          "time": 78,
          "velocity": 0.968503937007874,
          "duration": 2.9937500000000057
        },
        {
          "name": "F1",
          "midi": 29,
          "time": 81,
          "velocity": 0.968503937007874,
          "duration": 2.9937500000000057
        },
        {
          "name": "C2",
          "midi": 36,
          "time": 84,
          "velocity": 1,
          "duration": 2.9937500000000057
        },
        {
          "name": "C2",
          "midi": 36,
          "time": 87,
          "velocity": 0.9763779527559056,
          "duration": 1.4937500000000057
        },
        {
          "name": "G1",
          "midi": 31,
          "time": 88.5,
          "velocity": 0.9921259842519685,
          "duration": 1.4937500000000057
        },
        {
          "name": "C2",
          "midi": 36,
          "time": 90,
          "velocity": 0.9921259842519685,
          "duration": 2.9937500000000057
        },
        {
          "name": "A#1",
          "midi": 34,
          "time": 93,
          "velocity": 0.968503937007874,
          "duration": 1.4937500000000057
        },
        {
          "name": "A#1",
          "midi": 34,
          "time": 94.5,
          "velocity": 0.9763779527559056,
          "duration": 1.4937500000000057
        },
        {
          "name": "D#2",
          "midi": 39,
          "time": 96,
          "velocity": 0.9921259842519685,
          "duration": 2.9937500000000057
        },
        {
          "name": "C#2",
          "midi": 37,
          "time": 99,
          "velocity": 0.984251968503937,
          "duration": 1.4937500000000057
        },
        {
          "name": "F1",
          "midi": 29,
          "time": 100.5,
          "velocity": 0.968503937007874,
          "duration": 1.4937500000000057
        },
        {
          "name": "G1",
          "midi": 31,
          "time": 102,
          "velocity": 1,
          "duration": 2.9937500000000057
        },
        {
          "name": "C2",
          "midi": 36,
          "time": 105,
          "velocity": 0.9763779527559056,
          "duration": 1.4937500000000057
        },
        {
          "name": "F1",
          "midi": 29,
          "time": 106.5,
          "velocity": 1,
          "duration": 1.4937500000000057
        },
        {
          "name": "C2",
          "midi": 36,
          "time": 108,
          "velocity": 0.9763779527559056,
          "duration": 2.9937500000000057
        },
        {
          "name": "C2",
          "midi": 36,
          "time": 111,
          "velocity": 0.968503937007874,
          "duration": 1.4937500000000057
        },
        {
          "name": "F1",
          "midi": 29,
          "time": 112.5,
          "velocity": 0.9763779527559056,
          "duration": 1.4937500000000057
        },
        {
          "name": "F1",
          "midi": 29,
          "time": 114,
          "velocity": 0.9921259842519685,
          "duration": 1.4937500000000057
        },
        {
          "name": "F1",
          "midi": 29,
          "time": 115.5,
          "velocity": 0.968503937007874,
          "duration": 1.4937500000000057
        },
        {
          "name": "F1",
          "midi": 29,
          "time": 117,
          "velocity": 0.9921259842519685,
          "duration": 2.9937500000000057
        },
        {
          "name": "C2",
          "midi": 36,
          "time": 120,
          "velocity": 0.9763779527559056,
          "duration": 2.9937500000000057
        },
        {
          "name": "G1",
          "midi": 31,
          "time": 123,
          "velocity": 1,
          "duration": 2.9937500000000057
        },
        {
          "name": "C2",
          "midi": 36,
          "time": 126,
          "velocity": 0.9606299212598425,
          "duration": 2.9937500000000057
        }
      ],
      "controlChanges": {
        "7": [
          {
            "number": 7,
            "time": 0,
            "value": 0.7086614173228346
          }
        ],
        "10": [
          {
            "number": 10,
            "time": 0,
            "value": 0.6692913385826772
          }
        ],
        "64": [
          {
            "number": 64,
            "time": 0,
            "value": 0
          }
        ]
      }
    },
    {
      "startTime": 8,
      "duration": 128.99375,
      "length": 492,
      "id": 8,
      "name": "DRUMS",
      "channelNumber": 9,
      "isPercussion": true,
      "notes": [
        {
          "name": "B2",
          "midi": 47,
          "time": 8,
          "velocity": 1,
          "duration": 0.11875000000000036
        },
        {
          "name": "B2",
          "midi": 47,
          "time": 8.125,
          "velocity": 1,
          "duration": 0.11875000000000036
        },
        {
          "name": "B2",
          "midi": 47,
          "time": 8.25,
          "velocity": 1,
          "duration": 0.11875000000000036
        },
        {
          "name": "A2",
          "midi": 45,
          "time": 8.25,
          "velocity": 1,
          "duration": 0.24375000000000036
        },
        {
          "name": "A2",
          "midi": 45,
          "time": 8.625,
          "velocity": 1,
          "duration": 0.24375000000000036
        },
        {
          "name": "C2",
          "midi": 36,
          "time": 9,
          "velocity": 1,
          "duration": 0.7437500000000004
        },
        {
          "name": "C#3",
          "midi": 49,
          "time": 9,
          "velocity": 0.8818897637795275,
          "duration": 2.9937500000000004
        },
        {
          "name": "F#3",
          "midi": 54,
          "time": 9,
          "velocity": 0.7952755905511811,
          "duration": 0.36875000000000036
        },
        {
          "name": "F#3",
          "midi": 54,
          "time": 9.375,
          "velocity": 0.7322834645669292,
          "duration": 0.36875000000000036
        },
        {
          "name": "F#3",
          "midi": 54,
          "time": 9.75,
          "velocity": 0.8110236220472441,
          "duration": 0.36875000000000036
        },
        {
          "name": "E2",
          "midi": 40,
          "time": 9.75,
          "velocity": 0.8267716535433071,
          "duration": 0.7437500000000004
        },
        {
          "name": "F#3",
          "midi": 54,
          "time": 10.125,
          "velocity": 0.7795275590551181,
          "duration": 0.36875000000000036
        },
        {
          "name": "C2",
          "midi": 36,
          "time": 10.5,
          "velocity": 0.9212598425196851,
          "duration": 0.7437500000000004
        },
        {
          "name": "F#3",
          "midi": 54,
          "time": 10.5,
          "velocity": 0.8818897637795275,
          "duration": 0.36875000000000036
        },
        {
          "name": "F#3",
          "midi": 54,
          "time": 10.875,
          "velocity": 0.8818897637795275,
          "duration": 0.36875000000000036
        },
        {
          "name": "F#3",
          "midi": 54,
          "time": 11.25,
          "velocity": 0.84251968503937,
          "duration": 0.36875000000000036
        },
        {
          "name": "E2",
          "midi": 40,
          "time": 11.25,
          "velocity": 0.6850393700787402,
          "duration": 0.7437500000000004
        },
        {
          "name": "F#3",
          "midi": 54,
          "time": 11.625,
          "velocity": 0.9212598425196851,
          "duration": 0.36875000000000036
        },
        {
          "name": "C2",
          "midi": 36,
          "time": 12,
          "velocity": 1,
          "duration": 0.7437500000000004
        },
        {
          "name": "F#3",
          "midi": 54,
          "time": 12,
          "velocity": 0.7952755905511811,
          "duration": 0.36875000000000036
        },
        {
          "name": "F#3",
          "midi": 54,
          "time": 12.375,
          "velocity": 0.7322834645669292,
          "duration": 0.36875000000000036
        },
        {
          "name": "F#3",
          "midi": 54,
          "time": 12.75,
          "velocity": 0.8110236220472441,
          "duration": 0.36875000000000036
        },
        {
          "name": "E2",
          "midi": 40,
          "time": 12.75,
          "velocity": 0.7480314960629921,
          "duration": 0.7437500000000004
        },
        {
          "name": "F#3",
          "midi": 54,
          "time": 13.125,
          "velocity": 0.7795275590551181,
          "duration": 0.36875000000000036
        },
        {
          "name": "C2",
          "midi": 36,
          "time": 13.5,
          "velocity": 0.937007874015748,
          "duration": 0.7437500000000004
        },
        {
          "name": "F#3",
          "midi": 54,
          "time": 13.5,
          "velocity": 0.8818897637795275,
          "duration": 0.36875000000000036
        },
        {
          "name": "F#3",
          "midi": 54,
          "time": 13.875,
          "velocity": 0.8818897637795275,
          "duration": 0.36875000000000036
        },
        {
          "name": "F#3",
          "midi": 54,
          "time": 14.25,
          "velocity": 0.84251968503937,
          "duration": 0.36875000000000036
        },
        {
          "name": "E2",
          "midi": 40,
          "time": 14.25,
          "velocity": 0.8267716535433071,
          "duration": 0.7437500000000004
        },
        {
          "name": "F#3",
          "midi": 54,
          "time": 14.625,
          "velocity": 0.9212598425196851,
          "duration": 0.36875000000000036
        },
        {
          "name": "C2",
          "midi": 36,
          "time": 15,
          "velocity": 0.937007874015748,
          "duration": 0.7437500000000004
        },
        {
          "name": "F#3",
          "midi": 54,
          "time": 15,
          "velocity": 0.7952755905511811,
          "duration": 0.36875000000000036
        },
        {
          "name": "F#3",
          "midi": 54,
          "time": 15.375,
          "velocity": 0.7322834645669292,
          "duration": 0.36875000000000036
        },
        {
          "name": "F#3",
          "midi": 54,
          "time": 15.75,
          "velocity": 0.8110236220472441,
          "duration": 0.3687499999999986
        },
        {
          "name": "E2",
          "midi": 40,
          "time": 15.75,
          "velocity": 0.8818897637795275,
          "duration": 0.7437499999999986
        },
        {
          "name": "F#3",
          "midi": 54,
          "time": 16.125,
          "velocity": 0.7795275590551181,
          "duration": 0.3687499999999986
        },
        {
          "name": "C2",
          "midi": 36,
          "time": 16.5,
          "velocity": 0.905511811023622,
          "duration": 0.7437499999999986
        },
        {
          "name": "F#3",
          "midi": 54,
          "time": 16.5,
          "velocity": 0.8818897637795275,
          "duration": 0.3687499999999986
        },
        {
          "name": "F#3",
          "midi": 54,
          "time": 16.875,
          "velocity": 0.8818897637795275,
          "duration": 0.3687499999999986
        },
        {
          "name": "F#3",
          "midi": 54,
          "time": 17.25,
          "velocity": 0.84251968503937,
          "duration": 0.3687499999999986
        },
        {
          "name": "E2",
          "midi": 40,
          "time": 17.25,
          "velocity": 0.8110236220472441,
          "duration": 0.7437499999999986
        },
        {
          "name": "F#3",
          "midi": 54,
          "time": 17.625,
          "velocity": 0.9212598425196851,
          "duration": 0.3687499999999986
        },
        {
          "name": "C2",
          "midi": 36,
          "time": 18,
          "velocity": 0.905511811023622,
          "duration": 0.7437499999999986
        },
        {
          "name": "F#3",
          "midi": 54,
          "time": 18,
          "velocity": 0.7952755905511811,
          "duration": 0.3687499999999986
        },
        {
          "name": "F#3",
          "midi": 54,
          "time": 18.375,
          "velocity": 0.7322834645669292,
          "duration": 0.3687499999999986
        },
        {
          "name": "F#3",
          "midi": 54,
          "time": 18.75,
          "velocity": 0.8110236220472441,
          "duration": 0.3687499999999986
        },
        {
          "name": "E2",
          "midi": 40,
          "time": 18.75,
          "velocity": 0.8661417322834646,
          "duration": 0.7437499999999986
        },
        {
          "name": "F#3",
          "midi": 54,
          "time": 19.125,
          "velocity": 0.7795275590551181,
          "duration": 0.3687499999999986
        },
        {
          "name": "C2",
          "midi": 36,
          "time": 19.5,
          "velocity": 0.84251968503937,
          "duration": 0.7437499999999986
        },
        {
          "name": "F#3",
          "midi": 54,
          "time": 19.5,
          "velocity": 0.8818897637795275,
          "duration": 0.3687499999999986
        },
        {
          "name": "F#3",
          "midi": 54,
          "time": 19.875,
          "velocity": 0.8818897637795275,
          "duration": 0.3687499999999986
        },
        {
          "name": "F#3",
          "midi": 54,
          "time": 20.25,
          "velocity": 0.84251968503937,
          "duration": 0.3687499999999986
        },
        {
          "name": "E2",
          "midi": 40,
          "time": 20.25,
          "velocity": 0.8818897637795275,
          "duration": 0.7437499999999986
        },
        {
          "name": "F#3",
          "midi": 54,
          "time": 20.625,
          "velocity": 0.9212598425196851,
          "duration": 0.3687499999999986
        },
        {
          "name": "C2",
          "midi": 36,
          "time": 21,
          "velocity": 0.937007874015748,
          "duration": 0.7437499999999986
        },
        {
          "name": "F#3",
          "midi": 54,
          "time": 21,
          "velocity": 0.7952755905511811,
          "duration": 0.3687499999999986
        },
        {
          "name": "F#3",
          "midi": 54,
          "time": 21.375,
          "velocity": 0.7322834645669292,
          "duration": 0.3687499999999986
        },
        {
          "name": "F#3",
          "midi": 54,
          "time": 21.75,
          "velocity": 0.8110236220472441,
          "duration": 0.3687499999999986
        },
        {
          "name": "E2",
          "midi": 40,
          "time": 21.75,
          "velocity": 0.8818897637795275,
          "duration": 0.7437499999999986
        },
        {
          "name": "F#3",
          "midi": 54,
          "time": 22.125,
          "velocity": 0.7795275590551181,
          "duration": 0.3687499999999986
        },
        {
          "name": "C2",
          "midi": 36,
          "time": 22.5,
          "velocity": 0.9212598425196851,
          "duration": 0.7437499999999986
        },
        {
          "name": "F#3",
          "midi": 54,
          "time": 22.5,
          "velocity": 0.8818897637795275,
          "duration": 0.3687499999999986
        },
        {
          "name": "F#3",
          "midi": 54,
          "time": 22.875,
          "velocity": 0.8818897637795275,
          "duration": 0.3687499999999986
        },
        {
          "name": "F#3",
          "midi": 54,
          "time": 23.25,
          "velocity": 0.84251968503937,
          "duration": 0.3687499999999986
        },
        {
          "name": "E2",
          "midi": 40,
          "time": 23.25,
          "velocity": 0.937007874015748,
          "duration": 0.7437499999999986
        },
        {
          "name": "F#3",
          "midi": 54,
          "time": 23.625,
          "velocity": 0.9212598425196851,
          "duration": 0.3687499999999986
        },
        {
          "name": "C2",
          "midi": 36,
          "time": 24,
          "velocity": 0.937007874015748,
          "duration": 0.7437499999999986
        },
        {
          "name": "F#3",
          "midi": 54,
          "time": 24,
          "velocity": 0.7952755905511811,
          "duration": 0.3687499999999986
        },
        {
          "name": "F#3",
          "midi": 54,
          "time": 24.375,
          "velocity": 0.7322834645669292,
          "duration": 0.3687499999999986
        },
        {
          "name": "F#3",
          "midi": 54,
          "time": 24.75,
          "velocity": 0.8110236220472441,
          "duration": 0.3687499999999986
        },
        {
          "name": "E2",
          "midi": 40,
          "time": 24.75,
          "velocity": 0.8818897637795275,
          "duration": 0.7437499999999986
        },
        {
          "name": "F#3",
          "midi": 54,
          "time": 25.125,
          "velocity": 0.7795275590551181,
          "duration": 0.3687499999999986
        },
        {
          "name": "C2",
          "midi": 36,
          "time": 25.5,
          "velocity": 0.8818897637795275,
          "duration": 0.7437499999999986
        },
        {
          "name": "F#3",
          "midi": 54,
          "time": 25.5,
          "velocity": 0.8818897637795275,
          "duration": 0.3687499999999986
        },
        {
          "name": "F#3",
          "midi": 54,
          "time": 25.875,
          "velocity": 0.8818897637795275,
          "duration": 0.3687499999999986
        },
        {
          "name": "F#3",
          "midi": 54,
          "time": 26.25,
          "velocity": 0.84251968503937,
          "duration": 0.3687499999999986
        },
        {
          "name": "E2",
          "midi": 40,
          "time": 26.25,
          "velocity": 0.8818897637795275,
          "duration": 0.7437499999999986
        },
        {
          "name": "F#3",
          "midi": 54,
          "time": 26.625,
          "velocity": 0.9212598425196851,
          "duration": 0.3687499999999986
        },
        {
          "name": "C2",
          "midi": 36,
          "time": 27,
          "velocity": 0.937007874015748,
          "duration": 0.7437499999999986
        },
        {
          "name": "F#3",
          "midi": 54,
          "time": 27,
          "velocity": 0.7952755905511811,
          "duration": 0.3687499999999986
        },
        {
          "name": "F#3",
          "midi": 54,
          "time": 27.375,
          "velocity": 0.7322834645669292,
          "duration": 0.3687499999999986
        },
        {
          "name": "F#3",
          "midi": 54,
          "time": 27.75,
          "velocity": 0.8110236220472441,
          "duration": 0.3687499999999986
        },
        {
          "name": "E2",
          "midi": 40,
          "time": 27.75,
          "velocity": 0.84251968503937,
          "duration": 0.7437499999999986
        },
        {
          "name": "F#3",
          "midi": 54,
          "time": 28.125,
          "velocity": 0.7795275590551181,
          "duration": 0.3687499999999986
        },
        {
          "name": "C2",
          "midi": 36,
          "time": 28.5,
          "velocity": 0.937007874015748,
          "duration": 0.7437499999999986
        },
        {
          "name": "F#3",
          "midi": 54,
          "time": 28.5,
          "velocity": 0.8818897637795275,
          "duration": 0.3687499999999986
        },
        {
          "name": "F#3",
          "midi": 54,
          "time": 28.875,
          "velocity": 0.8818897637795275,
          "duration": 0.3687499999999986
        },
        {
          "name": "F#3",
          "midi": 54,
          "time": 29.25,
          "velocity": 0.84251968503937,
          "duration": 0.3687499999999986
        },
        {
          "name": "E2",
          "midi": 40,
          "time": 29.25,
          "velocity": 0.8818897637795275,
          "duration": 0.7437499999999986
        },
        {
          "name": "F#3",
          "midi": 54,
          "time": 29.625,
          "velocity": 0.9212598425196851,
          "duration": 0.3687499999999986
        },
        {
          "name": "C2",
          "midi": 36,
          "time": 30,
          "velocity": 0.937007874015748,
          "duration": 0.7437499999999986
        },
        {
          "name": "F#3",
          "midi": 54,
          "time": 30,
          "velocity": 0.7952755905511811,
          "duration": 0.3687499999999986
        },
        {
          "name": "F#3",
          "midi": 54,
          "time": 30.375,
          "velocity": 0.7322834645669292,
          "duration": 0.3687499999999986
        },
        {
          "name": "F#3",
          "midi": 54,
          "time": 30.75,
          "velocity": 0.8110236220472441,
          "duration": 0.3687499999999986
        },
        {
          "name": "E2",
          "midi": 40,
          "time": 30.75,
          "velocity": 0.937007874015748,
          "duration": 0.7437499999999986
        },
        {
          "name": "F#3",
          "midi": 54,
          "time": 31.125,
          "velocity": 0.7795275590551181,
          "duration": 0.3687499999999986
        },
        {
          "name": "C2",
          "midi": 36,
          "time": 31.5,
          "velocity": 0.968503937007874,
          "duration": 0.7437499999999986
        },
        {
          "name": "F#3",
          "midi": 54,
          "time": 31.5,
          "velocity": 0.8818897637795275,
          "duration": 0.3687499999999986
        },
        {
          "name": "F#3",
          "midi": 54,
          "time": 31.875,
          "velocity": 0.8818897637795275,
          "duration": 0.3687499999999986
        },
        {
          "name": "F#3",
          "midi": 54,
          "time": 32.25,
          "velocity": 0.84251968503937,
          "duration": 0.3687499999999986
        },
        {
          "name": "E2",
          "midi": 40,
          "time": 32.25,
          "velocity": 0.9212598425196851,
          "duration": 0.7437499999999986
        },
        {
          "name": "F#3",
          "midi": 54,
          "time": 32.625,
          "velocity": 0.9212598425196851,
          "duration": 0.3687499999999986
        },
        {
          "name": "C2",
          "midi": 36,
          "time": 33,
          "velocity": 0.937007874015748,
          "duration": 0.7437499999999986
        },
        {
          "name": "C#3",
          "midi": 49,
          "time": 33,
          "velocity": 1,
          "duration": 2.9937499999999986
        },
        {
          "name": "F#3",
          "midi": 54,
          "time": 33,
          "velocity": 0.7952755905511811,
          "duration": 0.3687499999999986
        },
        {
          "name": "F#3",
          "midi": 54,
          "time": 33.375,
          "velocity": 0.7322834645669292,
          "duration": 0.3687499999999986
        },
        {
          "name": "F#3",
          "midi": 54,
          "time": 33.75,
          "velocity": 0.8110236220472441,
          "duration": 0.3687499999999986
        },
        {
          "name": "E2",
          "midi": 40,
          "time": 33.75,
          "velocity": 0.8267716535433071,
          "duration": 0.7437499999999986
        },
        {
          "name": "F#3",
          "midi": 54,
          "time": 34.125,
          "velocity": 0.7795275590551181,
          "duration": 0.3687499999999986
        },
        {
          "name": "C2",
          "midi": 36,
          "time": 34.5,
          "velocity": 0.905511811023622,
          "duration": 0.7437499999999986
        },
        {
          "name": "F#3",
          "midi": 54,
          "time": 34.5,
          "velocity": 0.8818897637795275,
          "duration": 0.3687499999999986
        },
        {
          "name": "F#3",
          "midi": 54,
          "time": 34.875,
          "velocity": 0.8818897637795275,
          "duration": 0.3687499999999986
        },
        {
          "name": "F#3",
          "midi": 54,
          "time": 35.25,
          "velocity": 0.84251968503937,
          "duration": 0.3687499999999986
        },
        {
          "name": "E2",
          "midi": 40,
          "time": 35.25,
          "velocity": 0.6850393700787402,
          "duration": 0.7437499999999986
        },
        {
          "name": "F#3",
          "midi": 54,
          "time": 35.625,
          "velocity": 0.9212598425196851,
          "duration": 0.3687499999999986
        },
        {
          "name": "C2",
          "midi": 36,
          "time": 36,
          "velocity": 0.8818897637795275,
          "duration": 0.7437499999999986
        },
        {
          "name": "F#3",
          "midi": 54,
          "time": 36,
          "velocity": 0.7952755905511811,
          "duration": 0.3687499999999986
        },
        {
          "name": "F#3",
          "midi": 54,
          "time": 36.375,
          "velocity": 0.7322834645669292,
          "duration": 0.3687499999999986
        },
        {
          "name": "F#3",
          "midi": 54,
          "time": 36.75,
          "velocity": 0.8110236220472441,
          "duration": 0.3687499999999986
        },
        {
          "name": "E2",
          "midi": 40,
          "time": 36.75,
          "velocity": 0.7480314960629921,
          "duration": 0.7437499999999986
        },
        {
          "name": "F#3",
          "midi": 54,
          "time": 37.125,
          "velocity": 0.7795275590551181,
          "duration": 0.3687499999999986
        },
        {
          "name": "C2",
          "midi": 36,
          "time": 37.5,
          "velocity": 0.937007874015748,
          "duration": 0.7437499999999986
        },
        {
          "name": "F#3",
          "midi": 54,
          "time": 37.5,
          "velocity": 0.8818897637795275,
          "duration": 0.3687499999999986
        },
        {
          "name": "F#3",
          "midi": 54,
          "time": 37.875,
          "velocity": 0.8818897637795275,
          "duration": 0.3687499999999986
        },
        {
          "name": "F#3",
          "midi": 54,
          "time": 38.25,
          "velocity": 0.84251968503937,
          "duration": 0.3687499999999986
        },
        {
          "name": "E2",
          "midi": 40,
          "time": 38.25,
          "velocity": 0.8267716535433071,
          "duration": 0.7437499999999986
        },
        {
          "name": "F#3",
          "midi": 54,
          "time": 38.625,
          "velocity": 0.9212598425196851,
          "duration": 0.3687499999999986
        },
        {
          "name": "C2",
          "midi": 36,
          "time": 39,
          "velocity": 0.9212598425196851,
          "duration": 0.7437499999999986
        },
        {
          "name": "F#3",
          "midi": 54,
          "time": 39,
          "velocity": 0.7952755905511811,
          "duration": 0.3687499999999986
        },
        {
          "name": "F#3",
          "midi": 54,
          "time": 39.375,
          "velocity": 0.7322834645669292,
          "duration": 0.3687499999999986
        },
        {
          "name": "F#3",
          "midi": 54,
          "time": 39.75,
          "velocity": 0.8110236220472441,
          "duration": 0.3687499999999986
        },
        {
          "name": "E2",
          "midi": 40,
          "time": 39.75,
          "velocity": 0.8818897637795275,
          "duration": 0.7437499999999986
        },
        {
          "name": "F#3",
          "midi": 54,
          "time": 40.125,
          "velocity": 0.7795275590551181,
          "duration": 0.3687499999999986
        },
        {
          "name": "C2",
          "midi": 36,
          "time": 40.5,
          "velocity": 0.9212598425196851,
          "duration": 0.7437499999999986
        },
        {
          "name": "F#3",
          "midi": 54,
          "time": 40.5,
          "velocity": 0.8818897637795275,
          "duration": 0.3687499999999986
        },
        {
          "name": "F#3",
          "midi": 54,
          "time": 40.875,
          "velocity": 0.8818897637795275,
          "duration": 0.3687499999999986
        },
        {
          "name": "F#3",
          "midi": 54,
          "time": 41.25,
          "velocity": 0.84251968503937,
          "duration": 0.3687499999999986
        },
        {
          "name": "E2",
          "midi": 40,
          "time": 41.25,
          "velocity": 0.8110236220472441,
          "duration": 0.7437499999999986
        },
        {
          "name": "F#3",
          "midi": 54,
          "time": 41.625,
          "velocity": 0.9212598425196851,
          "duration": 0.3687499999999986
        },
        {
          "name": "C2",
          "midi": 36,
          "time": 42,
          "velocity": 0.905511811023622,
          "duration": 0.7437499999999986
        },
        {
          "name": "F#3",
          "midi": 54,
          "time": 42,
          "velocity": 0.7952755905511811,
          "duration": 0.3687499999999986
        },
        {
          "name": "F#3",
          "midi": 54,
          "time": 42.375,
          "velocity": 0.7322834645669292,
          "duration": 0.3687499999999986
        },
        {
          "name": "F#3",
          "midi": 54,
          "time": 42.75,
          "velocity": 0.8110236220472441,
          "duration": 0.3687499999999986
        },
        {
          "name": "E2",
          "midi": 40,
          "time": 42.75,
          "velocity": 0.8661417322834646,
          "duration": 0.7437499999999986
        },
        {
          "name": "F#3",
          "midi": 54,
          "time": 43.125,
          "velocity": 0.7795275590551181,
          "duration": 0.3687499999999986
        },
        {
          "name": "C2",
          "midi": 36,
          "time": 43.5,
          "velocity": 0.905511811023622,
          "duration": 0.7437499999999986
        },
        {
          "name": "F#3",
          "midi": 54,
          "time": 43.5,
          "velocity": 0.8818897637795275,
          "duration": 0.3687499999999986
        },
        {
          "name": "F#3",
          "midi": 54,
          "time": 43.875,
          "velocity": 0.8818897637795275,
          "duration": 0.3687499999999986
        },
        {
          "name": "B2",
          "midi": 47,
          "time": 44,
          "velocity": 0.6456692913385826,
          "duration": 0.11874999999999858
        },
        {
          "name": "B2",
          "midi": 47,
          "time": 44.125,
          "velocity": 0.7401574803149606,
          "duration": 0.11874999999999858
        },
        {
          "name": "B2",
          "midi": 47,
          "time": 44.25,
          "velocity": 0.7795275590551181,
          "duration": 0.11874999999999858
        },
        {
          "name": "A2",
          "midi": 45,
          "time": 44.25,
          "velocity": 0.937007874015748,
          "duration": 0.24374999999999858
        },
        {
          "name": "F#3",
          "midi": 54,
          "time": 44.25,
          "velocity": 0.84251968503937,
          "duration": 0.3687499999999986
        },
        {
          "name": "E2",
          "midi": 40,
          "time": 44.25,
          "velocity": 0.8818897637795275,
          "duration": 0.7437499999999986
        },
        {
          "name": "A2",
          "midi": 45,
          "time": 44.625,
          "velocity": 0.937007874015748,
          "duration": 0.24374999999999858
        },
        {
          "name": "F#3",
          "midi": 54,
          "time": 44.625,
          "velocity": 0.9212598425196851,
          "duration": 0.3687499999999986
        },
        {
          "name": "C2",
          "midi": 36,
          "time": 45,
          "velocity": 0.9212598425196851,
          "duration": 0.7437499999999986
        },
        {
          "name": "C#3",
          "midi": 49,
          "time": 45,
          "velocity": 0.8110236220472441,
          "duration": 2.9937499999999986
        },
        {
          "name": "F#3",
          "midi": 54,
          "time": 45,
          "velocity": 0.7952755905511811,
          "duration": 0.3687499999999986
        },
        {
          "name": "F#3",
          "midi": 54,
          "time": 45.375,
          "velocity": 0.7322834645669292,
          "duration": 0.3687499999999986
        },
        {
          "name": "F#3",
          "midi": 54,
          "time": 45.75,
          "velocity": 0.8110236220472441,
          "duration": 0.3687499999999986
        },
        {
          "name": "E2",
          "midi": 40,
          "time": 45.75,
          "velocity": 0.8818897637795275,
          "duration": 0.7437499999999986
        },
        {
          "name": "F#3",
          "midi": 54,
          "time": 46.125,
          "velocity": 0.7795275590551181,
          "duration": 0.3687499999999986
        },
        {
          "name": "C2",
          "midi": 36,
          "time": 46.5,
          "velocity": 0.937007874015748,
          "duration": 0.7437499999999986
        },
        {
          "name": "F#3",
          "midi": 54,
          "time": 46.5,
          "velocity": 0.8818897637795275,
          "duration": 0.3687499999999986
        },
        {
          "name": "F#3",
          "midi": 54,
          "time": 46.875,
          "velocity": 0.8818897637795275,
          "duration": 0.3687499999999986
        },
        {
          "name": "F#3",
          "midi": 54,
          "time": 47.25,
          "velocity": 0.84251968503937,
          "duration": 0.3687499999999986
        },
        {
          "name": "E2",
          "midi": 40,
          "time": 47.25,
          "velocity": 0.937007874015748,
          "duration": 0.7437499999999986
        },
        {
          "name": "F#3",
          "midi": 54,
          "time": 47.625,
          "velocity": 0.9212598425196851,
          "duration": 0.3687499999999986
        },
        {
          "name": "C2",
          "midi": 36,
          "time": 48,
          "velocity": 0.905511811023622,
          "duration": 0.7437499999999986
        },
        {
          "name": "F#3",
          "midi": 54,
          "time": 48,
          "velocity": 0.7952755905511811,
          "duration": 0.3687499999999986
        },
        {
          "name": "F#3",
          "midi": 54,
          "time": 48.375,
          "velocity": 0.7322834645669292,
          "duration": 0.3687499999999986
        },
        {
          "name": "F#3",
          "midi": 54,
          "time": 48.75,
          "velocity": 0.8110236220472441,
          "duration": 0.3687499999999986
        },
        {
          "name": "E2",
          "midi": 40,
          "time": 48.75,
          "velocity": 0.8818897637795275,
          "duration": 0.7437499999999986
        },
        {
          "name": "F#3",
          "midi": 54,
          "time": 49.125,
          "velocity": 0.7795275590551181,
          "duration": 0.3687499999999986
        },
        {
          "name": "C2",
          "midi": 36,
          "time": 49.5,
          "velocity": 0.937007874015748,
          "duration": 0.7437499999999986
        },
        {
          "name": "F#3",
          "midi": 54,
          "time": 49.5,
          "velocity": 0.8818897637795275,
          "duration": 0.3687499999999986
        },
        {
          "name": "F#3",
          "midi": 54,
          "time": 49.875,
          "velocity": 0.8818897637795275,
          "duration": 0.3687499999999986
        },
        {
          "name": "F#3",
          "midi": 54,
          "time": 50.25,
          "velocity": 0.84251968503937,
          "duration": 0.3687499999999986
        },
        {
          "name": "E2",
          "midi": 40,
          "time": 50.25,
          "velocity": 0.8818897637795275,
          "duration": 0.7437499999999986
        },
        {
          "name": "F#3",
          "midi": 54,
          "time": 50.625,
          "velocity": 0.9212598425196851,
          "duration": 0.3687499999999986
        },
        {
          "name": "C2",
          "midi": 36,
          "time": 51,
          "velocity": 0.984251968503937,
          "duration": 0.7437499999999986
        },
        {
          "name": "F#3",
          "midi": 54,
          "time": 51,
          "velocity": 0.7952755905511811,
          "duration": 0.3687499999999986
        },
        {
          "name": "F#3",
          "midi": 54,
          "time": 51.375,
          "velocity": 0.7322834645669292,
          "duration": 0.3687499999999986
        },
        {
          "name": "F#3",
          "midi": 54,
          "time": 51.75,
          "velocity": 0.8110236220472441,
          "duration": 0.3687499999999986
        },
        {
          "name": "E2",
          "midi": 40,
          "time": 51.75,
          "velocity": 0.84251968503937,
          "duration": 0.7437499999999986
        },
        {
          "name": "F#3",
          "midi": 54,
          "time": 52.125,
          "velocity": 0.7795275590551181,
          "duration": 0.3687499999999986
        },
        {
          "name": "C2",
          "midi": 36,
          "time": 52.5,
          "velocity": 0.937007874015748,
          "duration": 0.7437499999999986
        },
        {
          "name": "F#3",
          "midi": 54,
          "time": 52.5,
          "velocity": 0.8818897637795275,
          "duration": 0.3687499999999986
        },
        {
          "name": "F#3",
          "midi": 54,
          "time": 52.875,
          "velocity": 0.8818897637795275,
          "duration": 0.3687499999999986
        },
        {
          "name": "F#3",
          "midi": 54,
          "time": 53.25,
          "velocity": 0.84251968503937,
          "duration": 0.3687499999999986
        },
        {
          "name": "E2",
          "midi": 40,
          "time": 53.25,
          "velocity": 0.8818897637795275,
          "duration": 0.7437499999999986
        },
        {
          "name": "F#3",
          "midi": 54,
          "time": 53.625,
          "velocity": 0.9212598425196851,
          "duration": 0.3687499999999986
        },
        {
          "name": "C2",
          "midi": 36,
          "time": 54,
          "velocity": 0.8661417322834646,
          "duration": 0.7437499999999986
        },
        {
          "name": "F#3",
          "midi": 54,
          "time": 54,
          "velocity": 0.7952755905511811,
          "duration": 0.3687499999999986
        },
        {
          "name": "F#3",
          "midi": 54,
          "time": 54.375,
          "velocity": 0.7322834645669292,
          "duration": 0.3687499999999986
        },
        {
          "name": "F#3",
          "midi": 54,
          "time": 54.75,
          "velocity": 0.8110236220472441,
          "duration": 0.3687499999999986
        },
        {
          "name": "E2",
          "midi": 40,
          "time": 54.75,
          "velocity": 0.937007874015748,
          "duration": 0.7437499999999986
        },
        {
          "name": "F#3",
          "midi": 54,
          "time": 55.125,
          "velocity": 0.7795275590551181,
          "duration": 0.3687499999999986
        },
        {
          "name": "C2",
          "midi": 36,
          "time": 55.5,
          "velocity": 0.9212598425196851,
          "duration": 0.7437499999999986
        },
        {
          "name": "F#3",
          "midi": 54,
          "time": 55.5,
          "velocity": 0.8818897637795275,
          "duration": 0.3687499999999986
        },
        {
          "name": "F#3",
          "midi": 54,
          "time": 55.875,
          "velocity": 0.8818897637795275,
          "duration": 0.3687499999999986
        },
        {
          "name": "F#3",
          "midi": 54,
          "time": 56.25,
          "velocity": 0.84251968503937,
          "duration": 0.3687499999999986
        },
        {
          "name": "E2",
          "midi": 40,
          "time": 56.25,
          "velocity": 0.9212598425196851,
          "duration": 0.7437499999999986
        },
        {
          "name": "F#3",
          "midi": 54,
          "time": 56.625,
          "velocity": 0.9212598425196851,
          "duration": 0.3687499999999986
        },
        {
          "name": "C2",
          "midi": 36,
          "time": 57,
          "velocity": 0.8661417322834646,
          "duration": 0.7437499999999986
        },
        {
          "name": "F#3",
          "midi": 54,
          "time": 57,
          "velocity": 0.7952755905511811,
          "duration": 0.3687499999999986
        },
        {
          "name": "F#3",
          "midi": 54,
          "time": 57.375,
          "velocity": 0.7322834645669292,
          "duration": 0.3687499999999986
        },
        {
          "name": "F#3",
          "midi": 54,
          "time": 57.75,
          "velocity": 0.8110236220472441,
          "duration": 0.3687499999999986
        },
        {
          "name": "E2",
          "midi": 40,
          "time": 57.75,
          "velocity": 0.8267716535433071,
          "duration": 0.7437499999999986
        },
        {
          "name": "F#3",
          "midi": 54,
          "time": 58.125,
          "velocity": 0.7795275590551181,
          "duration": 0.3687499999999986
        },
        {
          "name": "C2",
          "midi": 36,
          "time": 58.5,
          "velocity": 0.968503937007874,
          "duration": 0.7437499999999986
        },
        {
          "name": "F#3",
          "midi": 54,
          "time": 58.5,
          "velocity": 0.8818897637795275,
          "duration": 0.3687499999999986
        },
        {
          "name": "F#3",
          "midi": 54,
          "time": 58.875,
          "velocity": 0.8818897637795275,
          "duration": 0.3687499999999986
        },
        {
          "name": "F#3",
          "midi": 54,
          "time": 59.25,
          "velocity": 0.84251968503937,
          "duration": 0.3687499999999986
        },
        {
          "name": "E2",
          "midi": 40,
          "time": 59.25,
          "velocity": 0.6850393700787402,
          "duration": 0.7437499999999986
        },
        {
          "name": "F#3",
          "midi": 54,
          "time": 59.625,
          "velocity": 0.9212598425196851,
          "duration": 0.3687499999999986
        },
        {
          "name": "C2",
          "midi": 36,
          "time": 60,
          "velocity": 0.937007874015748,
          "duration": 0.7437499999999986
        },
        {
          "name": "F#3",
          "midi": 54,
          "time": 60,
          "velocity": 0.7952755905511811,
          "duration": 0.3687499999999986
        },
        {
          "name": "F#3",
          "midi": 54,
          "time": 60.375,
          "velocity": 0.7322834645669292,
          "duration": 0.3687499999999986
        },
        {
          "name": "F#3",
          "midi": 54,
          "time": 60.75,
          "velocity": 0.8110236220472441,
          "duration": 0.3687499999999986
        },
        {
          "name": "E2",
          "midi": 40,
          "time": 60.75,
          "velocity": 0.7480314960629921,
          "duration": 0.7437499999999986
        },
        {
          "name": "F#3",
          "midi": 54,
          "time": 61.125,
          "velocity": 0.7795275590551181,
          "duration": 0.3687499999999986
        },
        {
          "name": "C2",
          "midi": 36,
          "time": 61.5,
          "velocity": 0.937007874015748,
          "duration": 0.7437499999999986
        },
        {
          "name": "F#3",
          "midi": 54,
          "time": 61.5,
          "velocity": 0.8818897637795275,
          "duration": 0.3687499999999986
        },
        {
          "name": "F#3",
          "midi": 54,
          "time": 61.875,
          "velocity": 0.8818897637795275,
          "duration": 0.3687499999999986
        },
        {
          "name": "F#3",
          "midi": 54,
          "time": 62.25,
          "velocity": 0.84251968503937,
          "duration": 0.3687499999999986
        },
        {
          "name": "E2",
          "midi": 40,
          "time": 62.25,
          "velocity": 0.8267716535433071,
          "duration": 0.7437499999999986
        },
        {
          "name": "F#3",
          "midi": 54,
          "time": 62.625,
          "velocity": 0.9212598425196851,
          "duration": 0.3687499999999986
        },
        {
          "name": "C2",
          "midi": 36,
          "time": 63,
          "velocity": 0.8661417322834646,
          "duration": 1.4937500000000057
        },
        {
          "name": "F#3",
          "midi": 54,
          "time": 63,
          "velocity": 0.7952755905511811,
          "duration": 0.3687499999999986
        },
        {
          "name": "F#3",
          "midi": 54,
          "time": 63.375,
          "velocity": 0.7322834645669292,
          "duration": 0.3687499999999986
        },
        {
          "name": "F#3",
          "midi": 54,
          "time": 63.75,
          "velocity": 0.8110236220472441,
          "duration": 0.3687500000000057
        },
        {
          "name": "E2",
          "midi": 40,
          "time": 63.75,
          "velocity": 0.8818897637795275,
          "duration": 0.7437500000000057
        },
        {
          "name": "F#3",
          "midi": 54,
          "time": 64.125,
          "velocity": 0.7795275590551181,
          "duration": 0.3687500000000057
        },
        {
          "name": "C2",
          "midi": 36,
          "time": 64.5,
          "velocity": 0.8818897637795275,
          "duration": 0.7437500000000057
        },
        {
          "name": "F#3",
          "midi": 54,
          "time": 64.5,
          "velocity": 0.8818897637795275,
          "duration": 0.3687500000000057
        },
        {
          "name": "F#3",
          "midi": 54,
          "time": 64.875,
          "velocity": 0.8818897637795275,
          "duration": 0.3687500000000057
        },
        {
          "name": "F#3",
          "midi": 54,
          "time": 65.25,
          "velocity": 0.84251968503937,
          "duration": 0.3687500000000057
        },
        {
          "name": "E2",
          "midi": 40,
          "time": 65.25,
          "velocity": 0.8110236220472441,
          "duration": 0.7437500000000057
        },
        {
          "name": "F#3",
          "midi": 54,
          "time": 65.625,
          "velocity": 0.9212598425196851,
          "duration": 0.3687500000000057
        },
        {
          "name": "C2",
          "midi": 36,
          "time": 66,
          "velocity": 0.8818897637795275,
          "duration": 0.7437500000000057
        },
        {
          "name": "F#3",
          "midi": 54,
          "time": 66,
          "velocity": 0.7952755905511811,
          "duration": 0.3687500000000057
        },
        {
          "name": "F#3",
          "midi": 54,
          "time": 66.375,
          "velocity": 0.7322834645669292,
          "duration": 0.3687500000000057
        },
        {
          "name": "F#3",
          "midi": 54,
          "time": 66.75,
          "velocity": 0.8110236220472441,
          "duration": 0.3687500000000057
        },
        {
          "name": "E2",
          "midi": 40,
          "time": 66.75,
          "velocity": 0.8661417322834646,
          "duration": 0.7437500000000057
        },
        {
          "name": "F#3",
          "midi": 54,
          "time": 67.125,
          "velocity": 0.7795275590551181,
          "duration": 0.3687500000000057
        },
        {
          "name": "C2",
          "midi": 36,
          "time": 67.5,
          "velocity": 0.984251968503937,
          "duration": 0.7437500000000057
        },
        {
          "name": "F#3",
          "midi": 54,
          "time": 67.5,
          "velocity": 0.8818897637795275,
          "duration": 0.3687500000000057
        },
        {
          "name": "F#3",
          "midi": 54,
          "time": 67.875,
          "velocity": 0.8818897637795275,
          "duration": 0.3687500000000057
        },
        {
          "name": "B2",
          "midi": 47,
          "time": 68,
          "velocity": 0.6456692913385826,
          "duration": 0.11875000000000568
        },
        {
          "name": "B2",
          "midi": 47,
          "time": 68.125,
          "velocity": 0.7401574803149606,
          "duration": 0.11875000000000568
        },
        {
          "name": "B2",
          "midi": 47,
          "time": 68.25,
          "velocity": 0.7795275590551181,
          "duration": 0.11875000000000568
        },
        {
          "name": "A2",
          "midi": 45,
          "time": 68.25,
          "velocity": 0.937007874015748,
          "duration": 0.24375000000000568
        },
        {
          "name": "F#3",
          "midi": 54,
          "time": 68.25,
          "velocity": 0.84251968503937,
          "duration": 0.3687500000000057
        },
        {
          "name": "E2",
          "midi": 40,
          "time": 68.25,
          "velocity": 0.8818897637795275,
          "duration": 0.7437500000000057
        },
        {
          "name": "A2",
          "midi": 45,
          "time": 68.625,
          "velocity": 0.937007874015748,
          "duration": 0.24375000000000568
        },
        {
          "name": "F#3",
          "midi": 54,
          "time": 68.625,
          "velocity": 0.9212598425196851,
          "duration": 0.3687500000000057
        },
        {
          "name": "C2",
          "midi": 36,
          "time": 69,
          "velocity": 1,
          "duration": 0.7437500000000057
        },
        {
          "name": "C#3",
          "midi": 49,
          "time": 69,
          "velocity": 0.8267716535433071,
          "duration": 2.9937500000000057
        },
        {
          "name": "F#3",
          "midi": 54,
          "time": 69,
          "velocity": 0.7952755905511811,
          "duration": 0.3687500000000057
        },
        {
          "name": "F#3",
          "midi": 54,
          "time": 69.375,
          "velocity": 0.7322834645669292,
          "duration": 0.3687500000000057
        },
        {
          "name": "F#3",
          "midi": 54,
          "time": 69.75,
          "velocity": 0.8110236220472441,
          "duration": 0.3687500000000057
        },
        {
          "name": "E2",
          "midi": 40,
          "time": 69.75,
          "velocity": 0.8267716535433071,
          "duration": 0.7437500000000057
        },
        {
          "name": "F#3",
          "midi": 54,
          "time": 70.125,
          "velocity": 0.7795275590551181,
          "duration": 0.3687500000000057
        },
        {
          "name": "C2",
          "midi": 36,
          "time": 70.5,
          "velocity": 0.9212598425196851,
          "duration": 0.7437500000000057
        },
        {
          "name": "F#3",
          "midi": 54,
          "time": 70.5,
          "velocity": 0.8818897637795275,
          "duration": 0.3687500000000057
        },
        {
          "name": "F#3",
          "midi": 54,
          "time": 70.875,
          "velocity": 0.8818897637795275,
          "duration": 0.3687500000000057
        },
        {
          "name": "F#3",
          "midi": 54,
          "time": 71.25,
          "velocity": 0.84251968503937,
          "duration": 0.3687500000000057
        },
        {
          "name": "E2",
          "midi": 40,
          "time": 71.25,
          "velocity": 0.6850393700787402,
          "duration": 0.7437500000000057
        },
        {
          "name": "F#3",
          "midi": 54,
          "time": 71.625,
          "velocity": 0.9212598425196851,
          "duration": 0.3687500000000057
        },
        {
          "name": "C2",
          "midi": 36,
          "time": 72,
          "velocity": 1,
          "duration": 0.7437500000000057
        },
        {
          "name": "F#3",
          "midi": 54,
          "time": 72,
          "velocity": 0.7952755905511811,
          "duration": 0.3687500000000057
        },
        {
          "name": "F#3",
          "midi": 54,
          "time": 72.375,
          "velocity": 0.7322834645669292,
          "duration": 0.3687500000000057
        },
        {
          "name": "F#3",
          "midi": 54,
          "time": 72.75,
          "velocity": 0.8110236220472441,
          "duration": 0.3687500000000057
        },
        {
          "name": "E2",
          "midi": 40,
          "time": 72.75,
          "velocity": 0.7480314960629921,
          "duration": 0.7437500000000057
        },
        {
          "name": "F#3",
          "midi": 54,
          "time": 73.125,
          "velocity": 0.7795275590551181,
          "duration": 0.3687500000000057
        },
        {
          "name": "C2",
          "midi": 36,
          "time": 73.5,
          "velocity": 0.937007874015748,
          "duration": 0.7437500000000057
        },
        {
          "name": "F#3",
          "midi": 54,
          "time": 73.5,
          "velocity": 0.8818897637795275,
          "duration": 0.3687500000000057
        },
        {
          "name": "F#3",
          "midi": 54,
          "time": 73.875,
          "velocity": 0.8818897637795275,
          "duration": 0.3687500000000057
        },
        {
          "name": "F#3",
          "midi": 54,
          "time": 74.25,
          "velocity": 0.84251968503937,
          "duration": 0.3687500000000057
        },
        {
          "name": "E2",
          "midi": 40,
          "time": 74.25,
          "velocity": 0.8267716535433071,
          "duration": 0.7437500000000057
        },
        {
          "name": "F#3",
          "midi": 54,
          "time": 74.625,
          "velocity": 0.9212598425196851,
          "duration": 0.3687500000000057
        },
        {
          "name": "C2",
          "midi": 36,
          "time": 75,
          "velocity": 0.937007874015748,
          "duration": 0.7437500000000057
        },
        {
          "name": "F#3",
          "midi": 54,
          "time": 75,
          "velocity": 0.7952755905511811,
          "duration": 0.3687500000000057
        },
        {
          "name": "F#3",
          "midi": 54,
          "time": 75.375,
          "velocity": 0.7322834645669292,
          "duration": 0.3687500000000057
        },
        {
          "name": "F#3",
          "midi": 54,
          "time": 75.75,
          "velocity": 0.8110236220472441,
          "duration": 0.3687500000000057
        },
        {
          "name": "E2",
          "midi": 40,
          "time": 75.75,
          "velocity": 0.8818897637795275,
          "duration": 0.7437500000000057
        },
        {
          "name": "F#3",
          "midi": 54,
          "time": 76.125,
          "velocity": 0.7795275590551181,
          "duration": 0.3687500000000057
        },
        {
          "name": "C2",
          "midi": 36,
          "time": 76.5,
          "velocity": 0.905511811023622,
          "duration": 0.7437500000000057
        },
        {
          "name": "F#3",
          "midi": 54,
          "time": 76.5,
          "velocity": 0.8818897637795275,
          "duration": 0.3687500000000057
        },
        {
          "name": "F#3",
          "midi": 54,
          "time": 76.875,
          "velocity": 0.8818897637795275,
          "duration": 0.3687500000000057
        },
        {
          "name": "F#3",
          "midi": 54,
          "time": 77.25,
          "velocity": 0.84251968503937,
          "duration": 0.3687500000000057
        },
        {
          "name": "E2",
          "midi": 40,
          "time": 77.25,
          "velocity": 0.8110236220472441,
          "duration": 0.7437500000000057
        },
        {
          "name": "F#3",
          "midi": 54,
          "time": 77.625,
          "velocity": 0.9212598425196851,
          "duration": 0.3687500000000057
        },
        {
          "name": "C2",
          "midi": 36,
          "time": 78,
          "velocity": 0.905511811023622,
          "duration": 0.7437500000000057
        },
        {
          "name": "F#3",
          "midi": 54,
          "time": 78,
          "velocity": 0.7952755905511811,
          "duration": 0.3687500000000057
        },
        {
          "name": "F#3",
          "midi": 54,
          "time": 78.375,
          "velocity": 0.7322834645669292,
          "duration": 0.3687500000000057
        },
        {
          "name": "F#3",
          "midi": 54,
          "time": 78.75,
          "velocity": 0.8110236220472441,
          "duration": 0.3687500000000057
        },
        {
          "name": "E2",
          "midi": 40,
          "time": 78.75,
          "velocity": 0.8661417322834646,
          "duration": 0.7437500000000057
        },
        {
          "name": "F#3",
          "midi": 54,
          "time": 79.125,
          "velocity": 0.7795275590551181,
          "duration": 0.3687500000000057
        },
        {
          "name": "C2",
          "midi": 36,
          "time": 79.5,
          "velocity": 0.84251968503937,
          "duration": 0.7437500000000057
        },
        {
          "name": "F#3",
          "midi": 54,
          "time": 79.5,
          "velocity": 0.8818897637795275,
          "duration": 0.3687500000000057
        },
        {
          "name": "F#3",
          "midi": 54,
          "time": 79.875,
          "velocity": 0.8818897637795275,
          "duration": 0.3687500000000057
        },
        {
          "name": "F#3",
          "midi": 54,
          "time": 80.25,
          "velocity": 0.84251968503937,
          "duration": 0.3687500000000057
        },
        {
          "name": "E2",
          "midi": 40,
          "time": 80.25,
          "velocity": 0.8818897637795275,
          "duration": 0.7437500000000057
        },
        {
          "name": "F#3",
          "midi": 54,
          "time": 80.625,
          "velocity": 0.9212598425196851,
          "duration": 0.3687500000000057
        },
        {
          "name": "C2",
          "midi": 36,
          "time": 81,
          "velocity": 0.937007874015748,
          "duration": 0.7437500000000057
        },
        {
          "name": "F#3",
          "midi": 54,
          "time": 81,
          "velocity": 0.7952755905511811,
          "duration": 0.3687500000000057
        },
        {
          "name": "F#3",
          "midi": 54,
          "time": 81.375,
          "velocity": 0.7322834645669292,
          "duration": 0.3687500000000057
        },
        {
          "name": "F#3",
          "midi": 54,
          "time": 81.75,
          "velocity": 0.8110236220472441,
          "duration": 0.3687500000000057
        },
        {
          "name": "E2",
          "midi": 40,
          "time": 81.75,
          "velocity": 0.8818897637795275,
          "duration": 0.7437500000000057
        },
        {
          "name": "F#3",
          "midi": 54,
          "time": 82.125,
          "velocity": 0.7795275590551181,
          "duration": 0.3687500000000057
        },
        {
          "name": "C2",
          "midi": 36,
          "time": 82.5,
          "velocity": 0.9212598425196851,
          "duration": 0.7437500000000057
        },
        {
          "name": "F#3",
          "midi": 54,
          "time": 82.5,
          "velocity": 0.8818897637795275,
          "duration": 0.3687500000000057
        },
        {
          "name": "F#3",
          "midi": 54,
          "time": 82.875,
          "velocity": 0.8818897637795275,
          "duration": 0.3687500000000057
        },
        {
          "name": "F#3",
          "midi": 54,
          "time": 83.25,
          "velocity": 0.84251968503937,
          "duration": 0.3687500000000057
        },
        {
          "name": "E2",
          "midi": 40,
          "time": 83.25,
          "velocity": 0.937007874015748,
          "duration": 0.7437500000000057
        },
        {
          "name": "F#3",
          "midi": 54,
          "time": 83.625,
          "velocity": 0.9212598425196851,
          "duration": 0.3687500000000057
        },
        {
          "name": "C2",
          "midi": 36,
          "time": 84,
          "velocity": 0.937007874015748,
          "duration": 0.7437500000000057
        },
        {
          "name": "F#3",
          "midi": 54,
          "time": 84,
          "velocity": 0.7952755905511811,
          "duration": 0.3687500000000057
        },
        {
          "name": "F#3",
          "midi": 54,
          "time": 84.375,
          "velocity": 0.7322834645669292,
          "duration": 0.3687500000000057
        },
        {
          "name": "F#3",
          "midi": 54,
          "time": 84.75,
          "velocity": 0.8110236220472441,
          "duration": 0.3687500000000057
        },
        {
          "name": "E2",
          "midi": 40,
          "time": 84.75,
          "velocity": 0.8818897637795275,
          "duration": 0.7437500000000057
        },
        {
          "name": "F#3",
          "midi": 54,
          "time": 85.125,
          "velocity": 0.7795275590551181,
          "duration": 0.3687500000000057
        },
        {
          "name": "C2",
          "midi": 36,
          "time": 85.5,
          "velocity": 0.8818897637795275,
          "duration": 0.7437500000000057
        },
        {
          "name": "F#3",
          "midi": 54,
          "time": 85.5,
          "velocity": 0.8818897637795275,
          "duration": 0.3687500000000057
        },
        {
          "name": "F#3",
          "midi": 54,
          "time": 85.875,
          "velocity": 0.8818897637795275,
          "duration": 0.3687500000000057
        },
        {
          "name": "F#3",
          "midi": 54,
          "time": 86.25,
          "velocity": 0.84251968503937,
          "duration": 0.3687500000000057
        },
        {
          "name": "E2",
          "midi": 40,
          "time": 86.25,
          "velocity": 0.8818897637795275,
          "duration": 0.7437500000000057
        },
        {
          "name": "F#3",
          "midi": 54,
          "time": 86.625,
          "velocity": 0.9212598425196851,
          "duration": 0.3687500000000057
        },
        {
          "name": "C2",
          "midi": 36,
          "time": 87,
          "velocity": 0.937007874015748,
          "duration": 0.7437500000000057
        },
        {
          "name": "F#3",
          "midi": 54,
          "time": 87,
          "velocity": 0.7952755905511811,
          "duration": 0.3687500000000057
        },
        {
          "name": "F#3",
          "midi": 54,
          "time": 87.375,
          "velocity": 0.7322834645669292,
          "duration": 0.3687500000000057
        },
        {
          "name": "F#3",
          "midi": 54,
          "time": 87.75,
          "velocity": 0.8110236220472441,
          "duration": 0.3687500000000057
        },
        {
          "name": "E2",
          "midi": 40,
          "time": 87.75,
          "velocity": 0.84251968503937,
          "duration": 0.7437500000000057
        },
        {
          "name": "F#3",
          "midi": 54,
          "time": 88.125,
          "velocity": 0.7795275590551181,
          "duration": 0.3687500000000057
        },
        {
          "name": "C2",
          "midi": 36,
          "time": 88.5,
          "velocity": 0.937007874015748,
          "duration": 0.7437500000000057
        },
        {
          "name": "F#3",
          "midi": 54,
          "time": 88.5,
          "velocity": 0.8818897637795275,
          "duration": 0.3687500000000057
        },
        {
          "name": "F#3",
          "midi": 54,
          "time": 88.875,
          "velocity": 0.8818897637795275,
          "duration": 0.3687500000000057
        },
        {
          "name": "F#3",
          "midi": 54,
          "time": 89.25,
          "velocity": 0.84251968503937,
          "duration": 0.3687500000000057
        },
        {
          "name": "E2",
          "midi": 40,
          "time": 89.25,
          "velocity": 0.8818897637795275,
          "duration": 0.7437500000000057
        },
        {
          "name": "F#3",
          "midi": 54,
          "time": 89.625,
          "velocity": 0.9212598425196851,
          "duration": 0.3687500000000057
        },
        {
          "name": "C2",
          "midi": 36,
          "time": 90,
          "velocity": 0.937007874015748,
          "duration": 0.7437500000000057
        },
        {
          "name": "F#3",
          "midi": 54,
          "time": 90,
          "velocity": 0.7952755905511811,
          "duration": 0.3687500000000057
        },
        {
          "name": "F#3",
          "midi": 54,
          "time": 90.375,
          "velocity": 0.7322834645669292,
          "duration": 0.3687500000000057
        },
        {
          "name": "F#3",
          "midi": 54,
          "time": 90.75,
          "velocity": 0.8110236220472441,
          "duration": 0.3687500000000057
        },
        {
          "name": "E2",
          "midi": 40,
          "time": 90.75,
          "velocity": 0.937007874015748,
          "duration": 0.7437500000000057
        },
        {
          "name": "F#3",
          "midi": 54,
          "time": 91.125,
          "velocity": 0.7795275590551181,
          "duration": 0.3687500000000057
        },
        {
          "name": "C2",
          "midi": 36,
          "time": 91.5,
          "velocity": 0.968503937007874,
          "duration": 0.7437500000000057
        },
        {
          "name": "F#3",
          "midi": 54,
          "time": 91.5,
          "velocity": 0.8818897637795275,
          "duration": 0.3687500000000057
        },
        {
          "name": "F#3",
          "midi": 54,
          "time": 91.875,
          "velocity": 0.8818897637795275,
          "duration": 0.3687500000000057
        },
        {
          "name": "F#3",
          "midi": 54,
          "time": 92.25,
          "velocity": 0.84251968503937,
          "duration": 0.3687500000000057
        },
        {
          "name": "E2",
          "midi": 40,
          "time": 92.25,
          "velocity": 0.9212598425196851,
          "duration": 0.7437500000000057
        },
        {
          "name": "F#3",
          "midi": 54,
          "time": 92.625,
          "velocity": 0.9212598425196851,
          "duration": 0.3687500000000057
        },
        {
          "name": "C2",
          "midi": 36,
          "time": 93,
          "velocity": 0.937007874015748,
          "duration": 0.7437500000000057
        },
        {
          "name": "C#3",
          "midi": 49,
          "time": 93,
          "velocity": 0.8818897637795275,
          "duration": 2.9937500000000057
        },
        {
          "name": "F#3",
          "midi": 54,
          "time": 93,
          "velocity": 0.7952755905511811,
          "duration": 0.3687500000000057
        },
        {
          "name": "F#3",
          "midi": 54,
          "time": 93.375,
          "velocity": 0.7322834645669292,
          "duration": 0.3687500000000057
        },
        {
          "name": "F#3",
          "midi": 54,
          "time": 93.75,
          "velocity": 0.8110236220472441,
          "duration": 0.3687500000000057
        },
        {
          "name": "E2",
          "midi": 40,
          "time": 93.75,
          "velocity": 0.8267716535433071,
          "duration": 0.7437500000000057
        },
        {
          "name": "F#3",
          "midi": 54,
          "time": 94.125,
          "velocity": 0.7795275590551181,
          "duration": 0.3687500000000057
        },
        {
          "name": "C2",
          "midi": 36,
          "time": 94.5,
          "velocity": 0.905511811023622,
          "duration": 0.7437500000000057
        },
        {
          "name": "F#3",
          "midi": 54,
          "time": 94.5,
          "velocity": 0.8818897637795275,
          "duration": 0.3687500000000057
        },
        {
          "name": "F#3",
          "midi": 54,
          "time": 94.875,
          "velocity": 0.8818897637795275,
          "duration": 0.3687500000000057
        },
        {
          "name": "F#3",
          "midi": 54,
          "time": 95.25,
          "velocity": 0.84251968503937,
          "duration": 0.3687500000000057
        },
        {
          "name": "E2",
          "midi": 40,
          "time": 95.25,
          "velocity": 0.6850393700787402,
          "duration": 0.7437500000000057
        },
        {
          "name": "F#3",
          "midi": 54,
          "time": 95.625,
          "velocity": 0.9212598425196851,
          "duration": 0.3687500000000057
        },
        {
          "name": "C2",
          "midi": 36,
          "time": 96,
          "velocity": 0.8818897637795275,
          "duration": 0.7437500000000057
        },
        {
          "name": "F#3",
          "midi": 54,
          "time": 96,
          "velocity": 0.7952755905511811,
          "duration": 0.3687500000000057
        },
        {
          "name": "F#3",
          "midi": 54,
          "time": 96.375,
          "velocity": 0.7322834645669292,
          "duration": 0.3687500000000057
        },
        {
          "name": "F#3",
          "midi": 54,
          "time": 96.75,
          "velocity": 0.8110236220472441,
          "duration": 0.3687500000000057
        },
        {
          "name": "E2",
          "midi": 40,
          "time": 96.75,
          "velocity": 0.7480314960629921,
          "duration": 0.7437500000000057
        },
        {
          "name": "F#3",
          "midi": 54,
          "time": 97.125,
          "velocity": 0.7795275590551181,
          "duration": 0.3687500000000057
        },
        {
          "name": "C2",
          "midi": 36,
          "time": 97.5,
          "velocity": 0.937007874015748,
          "duration": 0.7437500000000057
        },
        {
          "name": "F#3",
          "midi": 54,
          "time": 97.5,
          "velocity": 0.8818897637795275,
          "duration": 0.3687500000000057
        },
        {
          "name": "F#3",
          "midi": 54,
          "time": 97.875,
          "velocity": 0.8818897637795275,
          "duration": 0.3687500000000057
        },
        {
          "name": "F#3",
          "midi": 54,
          "time": 98.25,
          "velocity": 0.84251968503937,
          "duration": 0.3687500000000057
        },
        {
          "name": "E2",
          "midi": 40,
          "time": 98.25,
          "velocity": 0.8267716535433071,
          "duration": 0.7437500000000057
        },
        {
          "name": "F#3",
          "midi": 54,
          "time": 98.625,
          "velocity": 0.9212598425196851,
          "duration": 0.3687500000000057
        },
        {
          "name": "C2",
          "midi": 36,
          "time": 99,
          "velocity": 0.9212598425196851,
          "duration": 0.7437500000000057
        },
        {
          "name": "F#3",
          "midi": 54,
          "time": 99,
          "velocity": 0.7952755905511811,
          "duration": 0.3687500000000057
        },
        {
          "name": "F#3",
          "midi": 54,
          "time": 99.375,
          "velocity": 0.7322834645669292,
          "duration": 0.3687500000000057
        },
        {
          "name": "F#3",
          "midi": 54,
          "time": 99.75,
          "velocity": 0.8110236220472441,
          "duration": 0.3687500000000057
        },
        {
          "name": "E2",
          "midi": 40,
          "time": 99.75,
          "velocity": 0.8818897637795275,
          "duration": 0.7437500000000057
        },
        {
          "name": "F#3",
          "midi": 54,
          "time": 100.125,
          "velocity": 0.7795275590551181,
          "duration": 0.3687500000000057
        },
        {
          "name": "C2",
          "midi": 36,
          "time": 100.5,
          "velocity": 0.9212598425196851,
          "duration": 0.7437500000000057
        },
        {
          "name": "F#3",
          "midi": 54,
          "time": 100.5,
          "velocity": 0.8818897637795275,
          "duration": 0.3687500000000057
        },
        {
          "name": "F#3",
          "midi": 54,
          "time": 100.875,
          "velocity": 0.8818897637795275,
          "duration": 0.3687500000000057
        },
        {
          "name": "F#3",
          "midi": 54,
          "time": 101.25,
          "velocity": 0.84251968503937,
          "duration": 0.3687500000000057
        },
        {
          "name": "E2",
          "midi": 40,
          "time": 101.25,
          "velocity": 0.8110236220472441,
          "duration": 0.7437500000000057
        },
        {
          "name": "F#3",
          "midi": 54,
          "time": 101.625,
          "velocity": 0.9212598425196851,
          "duration": 0.3687500000000057
        },
        {
          "name": "C2",
          "midi": 36,
          "time": 102,
          "velocity": 0.905511811023622,
          "duration": 0.7437500000000057
        },
        {
          "name": "F#3",
          "midi": 54,
          "time": 102,
          "velocity": 0.7952755905511811,
          "duration": 0.3687500000000057
        },
        {
          "name": "F#3",
          "midi": 54,
          "time": 102.375,
          "velocity": 0.7322834645669292,
          "duration": 0.3687500000000057
        },
        {
          "name": "F#3",
          "midi": 54,
          "time": 102.75,
          "velocity": 0.8110236220472441,
          "duration": 0.3687500000000057
        },
        {
          "name": "E2",
          "midi": 40,
          "time": 102.75,
          "velocity": 0.8661417322834646,
          "duration": 0.7437500000000057
        },
        {
          "name": "F#3",
          "midi": 54,
          "time": 103.125,
          "velocity": 0.7795275590551181,
          "duration": 0.3687500000000057
        },
        {
          "name": "C2",
          "midi": 36,
          "time": 103.5,
          "velocity": 0.905511811023622,
          "duration": 0.7437500000000057
        },
        {
          "name": "F#3",
          "midi": 54,
          "time": 103.5,
          "velocity": 0.8818897637795275,
          "duration": 0.3687500000000057
        },
        {
          "name": "F#3",
          "midi": 54,
          "time": 103.875,
          "velocity": 0.8818897637795275,
          "duration": 0.3687500000000057
        },
        {
          "name": "B2",
          "midi": 47,
          "time": 104,
          "velocity": 0.6456692913385826,
          "duration": 0.11875000000000568
        },
        {
          "name": "B2",
          "midi": 47,
          "time": 104.125,
          "velocity": 0.7401574803149606,
          "duration": 0.11875000000000568
        },
        {
          "name": "B2",
          "midi": 47,
          "time": 104.25,
          "velocity": 0.7795275590551181,
          "duration": 0.11875000000000568
        },
        {
          "name": "A2",
          "midi": 45,
          "time": 104.25,
          "velocity": 0.937007874015748,
          "duration": 0.24375000000000568
        },
        {
          "name": "F#3",
          "midi": 54,
          "time": 104.25,
          "velocity": 0.84251968503937,
          "duration": 0.3687500000000057
        },
        {
          "name": "E2",
          "midi": 40,
          "time": 104.25,
          "velocity": 0.8818897637795275,
          "duration": 0.7437500000000057
        },
        {
          "name": "A2",
          "midi": 45,
          "time": 104.625,
          "velocity": 0.937007874015748,
          "duration": 0.24375000000000568
        },
        {
          "name": "F#3",
          "midi": 54,
          "time": 104.625,
          "velocity": 0.9212598425196851,
          "duration": 0.3687500000000057
        },
        {
          "name": "C2",
          "midi": 36,
          "time": 105,
          "velocity": 0.9212598425196851,
          "duration": 0.7437500000000057
        },
        {
          "name": "C#3",
          "midi": 49,
          "time": 105,
          "velocity": 0.7322834645669292,
          "duration": 2.9937500000000057
        },
        {
          "name": "F#3",
          "midi": 54,
          "time": 105,
          "velocity": 0.7952755905511811,
          "duration": 0.3687500000000057
        },
        {
          "name": "F#3",
          "midi": 54,
          "time": 105.375,
          "velocity": 0.7322834645669292,
          "duration": 0.3687500000000057
        },
        {
          "name": "F#3",
          "midi": 54,
          "time": 105.75,
          "velocity": 0.8110236220472441,
          "duration": 0.3687500000000057
        },
        {
          "name": "E2",
          "midi": 40,
          "time": 105.75,
          "velocity": 0.8818897637795275,
          "duration": 0.7437500000000057
        },
        {
          "name": "F#3",
          "midi": 54,
          "time": 106.125,
          "velocity": 0.7795275590551181,
          "duration": 0.3687500000000057
        },
        {
          "name": "C2",
          "midi": 36,
          "time": 106.5,
          "velocity": 0.937007874015748,
          "duration": 0.7437500000000057
        },
        {
          "name": "F#3",
          "midi": 54,
          "time": 106.5,
          "velocity": 0.8818897637795275,
          "duration": 0.3687500000000057
        },
        {
          "name": "F#3",
          "midi": 54,
          "time": 106.875,
          "velocity": 0.8818897637795275,
          "duration": 0.3687500000000057
        },
        {
          "name": "F#3",
          "midi": 54,
          "time": 107.25,
          "velocity": 0.84251968503937,
          "duration": 0.3687500000000057
        },
        {
          "name": "E2",
          "midi": 40,
          "time": 107.25,
          "velocity": 0.937007874015748,
          "duration": 0.7437500000000057
        },
        {
          "name": "F#3",
          "midi": 54,
          "time": 107.625,
          "velocity": 0.9212598425196851,
          "duration": 0.3687500000000057
        },
        {
          "name": "C2",
          "midi": 36,
          "time": 108,
          "velocity": 0.905511811023622,
          "duration": 0.7437500000000057
        },
        {
          "name": "F#3",
          "midi": 54,
          "time": 108,
          "velocity": 0.7952755905511811,
          "duration": 0.3687500000000057
        },
        {
          "name": "F#3",
          "midi": 54,
          "time": 108.375,
          "velocity": 0.7322834645669292,
          "duration": 0.3687500000000057
        },
        {
          "name": "F#3",
          "midi": 54,
          "time": 108.75,
          "velocity": 0.8110236220472441,
          "duration": 0.3687500000000057
        },
        {
          "name": "E2",
          "midi": 40,
          "time": 108.75,
          "velocity": 0.8818897637795275,
          "duration": 0.7437500000000057
        },
        {
          "name": "F#3",
          "midi": 54,
          "time": 109.125,
          "velocity": 0.7795275590551181,
          "duration": 0.3687500000000057
        },
        {
          "name": "C2",
          "midi": 36,
          "time": 109.5,
          "velocity": 0.937007874015748,
          "duration": 0.7437500000000057
        },
        {
          "name": "F#3",
          "midi": 54,
          "time": 109.5,
          "velocity": 0.8818897637795275,
          "duration": 0.3687500000000057
        },
        {
          "name": "F#3",
          "midi": 54,
          "time": 109.875,
          "velocity": 0.8818897637795275,
          "duration": 0.3687500000000057
        },
        {
          "name": "F#3",
          "midi": 54,
          "time": 110.25,
          "velocity": 0.84251968503937,
          "duration": 0.3687500000000057
        },
        {
          "name": "E2",
          "midi": 40,
          "time": 110.25,
          "velocity": 0.8818897637795275,
          "duration": 0.7437500000000057
        },
        {
          "name": "F#3",
          "midi": 54,
          "time": 110.625,
          "velocity": 0.9212598425196851,
          "duration": 0.3687500000000057
        },
        {
          "name": "C2",
          "midi": 36,
          "time": 111,
          "velocity": 0.984251968503937,
          "duration": 0.7437500000000057
        },
        {
          "name": "F#3",
          "midi": 54,
          "time": 111,
          "velocity": 0.7952755905511811,
          "duration": 0.3687500000000057
        },
        {
          "name": "F#3",
          "midi": 54,
          "time": 111.375,
          "velocity": 0.7322834645669292,
          "duration": 0.3687500000000057
        },
        {
          "name": "F#3",
          "midi": 54,
          "time": 111.75,
          "velocity": 0.8110236220472441,
          "duration": 0.3687500000000057
        },
        {
          "name": "E2",
          "midi": 40,
          "time": 111.75,
          "velocity": 0.84251968503937,
          "duration": 0.7437500000000057
        },
        {
          "name": "F#3",
          "midi": 54,
          "time": 112.125,
          "velocity": 0.7795275590551181,
          "duration": 0.3687500000000057
        },
        {
          "name": "C2",
          "midi": 36,
          "time": 112.5,
          "velocity": 0.937007874015748,
          "duration": 0.7437500000000057
        },
        {
          "name": "F#3",
          "midi": 54,
          "time": 112.5,
          "velocity": 0.8818897637795275,
          "duration": 0.3687500000000057
        },
        {
          "name": "F#3",
          "midi": 54,
          "time": 112.875,
          "velocity": 0.8818897637795275,
          "duration": 0.3687500000000057
        },
        {
          "name": "F#3",
          "midi": 54,
          "time": 113.25,
          "velocity": 0.84251968503937,
          "duration": 0.3687500000000057
        },
        {
          "name": "E2",
          "midi": 40,
          "time": 113.25,
          "velocity": 0.8818897637795275,
          "duration": 0.7437500000000057
        },
        {
          "name": "F#3",
          "midi": 54,
          "time": 113.625,
          "velocity": 0.9212598425196851,
          "duration": 0.3687500000000057
        },
        {
          "name": "C2",
          "midi": 36,
          "time": 114,
          "velocity": 0.8661417322834646,
          "duration": 0.7437500000000057
        },
        {
          "name": "F#3",
          "midi": 54,
          "time": 114,
          "velocity": 0.7952755905511811,
          "duration": 0.3687500000000057
        },
        {
          "name": "F#3",
          "midi": 54,
          "time": 114.375,
          "velocity": 0.7322834645669292,
          "duration": 0.3687500000000057
        },
        {
          "name": "F#3",
          "midi": 54,
          "time": 114.75,
          "velocity": 0.8110236220472441,
          "duration": 0.3687500000000057
        },
        {
          "name": "E2",
          "midi": 40,
          "time": 114.75,
          "velocity": 0.937007874015748,
          "duration": 0.7437500000000057
        },
        {
          "name": "F#3",
          "midi": 54,
          "time": 115.125,
          "velocity": 0.7795275590551181,
          "duration": 0.3687500000000057
        },
        {
          "name": "C2",
          "midi": 36,
          "time": 115.5,
          "velocity": 0.9212598425196851,
          "duration": 0.7437500000000057
        },
        {
          "name": "F#3",
          "midi": 54,
          "time": 115.5,
          "velocity": 0.8818897637795275,
          "duration": 0.3687500000000057
        },
        {
          "name": "F#3",
          "midi": 54,
          "time": 115.875,
          "velocity": 0.8818897637795275,
          "duration": 0.3687500000000057
        },
        {
          "name": "F#3",
          "midi": 54,
          "time": 116.25,
          "velocity": 0.84251968503937,
          "duration": 0.3687500000000057
        },
        {
          "name": "E2",
          "midi": 40,
          "time": 116.25,
          "velocity": 0.9212598425196851,
          "duration": 0.7437500000000057
        },
        {
          "name": "F#3",
          "midi": 54,
          "time": 116.625,
          "velocity": 0.9212598425196851,
          "duration": 0.3687500000000057
        },
        {
          "name": "C2",
          "midi": 36,
          "time": 117,
          "velocity": 0.8661417322834646,
          "duration": 0.7437500000000057
        },
        {
          "name": "F#3",
          "midi": 54,
          "time": 117,
          "velocity": 0.7952755905511811,
          "duration": 0.3687500000000057
        },
        {
          "name": "F#3",
          "midi": 54,
          "time": 117.375,
          "velocity": 0.7322834645669292,
          "duration": 0.3687500000000057
        },
        {
          "name": "F#3",
          "midi": 54,
          "time": 117.75,
          "velocity": 0.8110236220472441,
          "duration": 0.3687500000000057
        },
        {
          "name": "E2",
          "midi": 40,
          "time": 117.75,
          "velocity": 0.8267716535433071,
          "duration": 0.7437500000000057
        },
        {
          "name": "F#3",
          "midi": 54,
          "time": 118.125,
          "velocity": 0.7795275590551181,
          "duration": 0.3687500000000057
        },
        {
          "name": "C2",
          "midi": 36,
          "time": 118.5,
          "velocity": 0.968503937007874,
          "duration": 0.7437500000000057
        },
        {
          "name": "F#3",
          "midi": 54,
          "time": 118.5,
          "velocity": 0.8818897637795275,
          "duration": 0.3687500000000057
        },
        {
          "name": "F#3",
          "midi": 54,
          "time": 118.875,
          "velocity": 0.8818897637795275,
          "duration": 0.3687500000000057
        },
        {
          "name": "F#3",
          "midi": 54,
          "time": 119.25,
          "velocity": 0.84251968503937,
          "duration": 0.3687500000000057
        },
        {
          "name": "E2",
          "midi": 40,
          "time": 119.25,
          "velocity": 0.6850393700787402,
          "duration": 0.7437500000000057
        },
        {
          "name": "F#3",
          "midi": 54,
          "time": 119.625,
          "velocity": 0.9212598425196851,
          "duration": 0.3687500000000057
        },
        {
          "name": "C2",
          "midi": 36,
          "time": 120,
          "velocity": 0.937007874015748,
          "duration": 0.7437500000000057
        },
        {
          "name": "F#3",
          "midi": 54,
          "time": 120,
          "velocity": 0.7952755905511811,
          "duration": 0.3687500000000057
        },
        {
          "name": "F#3",
          "midi": 54,
          "time": 120.375,
          "velocity": 0.7322834645669292,
          "duration": 0.3687500000000057
        },
        {
          "name": "F#3",
          "midi": 54,
          "time": 120.75,
          "velocity": 0.8110236220472441,
          "duration": 0.3687500000000057
        },
        {
          "name": "E2",
          "midi": 40,
          "time": 120.75,
          "velocity": 0.7480314960629921,
          "duration": 0.7437500000000057
        },
        {
          "name": "F#3",
          "midi": 54,
          "time": 121.125,
          "velocity": 0.7795275590551181,
          "duration": 0.3687500000000057
        },
        {
          "name": "C2",
          "midi": 36,
          "time": 121.5,
          "velocity": 0.937007874015748,
          "duration": 0.7437500000000057
        },
        {
          "name": "F#3",
          "midi": 54,
          "time": 121.5,
          "velocity": 0.8818897637795275,
          "duration": 0.3687500000000057
        },
        {
          "name": "F#3",
          "midi": 54,
          "time": 121.875,
          "velocity": 0.8818897637795275,
          "duration": 0.3687500000000057
        },
        {
          "name": "F#3",
          "midi": 54,
          "time": 122.25,
          "velocity": 0.84251968503937,
          "duration": 0.3687500000000057
        },
        {
          "name": "E2",
          "midi": 40,
          "time": 122.25,
          "velocity": 0.8267716535433071,
          "duration": 0.7437500000000057
        },
        {
          "name": "F#3",
          "midi": 54,
          "time": 122.625,
          "velocity": 0.9212598425196851,
          "duration": 0.3687500000000057
        },
        {
          "name": "C2",
          "midi": 36,
          "time": 123,
          "velocity": 0.8661417322834646,
          "duration": 1.4937500000000057
        },
        {
          "name": "F#3",
          "midi": 54,
          "time": 123,
          "velocity": 0.7952755905511811,
          "duration": 0.3687500000000057
        },
        {
          "name": "F#3",
          "midi": 54,
          "time": 123.375,
          "velocity": 0.7322834645669292,
          "duration": 0.3687500000000057
        },
        {
          "name": "F#3",
          "midi": 54,
          "time": 123.75,
          "velocity": 0.8110236220472441,
          "duration": 0.3687500000000057
        },
        {
          "name": "E2",
          "midi": 40,
          "time": 123.75,
          "velocity": 0.8818897637795275,
          "duration": 0.7437500000000057
        },
        {
          "name": "F#3",
          "midi": 54,
          "time": 124.125,
          "velocity": 0.7795275590551181,
          "duration": 0.3687500000000057
        },
        {
          "name": "C2",
          "midi": 36,
          "time": 124.5,
          "velocity": 0.8818897637795275,
          "duration": 0.7437500000000057
        },
        {
          "name": "F#3",
          "midi": 54,
          "time": 124.5,
          "velocity": 0.8818897637795275,
          "duration": 0.3687500000000057
        },
        {
          "name": "C2",
          "midi": 36,
          "time": 126,
          "velocity": 0.8267716535433071,
          "duration": 1.4937500000000057
        },
        {
          "name": "C#3",
          "midi": 49,
          "time": 126,
          "velocity": 0.7795275590551181,
          "duration": 2.9937500000000057
        }
      ],
      "controlChanges": {
        "7": [
          {
            "number": 7,
            "time": 0,
            "value": 0.47244094488188976
          }
        ],
        "10": [
          {
            "number": 10,
            "time": 0,
            "value": 0.5039370078740157
          }
        ],
        "64": [
          {
            "number": 64,
            "time": 0,
            "value": 0
          }
        ]
      }
    },
    {
      "startTime": 0,
      "duration": 0,
      "length": 0,
      "id": 9,
      "name": "sequenced by:"
    },
    {
      "startTime": 0,
      "duration": 0,
      "length": 0,
      "id": 10,
      "name": "Don Carroll"
    },
    {
      "startTime": 0,
      "duration": 0,
      "length": 0,
      "id": 11,
      "name": "Houston, Texas"
    },
    {
      "startTime": 0,
      "duration": 0,
      "length": 0,
      "id": 12,
      "name": "donniec@ix.netcom.com"
    }
  ]
}